{
.appVersion = "1361";
DisplayStrings = (
"/firsttonechinese/macroncomb",
"/fourthtonechinese/gravecomb",
"/secondtonechinese/acutecomb",
"+/verticallinelowmod o",
"/eturned",
"o/ereversed o",
"/creversed",
"/mturned",
"",
y,
"/dotaccentcomb/dotaboverightcomb",
"/strokeshortcomb ¯",
"/dieresiscomb/dieresiscomb_macroncomb.case/Odieresismacron",
"/tildecomb.case/Ohorntilde"
);
classes = (
{
automatic = 1;

glyphs = (
{
color = 1;
glyphname = A;
lastChange = "2022-10-11 01:51:08 +0000";
layers = (
{
anchors = (
{
name = bottom;
position = "{309, 0}";
},
{
name = ogonek;
position = "{521, 0}";
},
{
name = top;
position = "{361, 652}";
}
);
layerId = "220B7CD1-1E4F-4884-BA06-A44A5DCE8B14";
paths = (
{
closed = 1;
nodes = (
"45 -13 OFFCURVE",
"47 -11 OFFCURVE",
"50 -4 CURVE SMOOTH",
"60 23 OFFCURVE",
"157 224 OFFCURVE",
"172 247 CURVE",
"204 248 OFFCURVE",
"263 251 OFFCURVE",
"315 251 CURVE SMOOTH",
"376 251 OFFCURVE",
"434 249 OFFCURVE",
"455 248 CURVE",
"481 169 OFFCURVE",
"516 52 OFFCURVE",
"523 22 CURVE SMOOTH",
"526 10 OFFCURVE",
"529 6 OFFCURVE",
"532 3 CURVE SMOOTH",
"540 -5 OFFCURVE",
"558 -13 OFFCURVE",
"586 -13 CURVE SMOOTH",
"596 -13 OFFCURVE",
"597 -10 OFFCURVE",
"597 -5 CURVE SMOOTH",
"597 -1 OFFCURVE",
"596 1 OFFCURVE",
"593 10 CURVE SMOOTH",
"563 102 OFFCURVE",
"408 563 OFFCURVE",
"387 634 CURVE SMOOTH",
"385 642 OFFCURVE",
"361 652 OFFCURVE",
"337 652 CURVE SMOOTH",
"330 652 OFFCURVE",
"327 651 OFFCURVE",
"325 646 CURVE SMOOTH",
"269 533 OFFCURVE",
"40 82 OFFCURVE",
"5 26 CURVE SMOOTH",
"3 22 OFFCURVE",
"0 16 OFFCURVE",
"0 14 CURVE SMOOTH",
"0 -4 OFFCURVE",
"20 -13 OFFCURVE",
"40 -13 CURVE SMOOTH"
);
},
{
closed = 1;
nodes = (
"217 336 OFFCURVE",
"308 524 OFFCURVE",
"344 578 CURVE",
"360 533 OFFCURVE",
"424 350 OFFCURVE",
"441 290 CURVE",
"193 290 LINE"
);
}
);
width = 637;
},
{
anchors = (
{
name = bottom;
position = "{303, 0}";
},
{
name = ogonek;
position = "{534, 0}";
},
{
name = top;
position = "{387, 652}";
}
);
layerId = "63F4CE79-9D5F-46D3-B41C-385689F27F0A";
paths = (
{
closed = 1;
nodes = (
"118 -13 OFFCURVE",
"119 -8 OFFCURVE",
"121 -3 CURVE",
"143 58 OFFCURVE",
"175 139 OFFCURVE",
"181 154 CURVE",
"195 155 OFFCURVE",
"234 157 OFFCURVE",
"280 157 CURVE SMOOTH",
"306 157 OFFCURVE",
"368 155 OFFCURVE",
"398 152 CURVE",
"404 124 OFFCURVE",
"409 96 OFFCURVE",
"412 68 CURVE SMOOTH",
"414 51 OFFCURVE",
"420 41 OFFCURVE",
"428 33 CURVE SMOOTH",
"459 2 OFFCURVE",
"543 -13 OFFCURVE",
"598 -13 CURVE SMOOTH",
"644 -13 OFFCURVE",
"652 -4 OFFCURVE",
"652 14 CURVE SMOOTH",
"652 17 OFFCURVE",
"651 24 OFFCURVE",
"647 41 CURVE SMOOTH",
"630 121 OFFCURVE",
"551 425 OFFCURVE",
"518 588 CURVE SMOOTH",
"511 623 OFFCURVE",
"421 652 OFFCURVE",
"327 652 CURVE SMOOTH",
"282 652 OFFCURVE",
"275 646 OFFCURVE",
"269 626 CURVE SMOOTH",
"254 579 OFFCURVE",
"128 311 OFFCURVE",
"24 87 CURVE SMOOTH",
"16 70 OFFCURVE",
"15 66 OFFCURVE",
"15 58 CURVE SMOOTH",
"15 16 OFFCURVE",
"60 -13 OFFCURVE",
"101 -13 CURVE"
);
},
{
closed = 1;
nodes = (
"248 318 OFFCURVE",
"301 439 OFFCURVE",
"323 475 CURVE",
"332 437 OFFCURVE",
"364 302 OFFCURVE",
"376 247 CURVE",
"218 247 LINE"
);
}
);
width = 658;
}
);
leftKerningGroup = KO_A;
note = A;
rightKerningGroup = KO_A;
unicode = 0041;
userData = {
KernOnName = A;
};
},
{
color = 7;
glyphname = "Alpha-latin";
lastChange = "2022-10-09 04:13:13 +0000";
layers = (
{
background = {
paths = (
{
closed = 1;
nodes = (
"104 -13 OFFCURVE",
"106 -10 OFFCURVE",
"106 -5 CURVE SMOOTH",
"106 107 OFFCURVE",
"109 214 OFFCURVE",
"116 309 CURVE",
"194 313 OFFCURVE",
"272 315 OFFCURVE",
"349 315 CURVE SMOOTH",
"421 315 OFFCURVE",
"493 313 OFFCURVE",
"563 310 CURVE",
"554 160 OFFCURVE",
"543 20 OFFCURVE",
"543 14 CURVE SMOOTH",
"543 -4 OFFCURVE",
"573 -13 OFFCURVE",
"596 -13 CURVE SMOOTH",
"604 -13 OFFCURVE",
"607 -10 OFFCURVE",
"607 -5 CURVE SMOOTH",
"607 317 OFFCURVE",
"642 612 OFFCURVE",
"642 626 CURVE SMOOTH",
"642 644 OFFCURVE",
"611 652 OFFCURVE",
"588 652 CURVE SMOOTH",
"579 652 OFFCURVE",
"578 650 OFFCURVE",
"578 645 CURVE SMOOTH",
"577 597 OFFCURVE",
"572 476 OFFCURVE",
"565 353 CURVE",
"118 353 LINE",
"128 509 OFFCURVE",
"141 618 OFFCURVE",
"141 626 CURVE SMOOTH",
"141 644 OFFCURVE",
"111 652 OFFCURVE",
"88 652 CURVE SMOOTH",
"79 652 OFFCURVE",
"78 650 OFFCURVE",
"78 645 CURVE SMOOTH",
"75 537 OFFCURVE",
"43 26 OFFCURVE",
"43 14 CURVE SMOOTH",
"43 -4 OFFCURVE",
"73 -13 OFFCURVE",
"96 -13 CURVE SMOOTH"
);
}
);
};
layerId = "220B7CD1-1E4F-4884-BA06-A44A5DCE8B14";
paths = (
{
closed = 1;
nodes = (
"663 -16 OFFCURVE",
"715 52 OFFCURVE",
"775 125 CURVE SMOOTH",
"778 129 OFFCURVE",
"779 132 OFFCURVE",
"779 137 CURVE SMOOTH",
"779 151 OFFCURVE",
"767 172 OFFCURVE",
"762 172 CURVE SMOOTH",
"759 172 OFFCURVE",
"757 168 OFFCURVE",
"754 165 CURVE",
"725 128 OFFCURVE",
"655 39 OFFCURVE",
"630 39 CURVE SMOOTH",
"612 39 OFFCURVE",
"607 49 OFFCURVE",
"607 102 CURVE SMOOTH",
"607 129 OFFCURVE",
"613 285 OFFCURVE",
"617 339 CURVE SMOOTH",
"624 427 OFFCURVE",
"637 570 OFFCURVE",
"642 626 CURVE SMOOTH",
"644 644 OFFCURVE",
"607 652 OFFCURVE",
"588 652 CURVE SMOOTH",
"585 652 OFFCURVE",
"578 650 OFFCURVE",
"578 645 CURVE SMOOTH",
"578 631 OFFCURVE",
"577 597 OFFCURVE",
"574 544 CURVE",
"531 615 OFFCURVE",
"472 655 OFFCURVE",
"386 655 CURVE SMOOTH",
"236 655 OFFCURVE",
"65 565 OFFCURVE",
"65 274 CURVE SMOOTH",
"65 54 OFFCURVE",
"169 -16 OFFCURVE",
"320 -16 CURVE SMOOTH",
"417 -16 OFFCURVE",
"490 38 OFFCURVE",
"545 108 CURVE",
"545 70 OFFCURVE",
"545 33 OFFCURVE",
"548 26 CURVE SMOOTH",
"553 13 OFFCURVE",
"599 -16 OFFCURVE",
"613 -16 CURVE SMOOTH"
);
},
{
closed = 1;
nodes = (
"187 26 OFFCURVE",
"126 106 OFFCURVE",
"126 282 CURVE SMOOTH",
"126 496 OFFCURVE",
"237 615 OFFCURVE",
"373 615 CURVE SMOOTH",
"497 615 OFFCURVE",
"568 518 OFFCURVE",
"560 361 CURVE SMOOTH",
"551 170 OFFCURVE",
"479 26 OFFCURVE",
"326 26 CURVE SMOOTH"
);
}
);
userData = {
RMXScaler = {
height = 125;
width = 130;
};
};
width = 810;
},
{
background = {
components = (
{
name = H;
transform = "{1, 0, 0, 1, 10, 0}";
}
);
};
layerId = "63F4CE79-9D5F-46D3-B41C-385689F27F0A";
paths = (
{
closed = 1;
nodes = (
"701 -13 OFFCURVE",
"795 73 OFFCURVE",
"835 126 CURVE SMOOTH",
"843 137 OFFCURVE",
"847 147 OFFCURVE",
"847 158 CURVE SMOOTH",
"847 180 OFFCURVE",
"815 207 OFFCURVE",
"804 207 CURVE SMOOTH",
"797 207 OFFCURVE",
"795 201 OFFCURVE",
"791 196 CURVE SMOOTH",
"780 182 OFFCURVE",
"773 165 OFFCURVE",
"759 165 CURVE SMOOTH",
"748 165 OFFCURVE",
"740 173 OFFCURVE",
"740 198 CURVE SMOOTH",
"740 227 OFFCURVE",
"752 309 OFFCURVE",
"760 360 CURVE SMOOTH",
"771 431 OFFCURVE",
"777 540 OFFCURVE",
"777 579 CURVE SMOOTH",
"777 632 OFFCURVE",
"670 652 OFFCURVE",
"602 652 CURVE SMOOTH",
"574 652 OFFCURVE",
"564 644 OFFCURVE",
"562 619 CURVE SMOOTH",
"561 606 OFFCURVE",
"565 596 OFFCURVE",
"562 582 CURVE",
"529 626 OFFCURVE",
"468 650 OFFCURVE",
"391 650 CURVE SMOOTH",
"203 650 OFFCURVE",
"45 510 OFFCURVE",
"45 272 CURVE SMOOTH",
"45 14 OFFCURVE",
"208 -13 OFFCURVE",
"357 -13 CURVE SMOOTH",
"408 -13 OFFCURVE",
"480 22 OFFCURVE",
"539 71 CURVE",
"539 53 OFFCURVE",
"536 25 OFFCURVE",
"550 13 CURVE SMOOTH",
"565 -1 OFFCURVE",
"610 -13 OFFCURVE",
"622 -13 CURVE SMOOTH"
);
},
{
closed = 1;
nodes = (
"295 91 OFFCURVE",
"272 154 OFFCURVE",
"272 261 CURVE SMOOTH",
"272 429 OFFCURVE",
"339 543 OFFCURVE",
"408 542 CURVE SMOOTH",
"514 541 OFFCURVE",
"543 502 OFFCURVE",
"534 371 CURVE SMOOTH",
"523 216 OFFCURVE",
"437 91 OFFCURVE",
"362 91 CURVE SMOOTH"
);
}
);
userData = {
RMXScaler = {
height = 124;
width = 130;
};
};
width = 820;
}
);
leftKerningGroup = KO_O;
unicode = 2C6D;
userData = {
RMXScaler = {
source = "alpha-latin";
};
};
},
{
color = 1;
glyphname = AE;
lastChange = "2022-10-09 03:52:39 +0000";
layers = (
{
anchors = (
{
name = bottom;
position = "{400, 0}";
},
{
name = top;
position = "{412, 652}";
}
);
layerId = "220B7CD1-1E4F-4884-BA06-A44A5DCE8B14";
paths = (
{
closed = 1;
nodes = (
"-1 -13 OFFCURVE",
"3 -5 OFFCURVE",
"21 31 CURVE SMOOTH",
"43 75 OFFCURVE",
"115 209 OFFCURVE",
"158 270 CURVE",
"174 271 OFFCURVE",
"248 271 OFFCURVE",
"298 271 CURVE SMOOTH",
"338 271 LINE",
"330 188 OFFCURVE",
"324 38 OFFCURVE",
"320 0 CURVE",
"683 0 LINE SMOOTH",
"690 0 OFFCURVE",
"700 26 OFFCURVE",
"700 44 CURVE SMOOTH",
"700 52 OFFCURVE",
"700 58 OFFCURVE",
"698 58 CURVE SMOOTH",
"695 58 OFFCURVE",
"616 37 OFFCURVE",
"475 37 CURVE SMOOTH",
"398 37 OFFCURVE",
"387 43 OFFCURVE",
"387 82 CURVE SMOOTH",
"387 149 OFFCURVE",
"388 228 OFFCURVE",
"393 312 CURVE",
"433 312 LINE SMOOTH",
"574 312 OFFCURVE",
"622 304 OFFCURVE",
"626 304 CURVE SMOOTH",
"630 304 OFFCURVE",
"636 326 OFFCURVE",
"636 341 CURVE SMOOTH",
"636 349 OFFCURVE",
"634 355 OFFCURVE",
"631 355 CURVE SMOOTH",
"396 355 LINE",
"402 458 OFFCURVE",
"411 552 OFFCURVE",
"417 596 CURVE",
"450 596 LINE SMOOTH",
"591 596 OFFCURVE",
"639 587 OFFCURVE",
"642 587 CURVE SMOOTH",
"646 587 OFFCURVE",
"653 610 OFFCURVE",
"653 625 CURVE SMOOTH",
"653 633 OFFCURVE",
"650 639 OFFCURVE",
"648 639 CURVE SMOOTH",
"345 639 LINE SMOOTH",
"334 639 OFFCURVE",
"332 634 OFFCURVE",
"326 626 CURVE SMOOTH",
"228 478 OFFCURVE",
"66 209 OFFCURVE",
"-23 71 CURVE SMOOTH",
"-36 51 OFFCURVE",
"-37 43 OFFCURVE",
"-37 29 CURVE SMOOTH",
"-37 7 OFFCURVE",
"-10 -13 OFFCURVE",
"-6 -13 CURVE SMOOTH"
);
},
{
closed = 1;
nodes = (
"226 392 OFFCURVE",
"305 514 OFFCURVE",
"354 586 CURVE",
"353 520 OFFCURVE",
"345 401 OFFCURVE",
"341 310 CURVE",
"180 310 LINE"
);
}
);
width = 754;
},
{
anchors = (
{
name = bottom;
position = "{424, 0}";
},
{
name = top;
position = "{436, 652}";
}
);
layerId = "63F4CE79-9D5F-46D3-B41C-385689F27F0A";
paths = (
{
closed = 1;
nodes = (
"125 -13 OFFCURVE",
"126 -8 OFFCURVE",
"128 -3 CURVE",
"150 58 OFFCURVE",
"187 139 OFFCURVE",
"197 154 CURVE",
"211 155 OFFCURVE",
"250 157 OFFCURVE",
"296 157 CURVE",
"345 157 LINE",
"341 76 OFFCURVE",
"337 15 OFFCURVE",
"337 0 CURVE",
"767 0 LINE",
"796 0 OFFCURVE",
"802 67 OFFCURVE",
"802 86 CURVE",
"802 112 OFFCURVE",
"802 119 OFFCURVE",
"795 119 CURVE",
"785 119 OFFCURVE",
"713 106 OFFCURVE",
"637 106 CURVE",
"560 106 OFFCURVE",
"549 115 OFFCURVE",
"549 146 CURVE",
"549 190 OFFCURVE",
"554 264 OFFCURVE",
"554 277 CURVE",
"576 277 LINE",
"655 277 OFFCURVE",
"729 272 OFFCURVE",
"738 272 CURVE",
"748 272 OFFCURVE",
"754 313 OFFCURVE",
"754 342 CURVE",
"754 367 OFFCURVE",
"749 374 OFFCURVE",
"733 374 CURVE",
"557 374 LINE",
"557 418 OFFCURVE",
"564 524 OFFCURVE",
"569 541 CURVE",
"595 541 LINE",
"657 541 OFFCURVE",
"740 537 OFFCURVE",
"749 537 CURVE",
"759 537 OFFCURVE",
"765 577 OFFCURVE",
"765 606 CURVE",
"765 631 OFFCURVE",
"760 639 OFFCURVE",
"744 639 CURVE",
"369 639 LINE",
"324 639 OFFCURVE",
"321 632 OFFCURVE",
"311 613 CURVE",
"292 576 OFFCURVE",
"135 284 OFFCURVE",
"31 87 CURVE",
"22 70 OFFCURVE",
"22 66 OFFCURVE",
"22 58 CURVE",
"22 16 OFFCURVE",
"67 -13 OFFCURVE",
"108 -13 CURVE"
);
},
{
closed = 1;
nodes = (
"262 302 OFFCURVE",
"339 443 OFFCURVE",
"361 476 CURVE",
"360 439 OFFCURVE",
"352 271 OFFCURVE",
"351 247 CURVE",
"232 247 LINE"
);
}
);
width = 814;
}
);
leftKerningGroup = KO_AE;
note = AE;
rightKerningGroup = KO_E;
rightMetricsKey = E;
unicode = 00C6;
},
{
color = 1;
glyphname = B;
lastChange = "2022-10-10 23:22:24 +0000";
layers = (
{
anchors = (
{
name = bottom;
position = "{246, 0}";
},
{
name = top;
position = "{286, 652}";
}
);
layerId = "220B7CD1-1E4F-4884-BA06-A44A5DCE8B14";
paths = (
{
closed = 1;
nodes = (
"256 0 LINE SMOOTH",
"403 0 OFFCURVE",
"482 102 OFFCURVE",
"482 196 CURVE SMOOTH",
"482 272 OFFCURVE",
"433 341 OFFCURVE",
"327 350 CURVE",
"353 360 OFFCURVE",
"462 397 OFFCURVE",
"462 510 CURVE SMOOTH",
"462 593 OFFCURVE",
"400 639 OFFCURVE",
"277 639 CURVE SMOOTH",
"134 639 LINE",
"125 422 OFFCURVE",
"105 76 OFFCURVE",
"98 0 CURVE"
);
},
{
closed = 1;
nodes = (
"176 37 OFFCURVE",
"164 43 OFFCURVE",
"164 82 CURVE SMOOTH",
"164 142 OFFCURVE",
"168 278 OFFCURVE",
"172 320 CURVE",
"201 320 OFFCURVE",
"230 320 OFFCURVE",
"259 320 CURVE SMOOTH",
"321 320 OFFCURVE",
"422 305 OFFCURVE",
"422 199 CURVE SMOOTH",
"422 91 OFFCURVE",
"355 37 OFFCURVE",
"253 37 CURVE SMOOTH"
);
},
{
closed = 1;
nodes = (
"181 460 OFFCURVE",
"188 551 OFFCURVE",
"195 596 CURVE",
"214 598 OFFCURVE",
"250 602 OFFCURVE",
"269 602 CURVE SMOOTH",
"357 602 OFFCURVE",
"403 575 OFFCURVE",
"403 503 CURVE SMOOTH",
"403 460 OFFCURVE",
"383 419 OFFCURVE",
"355 397 CURVE SMOOTH",
"313 364 OFFCURVE",
"266 357 OFFCURVE",
"176 357 CURVE"
);
}
);
width = 561;
},
{
anchors = (
{
name = bottom;
position = "{358, 0}";
},
{
name = top;
position = "{393, 652}";
}
);
layerId = "63F4CE79-9D5F-46D3-B41C-385689F27F0A";
paths = (
{
closed = 1;
nodes = (
"413 0 LINE SMOOTH",
"579 0 OFFCURVE",
"680 85 OFFCURVE",
"680 205 CURVE SMOOTH",
"680 294 OFFCURVE",
"614 342 OFFCURVE",
"525 351 CURVE",
"589 364 OFFCURVE",
"668 413 OFFCURVE",
"668 502 CURVE SMOOTH",
"668 603 OFFCURVE",
"590 639 OFFCURVE",
"454 639 CURVE SMOOTH",
"92 639 LINE",
"92 441 OFFCURVE",
"63 42 OFFCURVE",
"63 0 CURVE"
);
},
{
closed = 1;
nodes = (
"302 88 OFFCURVE",
"285 100 OFFCURVE",
"287 135 CURVE",
"290 193 OFFCURVE",
"292 250 OFFCURVE",
"295 308 CURVE",
"304 308 OFFCURVE",
"314 308 OFFCURVE",
"327 306 CURVE SMOOTH",
"393 296 OFFCURVE",
"452 265 OFFCURVE",
"452 185 CURVE SMOOTH",
"452 140 OFFCURVE",
"416 88 OFFCURVE",
"343 88 CURVE"
);
},
{
closed = 1;
nodes = (
"296 386 OFFCURVE",
"305 529 OFFCURVE",
"310 553 CURVE",
"322 553 OFFCURVE",
"333 553 OFFCURVE",
"345 553 CURVE SMOOTH",
"410 553 OFFCURVE",
"443 520 OFFCURVE",
"443 471 CURVE SMOOTH",
"443 441 OFFCURVE",
"432 411 OFFCURVE",
"406 388 CURVE SMOOTH",
"383 368 OFFCURVE",
"348 354 OFFCURVE",
"298 354 CURVE"
);
}
);
width = 713;
}
);
leftKerningGroup = KO_E;
leftMetricsKey = "=H";
note = B;
rightKerningGroup = KO_B;
unicode = 0042;
userData = {
KernOnName = B;
};
},
{
color = 1;
glyphname = Bstroke;
lastChange = "2022-10-11 01:09:40 +0000";
layers = (
{
layerId = "220B7CD1-1E4F-4884-BA06-A44A5DCE8B14";
paths = (
{
closed = 1;
nodes = (
"285 0 LINE SMOOTH",
"432 0 OFFCURVE",
"511 102 OFFCURVE",
"511 196 CURVE SMOOTH",
"511 272 OFFCURVE",
"462 341 OFFCURVE",
"356 350 CURVE",
"382 360 OFFCURVE",
"491 397 OFFCURVE",
"491 510 CURVE SMOOTH",
"491 593 OFFCURVE",
"429 639 OFFCURVE",
"306 639 CURVE SMOOTH",
"163 639 LINE",
"154 422 OFFCURVE",
"134 76 OFFCURVE",
"127 0 CURVE"
);
},
{
closed = 1;
nodes = (
"210 460 OFFCURVE",
"217 551 OFFCURVE",
"224 596 CURVE",
"243 598 OFFCURVE",
"279 602 OFFCURVE",
"298 602 CURVE SMOOTH",
"386 602 OFFCURVE",
"432 575 OFFCURVE",
"432 503 CURVE SMOOTH",
"432 460 OFFCURVE",
"412 419 OFFCURVE",
"384 397 CURVE SMOOTH",
"342 364 OFFCURVE",
"295 357 OFFCURVE",
"205 357 CURVE"
);
},
{
closed = 1;
nodes = (
"205 37 OFFCURVE",
"193 43 OFFCURVE",
"193 82 CURVE SMOOTH",
"193 142 OFFCURVE",
"197 278 OFFCURVE",
"201 320 CURVE",
"230 320 OFFCURVE",
"259 320 OFFCURVE",
"288 320 CURVE SMOOTH",
"350 320 OFFCURVE",
"451 305 OFFCURVE",
"451 199 CURVE SMOOTH",
"451 91 OFFCURVE",
"384 37 OFFCURVE",
"282 37 CURVE SMOOTH"
);
},
{
closed = 1;
nodes = (
"323 164 LINE SMOOTH",
"332 164 OFFCURVE",
"337 183 OFFCURVE",
"337 201 CURVE SMOOTH",
"337 207 OFFCURVE",
"334 211 OFFCURVE",
"329 211 CURVE SMOOTH",
"56 211 LINE SMOOTH",
"47 211 OFFCURVE",
"41 191 OFFCURVE",
"41 173 CURVE SMOOTH",
"41 167 OFFCURVE",
"43 163 OFFCURVE",
"48 163 CURVE SMOOTH"
);
}
);
width = 590;
},
{
layerId = "63F4CE79-9D5F-46D3-B41C-385689F27F0A";
paths = (
{
closed = 1;
nodes = (
"420 0 LINE SMOOTH",
"586 0 OFFCURVE",
"687 85 OFFCURVE",
"687 205 CURVE SMOOTH",
"687 294 OFFCURVE",
"621 342 OFFCURVE",
"532 351 CURVE",
"596 364 OFFCURVE",
"675 413 OFFCURVE",
"675 502 CURVE SMOOTH",
"675 603 OFFCURVE",
"597 639 OFFCURVE",
"461 639 CURVE SMOOTH",
"99 639 LINE",
"99 441 OFFCURVE",
"70 42 OFFCURVE",
"70 0 CURVE"
);
},
{
closed = 1;
nodes = (
"303 386 OFFCURVE",
"312 529 OFFCURVE",
"317 553 CURVE",
"329 553 OFFCURVE",
"340 553 OFFCURVE",
"352 553 CURVE SMOOTH",
"417 553 OFFCURVE",
"450 520 OFFCURVE",
"450 471 CURVE SMOOTH",
"450 441 OFFCURVE",
"439 411 OFFCURVE",
"413 388 CURVE SMOOTH",
"390 368 OFFCURVE",
"355 354 OFFCURVE",
"305 354 CURVE"
);
},
{
closed = 1;
nodes = (
"309 88 OFFCURVE",
"292 100 OFFCURVE",
"294 135 CURVE",
"297 193 OFFCURVE",
"299 250 OFFCURVE",
"302 308 CURVE",
"311 308 OFFCURVE",
"321 308 OFFCURVE",
"334 306 CURVE SMOOTH",
"400 296 OFFCURVE",
"459 265 OFFCURVE",
"459 185 CURVE SMOOTH",
"459 140 OFFCURVE",
"423 88 OFFCURVE",
"350 88 CURVE"
);
},
{
closed = 1;
nodes = (
"343 140 LINE SMOOTH",
"358 140 OFFCURVE",
"369 162 OFFCURVE",
"369 213 CURVE SMOOTH",
"369 242 OFFCURVE",
"366 245 OFFCURVE",
"356 245 CURVE SMOOTH",
"41 245 LINE SMOOTH",
"26 245 OFFCURVE",
"15 218 OFFCURVE",
"15 178 CURVE SMOOTH",
"15 144 OFFCURVE",
"18 140 OFFCURVE",
"28 140 CURVE SMOOTH"
);
}
);
width = 720;
}
);
leftKerningGroup = KO_w;
leftMetricsKey = Eth;
rightKerningGroup = KO_B;
rightMetricsKey = B;
unicode = 0243;
},
{
color = 1;
glyphname = C;
lastChange = "2022-10-10 19:50:14 +0000";
layers = (
{
anchors = (
{
name = bottom;
position = "{365, 0}";
},
{
name = top;
position = "{404, 652}";
}
);
layerId = "220B7CD1-1E4F-4884-BA06-A44A5DCE8B14";
paths = (
{
closed = 1;
nodes = (
"493 -13 OFFCURVE",
"577 10 OFFCURVE",
"603 26 CURVE SMOOTH",
"613 32 OFFCURVE",
"616 50 OFFCURVE",
"616 68 CURVE SMOOTH",
"616 76 OFFCURVE",
"616 82 OFFCURVE",
"613 82 CURVE SMOOTH",
"610 82 OFFCURVE",
"603 79 OFFCURVE",
"593 74 CURVE SMOOTH",
"560 57 OFFCURVE",
"485 32 OFFCURVE",
"388 32 CURVE SMOOTH",
"244 32 OFFCURVE",
"121 121 OFFCURVE",
"121 316 CURVE SMOOTH",
"121 513 OFFCURVE",
"243 613 OFFCURVE",
"396 613 CURVE SMOOTH",
"525 613 OFFCURVE",
"587 555 OFFCURVE",
"605 555 CURVE SMOOTH",
"611 555 OFFCURVE",
"616 581 OFFCURVE",
"616 596 CURVE SMOOTH",
"616 603 OFFCURVE",
"618 610 OFFCURVE",
"597 620 CURVE SMOOTH",
"556 640 OFFCURVE",
"491 652 OFFCURVE",
"384 652 CURVE SMOOTH",
"149 652 OFFCURVE",
"60 476 OFFCURVE",
"60 312 CURVE SMOOTH",
"60 58 OFFCURVE",
"241 -13 OFFCURVE",
"398 -13 CURVE SMOOTH"
);
}
);
width = 671;
},
{
anchors = (
{
name = bottom;
position = "{378, 0}";
},
{
name = top;
position = "{417, 652}";
}
);
layerId = "63F4CE79-9D5F-46D3-B41C-385689F27F0A";
paths = (
{
closed = 1;
nodes = (
"476 -13 OFFCURVE",
"515 -10 OFFCURVE",
"574 7 CURVE SMOOTH",
"603 15 OFFCURVE",
"622 46 OFFCURVE",
"622 117 CURVE SMOOTH",
"622 131 OFFCURVE",
"620 137 OFFCURVE",
"611 137 CURVE SMOOTH",
"606 137 OFFCURVE",
"599 135 OFFCURVE",
"589 132 CURVE SMOOTH",
"532 113 OFFCURVE",
"492 110 OFFCURVE",
"439 110 CURVE SMOOTH",
"322 110 OFFCURVE",
"273 165 OFFCURVE",
"273 313 CURVE",
"273 492 OFFCURVE",
"348 526 OFFCURVE",
"423 526 CURVE SMOOTH",
"532 526 OFFCURVE",
"586 486 OFFCURVE",
"603 486 CURVE",
"636 486 OFFCURVE",
"639 555 OFFCURVE",
"639 571 CURVE",
"639 595 OFFCURVE",
"635 613 OFFCURVE",
"612 621 CURVE",
"549 643 OFFCURVE",
"483 652 OFFCURVE",
"416 652 CURVE",
"201 652 OFFCURVE",
"45 594 OFFCURVE",
"45 275 CURVE",
"45 63 OFFCURVE",
"169 -13 OFFCURVE",
"402 -13 CURVE SMOOTH"
);
}
);
width = 647;
}
);
leftKerningGroup = KO_C;
note = C;
rightKerningGroup = KO_C;
unicode = 0043;
},
{
color = 1;
glyphname = D;
lastChange = "2022-10-11 01:04:28 +0000";
layers = (
{
anchors = (
{
name = bottom;
position = "{331, 0}";
},
{
name = center;
position = "{371, 326}";
},
{
name = top;
position = "{371, 652}";
}
);
layerId = "220B7CD1-1E4F-4884-BA06-A44A5DCE8B14";
paths = (
{
closed = 1;
nodes = (
"280 0 LINE SMOOTH",
"557 0 OFFCURVE",
"676 157 OFFCURVE",
"676 365 CURVE SMOOTH",
"676 552 OFFCURVE",
"561 639 OFFCURVE",
"360 639 CURVE SMOOTH",
"134 639 LINE",
"125 422 OFFCURVE",
"101 37 OFFCURVE",
"98 0 CURVE"
);
},
{
closed = 1;
nodes = (
"176 37 OFFCURVE",
"164 43 OFFCURVE",
"164 82 CURVE SMOOTH",
"164 262 OFFCURVE",
"183 458 OFFCURVE",
"195 596 CURVE",
"241 601 OFFCURVE",
"283 603 OFFCURVE",
"322 603 CURVE SMOOTH",
"517 603 OFFCURVE",
"608 537 OFFCURVE",
"608 349 CURVE SMOOTH",
"608 123 OFFCURVE",
"467 37 OFFCURVE",
"253 37 CURVE SMOOTH"
);
}
);
width = 732;
},
{
anchors = (
{
name = bottom;
position = "{379, 0}";
},
{
name = center;
position = "{379, 326}";
},
{
name = top;
position = "{438, 652}";
}
);
layerId = "63F4CE79-9D5F-46D3-B41C-385689F27F0A";
paths = (
{
closed = 1;
nodes = (
"415 0 LINE SMOOTH",
"605 0 OFFCURVE",
"763 80 OFFCURVE",
"763 364 CURVE SMOOTH",
"763 623 OFFCURVE",
"602 639 OFFCURVE",
"446 639 CURVE SMOOTH",
"92 639 LINE",
"92 441 OFFCURVE",
"63 42 OFFCURVE",
"63 0 CURVE"
);
},
{
closed = 1;
nodes = (
"299 92 OFFCURVE",
"288 98 OFFCURVE",
"288 137 CURVE",
"288 327 OFFCURVE",
"306 519 OFFCURVE",
"308 542 CURVE",
"328 545 OFFCURVE",
"352 547 OFFCURVE",
"398 547 CURVE SMOOTH",
"483 547 OFFCURVE",
"535 496 OFFCURVE",
"535 364 CURVE SMOOTH",
"535 122 OFFCURVE",
"471 92 OFFCURVE",
"376 92 CURVE SMOOTH"
);
}
);
width = 783;
}
);
leftKerningGroup = KO_E;
leftMetricsKey = "=H";
note = D;
rightKerningGroup = KO_D;
unicode = 0044;
userData = {
KernOnName = D;
};
},
{
color = 4;
glyphname = Eth;
lastChange = "2022-10-09 03:52:55 +0000";
layers = (
{
layerId = "220B7CD1-1E4F-4884-BA06-A44A5DCE8B14";
paths = (
{
closed = 1;
nodes = (
"291 0 LINE SMOOTH",
"568 0 OFFCURVE",
"687 157 OFFCURVE",
"687 365 CURVE SMOOTH",
"687 552 OFFCURVE",
"572 639 OFFCURVE",
"371 639 CURVE SMOOTH",
"145 639 LINE",
"141 554 OFFCURVE",
"136 448 OFFCURVE",
"131 349 CURVE",
"56 349 LINE SMOOTH",
"47 349 OFFCURVE",
"41 329 OFFCURVE",
"41 311 CURVE SMOOTH",
"41 305 OFFCURVE",
"43 301 OFFCURVE",
"48 301 CURVE SMOOTH",
"51 301 OFFCURVE",
"86 305 OFFCURVE",
"129 305 CURVE",
"121 165 OFFCURVE",
"114 40 OFFCURVE",
"109 0 CURVE"
);
},
{
closed = 1;
nodes = (
"187 37 OFFCURVE",
"175 43 OFFCURVE",
"175 82 CURVE SMOOTH",
"175 156 OFFCURVE",
"178 232 OFFCURVE",
"183 305 CURVE",
"283 304 OFFCURVE",
"318 302 OFFCURVE",
"323 302 CURVE SMOOTH",
"332 302 OFFCURVE",
"337 321 OFFCURVE",
"337 339 CURVE SMOOTH",
"337 345 OFFCURVE",
"334 349 OFFCURVE",
"329 349 CURVE SMOOTH",
"186 349 LINE",
"192 441 OFFCURVE",
"201 526 OFFCURVE",
"206 596 CURVE",
"252 601 OFFCURVE",
"294 603 OFFCURVE",
"333 603 CURVE SMOOTH",
"528 603 OFFCURVE",
"619 538 OFFCURVE",
"619 349 CURVE SMOOTH",
"619 124 OFFCURVE",
"478 37 OFFCURVE",
"264 37 CURVE SMOOTH"
);
}
);
width = 743;
},
{
layerId = "63F4CE79-9D5F-46D3-B41C-385689F27F0A";
paths = (
{
closed = 1;
nodes = (
"425 0 LINE SMOOTH",
"615 0 OFFCURVE",
"773 80 OFFCURVE",
"773 364 CURVE SMOOTH",
"773 623 OFFCURVE",
"612 639 OFFCURVE",
"456 639 CURVE SMOOTH",
"102 639 LINE",
"102 566 OFFCURVE",
"98 466 OFFCURVE",
"94 379 CURVE SMOOTH",
"41 379 LINE SMOOTH",
"26 379 OFFCURVE",
"15 348 OFFCURVE",
"15 299 CURVE SMOOTH",
"15 265 OFFCURVE",
"18 261 OFFCURVE",
"28 261 CURVE SMOOTH",
"43 261 OFFCURVE",
"68 261 OFFCURVE",
"89 261 CURVE SMOOTH",
"81 132 OFFCURVE",
"73 21 OFFCURVE",
"73 0 CURVE"
);
},
{
closed = 1;
nodes = (
"309 92 OFFCURVE",
"298 98 OFFCURVE",
"298 137 CURVE",
"298 181 OFFCURVE",
"299 224 OFFCURVE",
"301 261 CURVE SMOOTH",
"337 261 OFFCURVE",
"369 261 OFFCURVE",
"403 261 CURVE SMOOTH",
"418 261 OFFCURVE",
"429 292 OFFCURVE",
"429 343 CURVE SMOOTH",
"429 376 OFFCURVE",
"426 379 OFFCURVE",
"416 379 CURVE SMOOTH",
"306 379 LINE SMOOTH",
"310 461 OFFCURVE",
"317 529 OFFCURVE",
"318 542 CURVE",
"338 545 OFFCURVE",
"362 547 OFFCURVE",
"408 547 CURVE SMOOTH",
"493 547 OFFCURVE",
"545 496 OFFCURVE",
"545 363 CURVE SMOOTH",
"545 122 OFFCURVE",
"481 92 OFFCURVE",
"386 92 CURVE SMOOTH"
);
}
);
width = 793;
}
);
leftKerningGroup = KO_Eth;
note = Eth;
rightKerningGroup = KO_D;
rightMetricsKey = "=D";
unicode = 00D0;
},
{
color = 1;
glyphname = E;
lastChange = "2022-10-10 19:50:14 +0000";
layers = (
{
anchors = (
{
name = bottom;
position = "{279, 0}";
},
{
name = ogonek;
position = "{419, 0}";
},
{
name = top;
position = "{309, 652}";
},
{
name = topleft;
position = "{22, 652}";
}
);
layerId = "220B7CD1-1E4F-4884-BA06-A44A5DCE8B14";
paths = (
{
closed = 1;
nodes = (
"482 0 LINE SMOOTH",
"489 0 OFFCURVE",
"499 26 OFFCURVE",
"499 44 CURVE SMOOTH",
"499 52 OFFCURVE",
"499 58 OFFCURVE",
"494 58 CURVE SMOOTH",
"487 58 OFFCURVE",
"435 37 OFFCURVE",
"254 37 CURVE SMOOTH",
"177 37 OFFCURVE",
"165 43 OFFCURVE",
"165 82 CURVE SMOOTH",
"165 149 OFFCURVE",
"167 228 OFFCURVE",
"172 312 CURVE",
"212 312 LINE SMOOTH",
"353 312 OFFCURVE",
"421 304 OFFCURVE",
"425 304 CURVE SMOOTH",
"429 304 OFFCURVE",
"435 326 OFFCURVE",
"435 341 CURVE SMOOTH",
"435 349 OFFCURVE",
"432 355 OFFCURVE",
"430 355 CURVE SMOOTH",
"174 355 LINE",
"181 458 OFFCURVE",
"189 552 OFFCURVE",
"196 596 CURVE",
"228 596 LINE SMOOTH",
"369 596 OFFCURVE",
"438 587 OFFCURVE",
"441 587 CURVE SMOOTH",
"445 587 OFFCURVE",
"451 610 OFFCURVE",
"451 625 CURVE SMOOTH",
"451 633 OFFCURVE",
"449 639 OFFCURVE",
"446 639 CURVE SMOOTH",
"135 639 LINE",
"126 422 OFFCURVE",
"106 76 OFFCURVE",
"98 0 CURVE"
);
}
);
width = 553;
},
{
anchors = (
{
name = bottom;
position = "{287, 0}";
},
{
name = ogonek;
position = "{427, 0}";
},
{
name = top;
position = "{317, 652}";
},
{
name = topleft;
position = "{30, 652}";
}
);
layerId = "63F4CE79-9D5F-46D3-B41C-385689F27F0A";
paths = (
{
closed = 1;
nodes = (
"506 0 LINE SMOOTH",
"535 0 OFFCURVE",
"541 67 OFFCURVE",
"541 86 CURVE SMOOTH",
"541 112 OFFCURVE",
"541 119 OFFCURVE",
"534 119 CURVE SMOOTH",
"524 119 OFFCURVE",
"452 106 OFFCURVE",
"376 106 CURVE SMOOTH",
"299 106 OFFCURVE",
"288 115 OFFCURVE",
"288 146 CURVE",
"288 190 OFFCURVE",
"293 264 OFFCURVE",
"293 277 CURVE",
"315 277 LINE SMOOTH",
"394 277 OFFCURVE",
"468 272 OFFCURVE",
"477 272 CURVE SMOOTH",
"487 272 OFFCURVE",
"493 313 OFFCURVE",
"493 342 CURVE SMOOTH",
"493 367 OFFCURVE",
"488 374 OFFCURVE",
"472 374 CURVE SMOOTH",
"296 374 LINE",
"296 418 OFFCURVE",
"303 524 OFFCURVE",
"308 541 CURVE",
"334 541 LINE SMOOTH",
"396 541 OFFCURVE",
"479 537 OFFCURVE",
"488 537 CURVE SMOOTH",
"498 537 OFFCURVE",
"504 577 OFFCURVE",
"504 606 CURVE SMOOTH",
"504 631 OFFCURVE",
"499 639 OFFCURVE",
"483 639 CURVE SMOOTH",
"92 639 LINE",
"92 441 OFFCURVE",
"63 42 OFFCURVE",
"63 0 CURVE"
);
}
);
width = 553;
}
);
leftKerningGroup = KO_E;
leftMetricsKey = H;
note = E;
rightKerningGroup = KO_E;
unicode = 0045;
userData = {
KernOnName = E;
};
},
{
color = 5;
glyphname = Ecircumflex;
lastChange = "2022-10-09 03:59:37 +0000";
layers = (
{
background = {
paths = (
{
closed = 1;
nodes = (
"480 0 LINE SMOOTH",
"487 0 OFFCURVE",
"497 26 OFFCURVE",
"497 44 CURVE SMOOTH",
"497 52 OFFCURVE",
"497 58 OFFCURVE",
"492 58 CURVE SMOOTH",
"485 58 OFFCURVE",
"433 37 OFFCURVE",
"252 37 CURVE SMOOTH",
"175 37 OFFCURVE",
"163 43 OFFCURVE",
"163 82 CURVE SMOOTH",
"163 149 OFFCURVE",
"165 228 OFFCURVE",
"170 312 CURVE",
"210 312 LINE SMOOTH",
"351 312 OFFCURVE",
"419 304 OFFCURVE",
"423 304 CURVE SMOOTH",
"427 304 OFFCURVE",
"433 326 OFFCURVE",
"433 341 CURVE SMOOTH",
"433 349 OFFCURVE",
"430 355 OFFCURVE",
"428 355 CURVE SMOOTH",
"172 355 LINE",
"179 458 OFFCURVE",
"187 552 OFFCURVE",
"194 596 CURVE",
"226 596 LINE SMOOTH",
"367 596 OFFCURVE",
"436 587 OFFCURVE",
"439 587 CURVE SMOOTH",
"443 587 OFFCURVE",
"449 610 OFFCURVE",
"449 625 CURVE SMOOTH",
"449 633 OFFCURVE",
"447 639 OFFCURVE",
"444 639 CURVE SMOOTH",
"133 639 LINE",
"124 422 OFFCURVE",
"104 76 OFFCURVE",
"96 0 CURVE"
);
},
{
closed = 1;
nodes = (
"168 698 OFFCURVE",
"256 782 OFFCURVE",
"314 830 CURVE",
"349 786 OFFCURVE",
"411 698 OFFCURVE",
"412 693 CURVE",
"414 694 OFFCURVE",
"433 707 OFFCURVE",
"433 717 CURVE SMOOTH",
"433 726 OFFCURVE",
"428 738 OFFCURVE",
"423 746 CURVE SMOOTH",
"402 782 OFFCURVE",
"358 847 OFFCURVE",
"328 886 CURVE SMOOTH",
"324 891 OFFCURVE",
"319 892 OFFCURVE",
"316 892 CURVE SMOOTH",
"312 892 OFFCURVE",
"309 891 OFFCURVE",
"304 886 CURVE SMOOTH",
"286 871 OFFCURVE",
"168 759 OFFCURVE",
"155 738 CURVE SMOOTH",
"152 733 OFFCURVE",
"150 727 OFFCURVE",
"150 722 CURVE SMOOTH",
"150 708 OFFCURVE",
"163 696 OFFCURVE",
"165 693 CURVE"
);
}
);
};
components = (
{
name = E;
},
{
name = circumflexcomb.case;
transform = "{1, 0, 0, 1, 167, 0}";
}
);
layerId = "220B7CD1-1E4F-4884-BA06-A44A5DCE8B14";
width = 553;
},
{
components = (
{
name = E;
},
{
name = circumflexcomb.case;
transform = "{1, 0, 0, 1, 175, 0}";
}
);
layerId = "63F4CE79-9D5F-46D3-B41C-385689F27F0A";
width = 553;
}
);
leftKerningGroup = KO_E;
note = Ecircumflex;
rightKerningGroup = KO_E;
unicode = 00CA;
},
{
color = 5;
glyphname = Edieresis;
lastChange = "2022-10-09 03:59:37 +0000";
layers = (
{
background = {
paths = (
{
closed = 1;
nodes = (
"480 0 LINE SMOOTH",
"487 0 OFFCURVE",
"497 26 OFFCURVE",
"497 44 CURVE SMOOTH",
"497 52 OFFCURVE",
"497 58 OFFCURVE",
"492 58 CURVE SMOOTH",
"485 58 OFFCURVE",
"433 37 OFFCURVE",
"252 37 CURVE SMOOTH",
"175 37 OFFCURVE",
"163 43 OFFCURVE",
"163 82 CURVE SMOOTH",
"163 149 OFFCURVE",
"165 228 OFFCURVE",
"170 312 CURVE",
"210 312 LINE SMOOTH",
"351 312 OFFCURVE",
"419 304 OFFCURVE",
"423 304 CURVE SMOOTH",
"427 304 OFFCURVE",
"433 326 OFFCURVE",
"433 341 CURVE SMOOTH",
"433 349 OFFCURVE",
"430 355 OFFCURVE",
"428 355 CURVE SMOOTH",
"172 355 LINE",
"179 458 OFFCURVE",
"187 552 OFFCURVE",
"194 596 CURVE",
"226 596 LINE SMOOTH",
"367 596 OFFCURVE",
"436 587 OFFCURVE",
"439 587 CURVE SMOOTH",
"443 587 OFFCURVE",
"449 610 OFFCURVE",
"449 625 CURVE SMOOTH",
"449 633 OFFCURVE",
"447 639 OFFCURVE",
"444 639 CURVE SMOOTH",
"133 639 LINE",
"124 422 OFFCURVE",
"104 76 OFFCURVE",
"96 0 CURVE"
);
},
{
closed = 1;
nodes = (
"215 756 OFFCURVE",
"234 781 OFFCURVE",
"234 802 CURVE SMOOTH",
"234 836 OFFCURVE",
"220 848 OFFCURVE",
"205 848 CURVE SMOOTH",
"184 848 OFFCURVE",
"161 824 OFFCURVE",
"161 791 CURVE SMOOTH",
"161 767 OFFCURVE",
"175 756 OFFCURVE",
"195 756 CURVE SMOOTH"
);
},
{
closed = 1;
nodes = (
"415 756 OFFCURVE",
"434 781 OFFCURVE",
"434 802 CURVE SMOOTH",
"434 836 OFFCURVE",
"420 848 OFFCURVE",
"405 848 CURVE SMOOTH",
"384 848 OFFCURVE",
"361 824 OFFCURVE",
"361 791 CURVE SMOOTH",
"361 767 OFFCURVE",
"375 756 OFFCURVE",
"395 756 CURVE SMOOTH"
);
}
);
};
components = (
{
name = E;
},
{
name = dieresiscomb.case;
transform = "{1, 0, 0, 1, 142, 13}";
}
);
layerId = "220B7CD1-1E4F-4884-BA06-A44A5DCE8B14";
width = 553;
},
{
components = (
{
name = E;
},
{
name = dieresiscomb.case;
transform = "{1, 0, 0, 1, 120, 13}";
}
);
layerId = "63F4CE79-9D5F-46D3-B41C-385689F27F0A";
width = 553;
}
);
leftKerningGroup = KO_E;
note = Edieresis;
rightKerningGroup = KO_E;
unicode = 00CB;
},
{
color = 7;
glyphname = Ereversed;
lastChange = "2022-10-11 14:33:25 +0000";
layers = (
{
layerId = "220B7CD1-1E4F-4884-BA06-A44A5DCE8B14";
paths = (
{
closed = 1;
nodes = (
"433 0 LINE",
"434 76 OFFCURVE",
"457 422 OFFCURVE",
"474 639 CURVE",
"163 639 LINE SMOOTH",
"160 639 OFFCURVE",
"157 633 OFFCURVE",
"156 625 CURVE SMOOTH",
"155 610 OFFCURVE",
"158 587 OFFCURVE",
"162 587 CURVE SMOOTH",
"165 587 OFFCURVE",
"235 596 OFFCURVE",
"376 596 CURVE SMOOTH",
"408 596 LINE",
"409 552 OFFCURVE",
"406 458 OFFCURVE",
"400 355 CURVE",
"144 355 LINE SMOOTH",
"142 355 OFFCURVE",
"139 349 OFFCURVE",
"138 341 CURVE SMOOTH",
"136 326 OFFCURVE",
"139 304 OFFCURVE",
"143 304 CURVE SMOOTH",
"147 304 OFFCURVE",
"216 312 OFFCURVE",
"357 312 CURVE SMOOTH",
"397 312 LINE",
"392 228 OFFCURVE",
"384 149 OFFCURVE",
"376 82 CURVE SMOOTH",
"371 43 OFFCURVE",
"358 37 OFFCURVE",
"281 37 CURVE SMOOTH",
"100 37 OFFCURVE",
"51 58 OFFCURVE",
"44 58 CURVE SMOOTH",
"39 58 OFFCURVE",
"38 52 OFFCURVE",
"37 44 CURVE SMOOTH",
"35 26 OFFCURVE",
"42 0 OFFCURVE",
"49 0 CURVE SMOOTH"
);
}
);
width = 563;
},
{
layerId = "63F4CE79-9D5F-46D3-B41C-385689F27F0A";
paths = (
{
closed = 1;
nodes = (
"495 0 LINE",
"500 42 OFFCURVE",
"512 441 OFFCURVE",
"533 639 CURVE",
"142 639 LINE SMOOTH",
"126 639 OFFCURVE",
"120 631 OFFCURVE",
"118 606 CURVE SMOOTH",
"114 577 OFFCURVE",
"116 537 OFFCURVE",
"126 537 CURVE SMOOTH",
"135 537 OFFCURVE",
"218 541 OFFCURVE",
"280 541 CURVE SMOOTH",
"306 541 LINE",
"310 524 OFFCURVE",
"305 418 OFFCURVE",
"302 374 CURVE",
"126 374 LINE SMOOTH",
"110 374 OFFCURVE",
"103 367 OFFCURVE",
"101 342 CURVE SMOOTH",
"97 313 OFFCURVE",
"100 272 OFFCURVE",
"110 272 CURVE SMOOTH",
"119 272 OFFCURVE",
"193 277 OFFCURVE",
"272 277 CURVE SMOOTH",
"294 277 LINE",
"293 264 OFFCURVE",
"290 190 OFFCURVE",
"286 146 CURVE",
"282 115 OFFCURVE",
"270 106 OFFCURVE",
"193 106 CURVE SMOOTH",
"125 106 OFFCURVE",
"54 119 OFFCURVE",
"44 119 CURVE SMOOTH",
"37 119 OFFCURVE",
"37 112 OFFCURVE",
"35 86 CURVE SMOOTH",
"32 67 OFFCURVE",
"31 0 OFFCURVE",
"60 0 CURVE SMOOTH"
);
}
);
width = 566;
}
);
leftKerningGroup = KO_J;
rightKerningGroup = KO_H;
rightMetricsKey = H;
unicode = 018E;
},
{
color = 7;
glyphname = EreversedOpen;
lastChange = "2022-10-11 01:09:40 +0000";
layers = (
{
layerId = "220B7CD1-1E4F-4884-BA06-A44A5DCE8B14";
paths = (
{
closed = 1;
nodes = (
"342 -13 OFFCURVE",
"442 63 OFFCURVE",
"442 186 CURVE SMOOTH",
"442 273 OFFCURVE",
"382 336 OFFCURVE",
"304 351 CURVE",
"338 364 OFFCURVE",
"432 423 OFFCURVE",
"432 510 CURVE SMOOTH",
"432 616 OFFCURVE",
"344 652 OFFCURVE",
"258 652 CURVE SMOOTH",
"197 652 OFFCURVE",
"147 639 OFFCURVE",
"117 620 CURVE SMOOTH",
"101 610 OFFCURVE",
"91 598 OFFCURVE",
"91 583 CURVE SMOOTH",
"91 557 OFFCURVE",
"95 553 OFFCURVE",
"102 553 CURVE SMOOTH",
"108 553 OFFCURVE",
"124 567 OFFCURVE",
"153 586 CURVE SMOOTH",
"182 605 OFFCURVE",
"216 616 OFFCURVE",
"250 616 CURVE SMOOTH",
"314 616 OFFCURVE",
"368 579 OFFCURVE",
"368 497 CURVE SMOOTH",
"368 395 OFFCURVE",
"252 359 OFFCURVE",
"216 359 CURVE SMOOTH",
"209 359 OFFCURVE",
"204 344 OFFCURVE",
"204 331 CURVE SMOOTH",
"204 323 OFFCURVE",
"204 320 OFFCURVE",
"206 320 CURVE SMOOTH",
"292 320 OFFCURVE",
"382 285 OFFCURVE",
"382 165 CURVE SMOOTH",
"382 77 OFFCURVE",
"311 24 OFFCURVE",
"215 24 CURVE SMOOTH",
"120 24 OFFCURVE",
"74 85 OFFCURVE",
"56 85 CURVE SMOOTH",
"46 85 OFFCURVE",
"45 77 OFFCURVE",
"45 66 CURVE SMOOTH",
"45 40 OFFCURVE",
"50 29 OFFCURVE",
"66 19 CURVE SMOOTH",
"97 0 OFFCURVE",
"136 -13 OFFCURVE",
"216 -13 CURVE SMOOTH"
);
}
);
width = 521;
},
{
layerId = "63F4CE79-9D5F-46D3-B41C-385689F27F0A";
paths = (
{
closed = 1;
nodes = (
"394 -13 OFFCURVE",
"498 95 OFFCURVE",
"498 197 CURVE SMOOTH",
"498 287 OFFCURVE",
"442 346 OFFCURVE",
"345 359 CURVE",
"384 365 OFFCURVE",
"493 417 OFFCURVE",
"493 510 CURVE SMOOTH",
"493 600 OFFCURVE",
"410 652 OFFCURVE",
"263 652 CURVE SMOOTH",
"180 652 OFFCURVE",
"126 639 OFFCURVE",
"83 616 CURVE SMOOTH",
"64 606 OFFCURVE",
"56 591 OFFCURVE",
"56 564 CURVE SMOOTH",
"56 506 OFFCURVE",
"63 500 OFFCURVE",
"78 500 CURVE SMOOTH",
"88 500 OFFCURVE",
"103 507 OFFCURVE",
"122 514 CURVE SMOOTH",
"145 523 OFFCURVE",
"174 533 OFFCURVE",
"210 533 CURVE SMOOTH",
"270 533 OFFCURVE",
"292 495 OFFCURVE",
"292 466 CURVE SMOOTH",
"292 411 OFFCURVE",
"238 366 OFFCURVE",
"162 358 CURVE SMOOTH",
"151 357 OFFCURVE",
"145 347 OFFCURVE",
"145 323 CURVE SMOOTH",
"145 307 OFFCURVE",
"148 299 OFFCURVE",
"160 299 CURVE SMOOTH",
"243 299 OFFCURVE",
"287 262 OFFCURVE",
"287 198 CURVE SMOOTH",
"287 124 OFFCURVE",
"243 104 OFFCURVE",
"182 104 CURVE SMOOTH",
"114 104 OFFCURVE",
"57 135 OFFCURVE",
"50 135 CURVE SMOOTH",
"34 135 OFFCURVE",
"30 127 OFFCURVE",
"30 72 CURVE SMOOTH",
"30 41 OFFCURVE",
"44 27 OFFCURVE",
"63 16 CURVE SMOOTH",
"94 -1 OFFCURVE",
"134 -13 OFFCURVE",
"203 -13 CURVE SMOOTH"
);
}
);
width = 531;
}
);
leftKerningGroup = KO_Z;
rightKerningGroup = KO_B;
rightMetricsKey = B;
unicode = "A7AB,025C";
},
{
color = 7;
glyphname = Esh;
lastChange = "2022-10-09 04:12:53 +0000";
layers = (
{
layerId = "220B7CD1-1E4F-4884-BA06-A44A5DCE8B14";
paths = (
{
closed = 1;
nodes = (
"455 0 LINE SMOOTH",
"461 0 OFFCURVE",
"473 29 OFFCURVE",
"473 50 CURVE SMOOTH",
"473 59 OFFCURVE",
"471 67 OFFCURVE",
"466 67 CURVE SMOOTH",
"459 67 OFFCURVE",
"421 38 OFFCURVE",
"172 38 CURVE SMOOTH",
"99 38 LINE",
"122 87 OFFCURVE",
"235 237 OFFCURVE",
"294 314 CURVE SMOOTH",
"301 324 OFFCURVE",
"308 332 OFFCURVE",
"308 336 CURVE SMOOTH",
"308 354 OFFCURVE",
"306 357 OFFCURVE",
"298 368 CURVE SMOOTH",
"243 447 OFFCURVE",
"158 561 OFFCURVE",
"133 602 CURVE",
"221 602 LINE SMOOTH",
"379 602 OFFCURVE",
"448 585 OFFCURVE",
"451 585 CURVE SMOOTH",
"456 585 OFFCURVE",
"457 591 OFFCURVE",
"457 601 CURVE SMOOTH",
"457 622 OFFCURVE",
"446 639 OFFCURVE",
"440 639 CURVE SMOOTH",
"77 639 LINE SMOOTH",
"71 639 OFFCURVE",
"63 621 OFFCURVE",
"63 612 CURVE SMOOTH",
"63 603 OFFCURVE",
"67 595 OFFCURVE",
"80 575 CURVE SMOOTH",
"88 563 OFFCURVE",
"178 446 OFFCURVE",
"252 341 CURVE",
"218 294 OFFCURVE",
"88 118 OFFCURVE",
"44 58 CURVE SMOOTH",
"37 48 OFFCURVE",
"36 44 OFFCURVE",
"36 38 CURVE SMOOTH",
"36 24 OFFCURVE",
"44 0 OFFCURVE",
"53 0 CURVE SMOOTH"
);
}
);
width = 527;
},
{
background = {
components = (
{
name = E;
transform = "{1, 0, 0, 1, 52, 0}";
}
);
};
layerId = "63F4CE79-9D5F-46D3-B41C-385689F27F0A";
paths = (
{
closed = 1;
nodes = (
"468 0 LINE SMOOTH",
"497 0 OFFCURVE",
"503 67 OFFCURVE",
"503 86 CURVE SMOOTH",
"503 112 OFFCURVE",
"503 119 OFFCURVE",
"496 119 CURVE SMOOTH",
"486 119 OFFCURVE",
"414 106 OFFCURVE",
"338 106 CURVE",
"248 106 LINE",
"266 138 OFFCURVE",
"371 255 OFFCURVE",
"393 283 CURVE SMOOTH",
"413 307 OFFCURVE",
"413 318 OFFCURVE",
"413 330 CURVE SMOOTH",
"413 345 OFFCURVE",
"411 349 OFFCURVE",
"401 361 CURVE SMOOTH",
"380 387 OFFCURVE",
"258 511 OFFCURVE",
"239 541 CURVE",
"324 541 LINE SMOOTH",
"386 541 OFFCURVE",
"469 537 OFFCURVE",
"478 537 CURVE SMOOTH",
"488 537 OFFCURVE",
"494 577 OFFCURVE",
"494 606 CURVE SMOOTH",
"494 631 OFFCURVE",
"489 639 OFFCURVE",
"473 639 CURVE SMOOTH",
"108 639 LINE SMOOTH",
"93 639 OFFCURVE",
"68 593 OFFCURVE",
"68 524 CURVE SMOOTH",
"68 510 OFFCURVE",
"70 497 OFFCURVE",
"86 481 CURVE SMOOTH",
"127 438 OFFCURVE",
"167 394 OFFCURVE",
"208 349 CURVE",
"157 285 OFFCURVE",
"106 221 OFFCURVE",
"54 156 CURVE SMOOTH",
"39 137 OFFCURVE",
"40 128 OFFCURVE",
"40 116 CURVE SMOOTH",
"40 56 OFFCURVE",
"60 0 OFFCURVE",
"91 0 CURVE SMOOTH"
);
}
);
width = 515;
}
);
leftKerningGroup = KO_X;
rightKerningGroup = KO_C;
rightMetricsKey = E;
unicode = 01A9;
},
{
color = 1;
glyphname = F;
lastChange = "2022-10-10 19:50:14 +0000";
layers = (
{
anchors = (
{
name = bottom;
position = "{124, 0}";
},
{
name = top;
position = "{288, 652}";
}
);
layerId = "220B7CD1-1E4F-4884-BA06-A44A5DCE8B14";
paths = (
{
closed = 1;
nodes = (
"159 -13 OFFCURVE",
"161 -10 OFFCURVE",
"161 -5 CURVE SMOOTH",
"161 67 OFFCURVE",
"166 232 OFFCURVE",
"168 292 CURVE",
"209 292 LINE SMOOTH",
"350 292 OFFCURVE",
"418 283 OFFCURVE",
"421 283 CURVE SMOOTH",
"425 283 OFFCURVE",
"431 306 OFFCURVE",
"431 321 CURVE SMOOTH",
"431 329 OFFCURVE",
"429 335 OFFCURVE",
"426 335 CURVE SMOOTH",
"171 335 LINE",
"178 458 OFFCURVE",
"187 552 OFFCURVE",
"193 596 CURVE",
"226 596 LINE SMOOTH",
"367 596 OFFCURVE",
"435 587 OFFCURVE",
"439 587 CURVE SMOOTH",
"443 587 OFFCURVE",
"449 610 OFFCURVE",
"449 625 CURVE SMOOTH",
"449 633 OFFCURVE",
"447 639 OFFCURVE",
"444 639 CURVE SMOOTH",
"133 639 LINE",
"133 559 OFFCURVE",
"119 254 OFFCURVE",
"107 113 CURVE SMOOTH",
"104 81 OFFCURVE",
"98 17 OFFCURVE",
"98 14 CURVE SMOOTH",
"98 -4 OFFCURVE",
"128 -13 OFFCURVE",
"151 -13 CURVE SMOOTH"
);
}
);
width = 504;
},
{
anchors = (
{
name = bottom;
position = "{132, 0}";
},
{
name = top;
position = "{296, 652}";
}
);
layerId = "63F4CE79-9D5F-46D3-B41C-385689F27F0A";
paths = (
{
closed = 1;
nodes = (
"278 -13 OFFCURVE",
"283 -4 OFFCURVE",
"283 21 CURVE SMOOTH",
"283 89 OFFCURVE",
"286 171 OFFCURVE",
"290 253 CURVE",
"310 253 LINE SMOOTH",
"389 253 OFFCURVE",
"463 249 OFFCURVE",
"472 249 CURVE SMOOTH",
"482 249 OFFCURVE",
"488 288 OFFCURVE",
"488 317 CURVE SMOOTH",
"488 343 OFFCURVE",
"483 350 OFFCURVE",
"467 350 CURVE SMOOTH",
"295 350 LINE",
"295 365 OFFCURVE",
"303 524 OFFCURVE",
"305 541 CURVE",
"333 541 LINE SMOOTH",
"395 541 OFFCURVE",
"474 538 OFFCURVE",
"483 538 CURVE SMOOTH",
"493 538 OFFCURVE",
"499 577 OFFCURVE",
"499 606 CURVE SMOOTH",
"499 631 OFFCURVE",
"494 639 OFFCURVE",
"478 639 CURVE SMOOTH",
"87 639 LINE",
"87 498 OFFCURVE",
"72 216 OFFCURVE",
"68 148 CURVE SMOOTH",
"65 98 OFFCURVE",
"63 64 OFFCURVE",
"63 59 CURVE SMOOTH",
"63 9 OFFCURVE",
"170 -13 OFFCURVE",
"234 -13 CURVE SMOOTH"
);
}
);
width = 510;
}
);
leftKerningGroup = KO_H;
leftMetricsKey = "=H";
note = F;
rightKerningGroup = KO_F;
unicode = 0046;
userData = {
KernOnName = F;
};
},
{
color = 1;
glyphname = G;
lastChange = "2022-10-09 03:06:24 +0000";
layers = (
{
anchors = (
{
name = bottom;
position = "{356, 0}";
},
{
name = top;
position = "{390, 652}";
}
);
layerId = "220B7CD1-1E4F-4884-BA06-A44A5DCE8B14";
paths = (
{
closed = 1;
nodes = (
"485 -13 OFFCURVE",
"564 0 OFFCURVE",
"626 23 CURVE",
"631 116 OFFCURVE",
"637 209 OFFCURVE",
"642 302 CURVE",
"443 302 LINE SMOOTH",
"435 302 OFFCURVE",
"428 282 OFFCURVE",
"428 264 CURVE SMOOTH",
"428 258 OFFCURVE",
"431 254 OFFCURVE",
"436 254 CURVE SMOOTH",
"441 254 OFFCURVE",
"464 259 OFFCURVE",
"584 259 CURVE",
"582 190 OFFCURVE",
"574 71 OFFCURVE",
"572 53 CURVE",
"544 42 OFFCURVE",
"476 31 OFFCURVE",
"391 31 CURVE SMOOTH",
"252 31 OFFCURVE",
"121 105 OFFCURVE",
"121 319 CURVE SMOOTH",
"121 516 OFFCURVE",
"243 615 OFFCURVE",
"396 615 CURVE SMOOTH",
"472 615 OFFCURVE",
"547 587 OFFCURVE",
"581 565 CURVE SMOOTH",
"602 551 OFFCURVE",
"611 547 OFFCURVE",
"619 547 CURVE SMOOTH",
"626 547 OFFCURVE",
"631 568 OFFCURVE",
"631 588 CURVE SMOOTH",
"631 597 OFFCURVE",
"627 602 OFFCURVE",
"622 606 CURVE SMOOTH",
"605 620 OFFCURVE",
"535 652 OFFCURVE",
"384 652 CURVE SMOOTH",
"149 652 OFFCURVE",
"60 476 OFFCURVE",
"60 312 CURVE SMOOTH",
"60 120 OFFCURVE",
"177 -13 OFFCURVE",
"377 -13 CURVE SMOOTH"
);
}
);
width = 718;
},
{
anchors = (
{
name = bottom;
position = "{369, 0}";
},
{
name = top;
position = "{403, 652}";
}
);
layerId = "63F4CE79-9D5F-46D3-B41C-385689F27F0A";
paths = (
{
closed = 1;
nodes = (
"527 -13 OFFCURVE",
"645 12 OFFCURVE",
"686 29 CURVE",
"693 160 OFFCURVE",
"700 296 OFFCURVE",
"703 338 CURVE",
"439 338 LINE SMOOTH",
"425 338 OFFCURVE",
"410 326 OFFCURVE",
"410 289 CURVE SMOOTH",
"410 265 OFFCURVE",
"412 243 OFFCURVE",
"420 243 CURVE SMOOTH",
"428 243 OFFCURVE",
"462 244 OFFCURVE",
"495 244 CURVE",
"495 169 OFFCURVE",
"490 122 OFFCURVE",
"489 93 CURVE",
"473 93 OFFCURVE",
"456 93 OFFCURVE",
"439 93 CURVE SMOOTH",
"361 93 OFFCURVE",
"273 145 OFFCURVE",
"273 307 CURVE SMOOTH",
"273 460 OFFCURVE",
"332 526 OFFCURVE",
"433 526 CURVE SMOOTH",
"512 526 OFFCURVE",
"567 509 OFFCURVE",
"600 498 CURVE SMOOTH",
"620 491 OFFCURVE",
"633 486 OFFCURVE",
"639 486 CURVE SMOOTH",
"672 486 OFFCURVE",
"675 555 OFFCURVE",
"675 572 CURVE SMOOTH",
"675 599 OFFCURVE",
"668 614 OFFCURVE",
"648 621 CURVE SMOOTH",
"608 635 OFFCURVE",
"510 652 OFFCURVE",
"416 652 CURVE SMOOTH",
"201 652 OFFCURVE",
"45 594 OFFCURVE",
"45 275 CURVE SMOOTH",
"45 63 OFFCURVE",
"169 -13 OFFCURVE",
"402 -13 CURVE SMOOTH"
);
}
);
width = 733;
}
);
leftKerningGroup = KO_C;
leftMetricsKey = C;
note = G;
rightKerningGroup = KO_G;
unicode = 0047;
},
{
color = 1;
glyphname = H;
lastChange = "2022-10-10 19:50:14 +0000";
layers = (
{
anchors = (
{
name = bottom;
position = "{378, 0}";
},
{
name = center;
position = "{398, 326}";
},
{
name = top;
position = "{413, 652}";
},
{
name = topleft;
position = "{22, 652}";
}
);
layerId = "220B7CD1-1E4F-4884-BA06-A44A5DCE8B14";
paths = (
{
closed = 1;
nodes = (
"159 -13 OFFCURVE",
"161 -10 OFFCURVE",
"161 -5 CURVE SMOOTH",
"161 107 OFFCURVE",
"164 214 OFFCURVE",
"171 309 CURVE",
"249 313 OFFCURVE",
"327 315 OFFCURVE",
"404 315 CURVE SMOOTH",
"476 315 OFFCURVE",
"548 313 OFFCURVE",
"618 310 CURVE",
"609 160 OFFCURVE",
"598 20 OFFCURVE",
"598 14 CURVE SMOOTH",
"598 -4 OFFCURVE",
"628 -13 OFFCURVE",
"651 -13 CURVE SMOOTH",
"659 -13 OFFCURVE",
"662 -10 OFFCURVE",
"662 -5 CURVE SMOOTH",
"662 317 OFFCURVE",
"697 612 OFFCURVE",
"697 626 CURVE SMOOTH",
"697 644 OFFCURVE",
"666 652 OFFCURVE",
"643 652 CURVE SMOOTH",
"634 652 OFFCURVE",
"633 650 OFFCURVE",
"633 645 CURVE SMOOTH",
"632 597 OFFCURVE",
"627 476 OFFCURVE",
"620 353 CURVE",
"173 353 LINE",
"183 509 OFFCURVE",
"196 618 OFFCURVE",
"196 626 CURVE SMOOTH",
"196 644 OFFCURVE",
"166 652 OFFCURVE",
"143 652 CURVE SMOOTH",
"134 652 OFFCURVE",
"133 650 OFFCURVE",
"133 645 CURVE SMOOTH",
"130 537 OFFCURVE",
"98 26 OFFCURVE",
"98 14 CURVE SMOOTH",
"98 -4 OFFCURVE",
"128 -13 OFFCURVE",
"151 -13 CURVE SMOOTH"
);
}
);
width = 786;
},
{
anchors = (
{
name = bottom;
position = "{386, 0}";
},
{
name = center;
position = "{406, 326}";
},
{
name = top;
position = "{421, 652}";
},
{
name = topleft;
position = "{30, 652}";
}
);
layerId = "63F4CE79-9D5F-46D3-B41C-385689F27F0A";
paths = (
{
closed = 1;
nodes = (
"278 -13 OFFCURVE",
"283 -4 OFFCURVE",
"283 21 CURVE SMOOTH",
"283 85 OFFCURVE",
"286 171 OFFCURVE",
"290 256 CURVE",
"341 262 OFFCURVE",
"390 265 OFFCURVE",
"437 265 CURVE",
"477 265 OFFCURVE",
"516 263 OFFCURVE",
"551 259 CURVE",
"545 152 OFFCURVE",
"540 67 OFFCURVE",
"540 59 CURVE SMOOTH",
"540 9 OFFCURVE",
"647 -13 OFFCURVE",
"711 -13 CURVE SMOOTH",
"755 -13 OFFCURVE",
"760 -4 OFFCURVE",
"760 21 CURVE SMOOTH",
"760 199 OFFCURVE",
"784 562 OFFCURVE",
"784 580 CURVE SMOOTH",
"784 630 OFFCURVE",
"677 652 OFFCURVE",
"613 652 CURVE SMOOTH",
"569 652 OFFCURVE",
"564 643 OFFCURVE",
"564 618 CURVE SMOOTH",
"564 553 OFFCURVE",
"561 465 OFFCURVE",
"557 379 CURVE",
"296 379 LINE",
"302 487 OFFCURVE",
"307 572 OFFCURVE",
"307 580 CURVE SMOOTH",
"307 630 OFFCURVE",
"200 652 OFFCURVE",
"136 652 CURVE SMOOTH",
"92 652 OFFCURVE",
"87 643 OFFCURVE",
"87 618 CURVE SMOOTH",
"87 440 OFFCURVE",
"63 77 OFFCURVE",
"63 59 CURVE SMOOTH",
"63 9 OFFCURVE",
"170 -13 OFFCURVE",
"234 -13 CURVE SMOOTH"
);
}
);
width = 817;
}
);
leftKerningGroup = KO_H;
note = H;
rightKerningGroup = KO_H;
unicode = 0048;
userData = {
KernOnName = H;
};
},
{
color = 7;
glyphname = Hbar;
lastChange = "2022-10-09 04:12:53 +0000";
layers = (
{
anchors = (
{
name = bottom;
position = "{391, 0}";
},
{
name = center;
position = "{411, 326}";
},
{
name = top;
position = "{426, 652}";
},
{
name = topleft;
position = "{35, 652}";
}
);
layerId = "220B7CD1-1E4F-4884-BA06-A44A5DCE8B14";
paths = (
{
closed = 1;
nodes = (
"172 -13 OFFCURVE",
"174 -10 OFFCURVE",
"174 -5 CURVE SMOOTH",
"174 107 OFFCURVE",
"177 214 OFFCURVE",
"184 309 CURVE",
"262 313 OFFCURVE",
"340 315 OFFCURVE",
"417 315 CURVE SMOOTH",
"489 315 OFFCURVE",
"561 313 OFFCURVE",
"631 310 CURVE",
"622 160 OFFCURVE",
"611 20 OFFCURVE",
"611 14 CURVE SMOOTH",
"611 -4 OFFCURVE",
"641 -13 OFFCURVE",
"664 -13 CURVE SMOOTH",
"672 -13 OFFCURVE",
"675 -10 OFFCURVE",
"675 -5 CURVE SMOOTH",
"675 317 OFFCURVE",
"710 612 OFFCURVE",
"710 626 CURVE SMOOTH",
"710 644 OFFCURVE",
"679 652 OFFCURVE",
"656 652 CURVE SMOOTH",
"647 652 OFFCURVE",
"646 650 OFFCURVE",
"646 645 CURVE SMOOTH",
"645 597 OFFCURVE",
"640 480 OFFCURVE",
"633 353 CURVE",
"186 353 LINE",
"196 509 OFFCURVE",
"209 618 OFFCURVE",
"209 626 CURVE SMOOTH",
"209 644 OFFCURVE",
"179 652 OFFCURVE",
"156 652 CURVE SMOOTH",
"147 652 OFFCURVE",
"146 650 OFFCURVE",
"146 645 CURVE SMOOTH",
"143 537 OFFCURVE",
"111 26 OFFCURVE",
"111 14 CURVE SMOOTH",
"111 -4 OFFCURVE",
"141 -13 OFFCURVE",
"164 -13 CURVE SMOOTH"
);
},
{
closed = 1;
nodes = (
"64 455 OFFCURVE",
"241 458 OFFCURVE",
"417 459 CURVE SMOOTH",
"590 459 OFFCURVE",
"761 456 OFFCURVE",
"763 456 CURVE SMOOTH",
"772 456 OFFCURVE",
"777 475 OFFCURVE",
"777 489 CURVE SMOOTH",
"777 495 OFFCURVE",
"774 499 OFFCURVE",
"769 499 CURVE SMOOTH",
"70 499 LINE SMOOTH",
"61 499 OFFCURVE",
"55 483 OFFCURVE",
"55 465 CURVE SMOOTH",
"55 459 OFFCURVE",
"57 455 OFFCURVE",
"62 455 CURVE SMOOTH"
);
}
);
width = 818;
},
{
anchors = (
{
name = bottom;
position = "{427, 0}";
},
{
name = center;
position = "{447, 326}";
},
{
name = top;
position = "{465, 652}";
},
{
name = topleft;
position = "{59, 652}";
}
);
background = {
paths = (
{
closed = 1;
nodes = (
"317 379 LINE",
"323 487 OFFCURVE",
"328 572 OFFCURVE",
"328 580 CURVE SMOOTH",
"328 630 OFFCURVE",
"221 652 OFFCURVE",
"157 652 CURVE SMOOTH",
"113 652 OFFCURVE",
"108 643 OFFCURVE",
"108 618 CURVE SMOOTH",
"108 440 OFFCURVE",
"84 77 OFFCURVE",
"84 59 CURVE SMOOTH",
"84 9 OFFCURVE",
"191 -13 OFFCURVE",
"255 -13 CURVE SMOOTH",
"299 -13 OFFCURVE",
"304 -4 OFFCURVE",
"304 21 CURVE SMOOTH",
"304 85 OFFCURVE",
"307 171 OFFCURVE",
"311 256 CURVE",
"362 262 OFFCURVE",
"411 265 OFFCURVE",
"458 265 CURVE",
"498 265 OFFCURVE",
"537 263 OFFCURVE",
"572 259 CURVE",
"566 152 OFFCURVE",
"561 67 OFFCURVE",
"561 59 CURVE SMOOTH",
"561 9 OFFCURVE",
"668 -13 OFFCURVE",
"732 -13 CURVE SMOOTH",
"776 -13 OFFCURVE",
"781 -4 OFFCURVE",
"781 21 CURVE SMOOTH",
"781 199 OFFCURVE",
"805 562 OFFCURVE",
"805 580 CURVE SMOOTH",
"805 630 OFFCURVE",
"698 652 OFFCURVE",
"634 652 CURVE SMOOTH",
"590 652 OFFCURVE",
"585 643 OFFCURVE",
"585 618 CURVE SMOOTH",
"585 553 OFFCURVE",
"582 465 OFFCURVE",
"578 379 CURVE"
);
}
);
};
layerId = "63F4CE79-9D5F-46D3-B41C-385689F27F0A";
paths = (
{
closed = 1;
nodes = (
"299 -13 OFFCURVE",
"304 -4 OFFCURVE",
"304 21 CURVE SMOOTH",
"304 85 OFFCURVE",
"306 127 OFFCURVE",
"310 212 CURVE",
"361 218 OFFCURVE",
"410 221 OFFCURVE",
"457 221 CURVE",
"497 221 OFFCURVE",
"536 219 OFFCURVE",
"571 215 CURVE",
"565 108 OFFCURVE",
"561 67 OFFCURVE",
"561 59 CURVE SMOOTH",
"561 9 OFFCURVE",
"668 -13 OFFCURVE",
"732 -13 CURVE SMOOTH",
"776 -13 OFFCURVE",
"781 -4 OFFCURVE",
"781 21 CURVE SMOOTH",
"781 199 OFFCURVE",
"805 562 OFFCURVE",
"805 580 CURVE SMOOTH",
"805 630 OFFCURVE",
"698 652 OFFCURVE",
"634 652 CURVE SMOOTH",
"590 652 OFFCURVE",
"585 643 OFFCURVE",
"585 618 CURVE SMOOTH",
"585 553 OFFCURVE",
"581 421 OFFCURVE",
"577 335 CURVE",
"316 335 LINE",
"322 443 OFFCURVE",
"328 572 OFFCURVE",
"328 580 CURVE SMOOTH",
"328 630 OFFCURVE",
"221 652 OFFCURVE",
"157 652 CURVE SMOOTH",
"113 652 OFFCURVE",
"108 643 OFFCURVE",
"108 618 CURVE SMOOTH",
"108 440 OFFCURVE",
"84 77 OFFCURVE",
"84 59 CURVE SMOOTH",
"84 9 OFFCURVE",
"191 -13 OFFCURVE",
"255 -13 CURVE SMOOTH"
);
},
{
closed = 1;
nodes = (
"189 415 OFFCURVE",
"320 419 OFFCURVE",
"451 419 CURVE SMOOTH",
"580 419 OFFCURVE",
"708 415 OFFCURVE",
"837 415 CURVE SMOOTH",
"852 415 OFFCURVE",
"863 437 OFFCURVE",
"863 473 CURVE SMOOTH",
"863 496 OFFCURVE",
"860 499 OFFCURVE",
"850 499 CURVE SMOOTH",
"71 499 LINE SMOOTH",
"56 499 OFFCURVE",
"45 477 OFFCURVE",
"45 441 CURVE SMOOTH",
"45 418 OFFCURVE",
"48 415 OFFCURVE",
"58 415 CURVE SMOOTH"
);
}
);
width = 878;
}
);
leftKerningGroup = KO_E;
rightKerningGroup = KO_S;
unicode = 0126;
},
{
color = 1;
glyphname = I;
lastChange = "2022-10-10 19:50:14 +0000";
layers = (
{
anchors = (
{
name = bottom;
position = "{129, 0}";
},
{
name = ogonek;
position = "{268, 10}";
},
{
name = top;
position = "{183, 652}";
},
{
name = topleft;
position = "{27, 652}";
}
);
layerId = "220B7CD1-1E4F-4884-BA06-A44A5DCE8B14";
paths = (
{
closed = 1;
nodes = (
"164 -13 OFFCURVE",
"166 -10 OFFCURVE",
"166 -5 CURVE SMOOTH",
"166 317 OFFCURVE",
"201 612 OFFCURVE",
"201 626 CURVE SMOOTH",
"201 644 OFFCURVE",
"171 652 OFFCURVE",
"148 652 CURVE SMOOTH",
"139 652 OFFCURVE",
"138 650 OFFCURVE",
"138 645 CURVE SMOOTH",
"135 537 OFFCURVE",
"103 26 OFFCURVE",
"103 14 CURVE SMOOTH",
"103 -4 OFFCURVE",
"133 -13 OFFCURVE",
"156 -13 CURVE SMOOTH"
);
}
);
width = 290;
},
{
anchors = (
{
name = bottom;
position = "{172, 0}";
},
{
name = ogonek;
position = "{273, 10}";
},
{
name = top;
position = "{206, 652}";
},
{
name = topleft;
position = "{32, 652}";
}
);
layerId = "63F4CE79-9D5F-46D3-B41C-385689F27F0A";
paths = (
{
closed = 1;
nodes = (
"280 -13 OFFCURVE",
"285 -4 OFFCURVE",
"285 21 CURVE",
"285 199 OFFCURVE",
"309 562 OFFCURVE",
"309 579 CURVE",
"309 630 OFFCURVE",
"202 652 OFFCURVE",
"138 652 CURVE",
"94 652 OFFCURVE",
"89 643 OFFCURVE",
"89 618 CURVE",
"89 440 OFFCURVE",
"65 77 OFFCURVE",
"65 59 CURVE",
"65 9 OFFCURVE",
"172 -13 OFFCURVE",
"236 -13 CURVE"
);
}
);
width = 344;
}
);
leftKerningGroup = KO_E;
note = I;
rightKerningGroup = KO_H;
unicode = 0049;
},
{
color = 4;
glyphname = Iotaafrican;
lastChange = "2022-10-09 03:37:15 +0000";
layers = (
{
layerId = "220B7CD1-1E4F-4884-BA06-A44A5DCE8B14";
paths = (
{
closed = 1;
nodes = (
"192 -13 OFFCURVE",
"277 88 OFFCURVE",
"310 131 CURVE SMOOTH",
"312 133 OFFCURVE",
"313 137 OFFCURVE",
"313 141 CURVE SMOOTH",
"313 154 OFFCURVE",
"303 170 OFFCURVE",
"299 170 CURVE SMOOTH",
"296 170 OFFCURVE",
"295 167 OFFCURVE",
"292 164 CURVE",
"271 136 OFFCURVE",
"189 41 OFFCURVE",
"170 41 CURVE SMOOTH",
"158 41 OFFCURVE",
"151 48 OFFCURVE",
"154 89 CURVE SMOOTH",
"161 202 OFFCURVE",
"199 580 OFFCURVE",
"199 626 CURVE SMOOTH",
"199 644 OFFCURVE",
"171 653 OFFCURVE",
"150 653 CURVE SMOOTH",
"142 653 OFFCURVE",
"141 650 OFFCURVE",
"141 645 CURVE SMOOTH",
"124 368 OFFCURVE",
"108 191 OFFCURVE",
"99 63 CURVE SMOOTH",
"97 40 OFFCURVE",
"98 26 OFFCURVE",
"101 20 CURVE SMOOTH",
"106 9 OFFCURVE",
"139 -13 OFFCURVE",
"150 -13 CURVE SMOOTH"
);
}
);
width = 304;
},
{
background = {
paths = (
{
closed = 1;
nodes = (
"217 -13 OFFCURVE",
"302 88 OFFCURVE",
"335 131 CURVE SMOOTH",
"337 133 OFFCURVE",
"338 137 OFFCURVE",
"338 141 CURVE SMOOTH",
"338 154 OFFCURVE",
"328 170 OFFCURVE",
"324 170 CURVE SMOOTH",
"321 170 OFFCURVE",
"320 167 OFFCURVE",
"317 164 CURVE",
"296 136 OFFCURVE",
"214 41 OFFCURVE",
"195 41 CURVE SMOOTH",
"183 41 OFFCURVE",
"176 48 OFFCURVE",
"179 89 CURVE SMOOTH",
"186 202 OFFCURVE",
"224 580 OFFCURVE",
"224 626 CURVE SMOOTH",
"224 644 OFFCURVE",
"196 653 OFFCURVE",
"175 653 CURVE SMOOTH",
"167 653 OFFCURVE",
"166 650 OFFCURVE",
"166 645 CURVE SMOOTH",
"149 368 OFFCURVE",
"133 191 OFFCURVE",
"124 63 CURVE SMOOTH",
"122 40 OFFCURVE",
"123 26 OFFCURVE",
"126 20 CURVE SMOOTH",
"131 9 OFFCURVE",
"164 -13 OFFCURVE",
"175 -13 CURVE SMOOTH"
);
},
{
closed = 1;
nodes = (
"274 -13 OFFCURVE",
"281 -5 OFFCURVE",
"281 14 CURVE SMOOTH",
"281 77 OFFCURVE",
"280 118 OFFCURVE",
"299 178 CURVE SMOOTH",
"327 264 OFFCURVE",
"383 343 OFFCURVE",
"400 343 CURVE SMOOTH",
"408 343 OFFCURVE",
"411 338 OFFCURVE",
"411 285 CURVE SMOOTH",
"411 272 OFFCURVE",
"401 120 OFFCURVE",
"401 112 CURVE SMOOTH",
"401 97 OFFCURVE",
"402 84 OFFCURVE",
"404 69 CURVE SMOOTH",
"411 18 OFFCURVE",
"514 -13 OFFCURVE",
"532 -13 CURVE SMOOTH",
"576 -13 OFFCURVE",
"673 104 OFFCURVE",
"695 137 CURVE SMOOTH",
"702 147 OFFCURVE",
"706 157 OFFCURVE",
"706 167 CURVE SMOOTH",
"706 187 OFFCURVE",
"689 211 OFFCURVE",
"678 211 CURVE SMOOTH",
"674 211 OFFCURVE",
"672 209 OFFCURVE",
"666 201 CURVE SMOOTH",
"659 192 OFFCURVE",
"640 168 OFFCURVE",
"632 168 CURVE SMOOTH",
"624 168 OFFCURVE",
"621 173 OFFCURVE",
"621 226 CURVE SMOOTH",
"621 243 OFFCURVE",
"631 387 OFFCURVE",
"631 399 CURVE SMOOTH",
"631 414 OFFCURVE",
"630 427 OFFCURVE",
"628 442 CURVE SMOOTH",
"621 493 OFFCURVE",
"518 524 OFFCURVE",
"500 524 CURVE SMOOTH",
"447 524 OFFCURVE",
"293 340 OFFCURVE",
"286 275 CURVE",
"292 336 OFFCURVE",
"301 421 OFFCURVE",
"301 433 CURVE SMOOTH",
"301 494 OFFCURVE",
"198 524 OFFCURVE",
"117 524 CURVE SMOOTH",
"91 524 OFFCURVE",
"84 516 OFFCURVE",
"84 497 CURVE SMOOTH",
"84 486 OFFCURVE",
"64 174 OFFCURVE",
"64 78 CURVE SMOOTH",
"64 18 OFFCURVE",
"167 -13 OFFCURVE",
"248 -13 CURVE SMOOTH"
);
}
);
};
layerId = "63F4CE79-9D5F-46D3-B41C-385689F27F0A";
paths = (
{
closed = 1;
nodes = (
"237 -8 OFFCURVE",
"334 109 OFFCURVE",
"356 142 CURVE SMOOTH",
"363 152 OFFCURVE",
"367 162 OFFCURVE",
"367 172 CURVE SMOOTH",
"367 192 OFFCURVE",
"350 216 OFFCURVE",
"339 216 CURVE SMOOTH",
"335 216 OFFCURVE",
"333 214 OFFCURVE",
"327 206 CURVE SMOOTH",
"320 197 OFFCURVE",
"301 173 OFFCURVE",
"293 173 CURVE SMOOTH",
"285 173 OFFCURVE",
"278 178 OFFCURVE",
"282 231 CURVE SMOOTH",
"288 292 OFFCURVE",
"301 421 OFFCURVE",
"301 433 CURVE SMOOTH",
"301 494 OFFCURVE",
"198 524 OFFCURVE",
"117 524 CURVE SMOOTH",
"91 524 OFFCURVE",
"84 516 OFFCURVE",
"84 497 CURVE SMOOTH",
"84 440 OFFCURVE",
"72 258 OFFCURVE",
"64 147 CURVE SMOOTH",
"62 115 OFFCURVE",
"63 90 OFFCURVE",
"65 74 CURVE SMOOTH",
"72 23 OFFCURVE",
"175 -8 OFFCURVE",
"193 -8 CURVE SMOOTH"
);
}
);
width = 374;
}
);
leftKerningGroup = KO_E;
leftMetricsKey = H;
rightKerningGroup = KO_Z;
rightMetricsKey = n;
unicode = 0196;
},
{
color = 1;
glyphname = Istroke;
lastChange = "2022-09-28 01:36:21 +0000";
layers = (
{
anchors = (
{
name = bottom;
position = "{122, 0}";
},
{
name = ogonek;
position = "{261, 10}";
},
{
name = top;
position = "{176, 652}";
},
{
name = topleft;
position = "{20, 652}";
}
);
layerId = "220B7CD1-1E4F-4884-BA06-A44A5DCE8B14";
paths = (
{
closed = 1;
nodes = (
"157 -13 OFFCURVE",
"159 -10 OFFCURVE",
"159 -5 CURVE SMOOTH",
"159 317 OFFCURVE",
"194 612 OFFCURVE",
"194 626 CURVE SMOOTH",
"194 644 OFFCURVE",
"164 652 OFFCURVE",
"141 652 CURVE SMOOTH",
"132 652 OFFCURVE",
"131 650 OFFCURVE",
"131 645 CURVE SMOOTH",
"128 537 OFFCURVE",
"96 26 OFFCURVE",
"96 14 CURVE SMOOTH",
"96 -4 OFFCURVE",
"126 -13 OFFCURVE",
"149 -13 CURVE SMOOTH"
);
},
{
closed = 1;
nodes = (
"234 322 LINE",
"250 322 OFFCURVE",
"257 343 OFFCURVE",
"257 360 CURVE SMOOTH",
"257 366 OFFCURVE",
"254 368 OFFCURVE",
"249 368 CURVE",
"54 368 LINE",
"36 368 OFFCURVE",
"32 347 OFFCURVE",
"32 330 CURVE SMOOTH",
"32 323 OFFCURVE",
"34 322 OFFCURVE",
"39 322 CURVE"
);
}
);
width = 290;
},
{
anchors = (
{
name = bottom;
position = "{160, 0}";
},
{
name = ogonek;
position = "{261, 10}";
},
{
name = top;
position = "{194, 652}";
},
{
name = topleft;
position = "{20, 652}";
}
);
layerId = "63F4CE79-9D5F-46D3-B41C-385689F27F0A";
paths = (
{
closed = 1;
nodes = (
"268 -13 OFFCURVE",
"273 -4 OFFCURVE",
"273 21 CURVE",
"273 199 OFFCURVE",
"297 562 OFFCURVE",
"297 579 CURVE",
"297 630 OFFCURVE",
"190 652 OFFCURVE",
"126 652 CURVE",
"82 652 OFFCURVE",
"77 643 OFFCURVE",
"77 618 CURVE",
"77 440 OFFCURVE",
"53 77 OFFCURVE",
"53 59 CURVE",
"53 9 OFFCURVE",
"160 -13 OFFCURVE",
"224 -13 CURVE"
);
},
{
closed = 1;
nodes = (
"319 300 LINE",
"334 300 OFFCURVE",
"345 322 OFFCURVE",
"345 358 CURVE SMOOTH",
"345 381 OFFCURVE",
"342 384 OFFCURVE",
"332 384 CURVE",
"25 384 LINE",
"10 384 OFFCURVE",
"-1 362 OFFCURVE",
"-1 326 CURVE SMOOTH",
"-1 303 OFFCURVE",
"2 300 OFFCURVE",
"12 300 CURVE"
);
}
);
width = 350;
}
);
rightKerningGroup = KO_O;
unicode = 0197;
},
{
color = 1;
glyphname = J;
lastChange = "2022-10-11 01:03:35 +0000";
layers = (
{
anchors = (
{
name = bottom;
position = "{225, 0}";
},
{
name = top;
position = "{282, 652}";
}
);
layerId = "220B7CD1-1E4F-4884-BA06-A44A5DCE8B14";
paths = (
{
closed = 1;
nodes = (
"184 -13 OFFCURVE",
"239 24 OFFCURVE",
"269 115 CURVE SMOOTH",
"297 200 OFFCURVE",
"306 543 OFFCURVE",
"306 626 CURVE SMOOTH",
"306 644 OFFCURVE",
"276 652 OFFCURVE",
"253 652 CURVE SMOOTH",
"244 652 OFFCURVE",
"243 650 OFFCURVE",
"243 645 CURVE SMOOTH",
"243 252 OFFCURVE",
"225 82 OFFCURVE",
"186 48 CURVE SMOOTH",
"170 34 OFFCURVE",
"152 26 OFFCURVE",
"130 26 CURVE SMOOTH",
"87 26 OFFCURVE",
"40 49 OFFCURVE",
"29 49 CURVE SMOOTH",
"24 49 OFFCURVE",
"20 42 OFFCURVE",
"20 31 CURVE SMOOTH",
"20 12 OFFCURVE",
"23 5 OFFCURVE",
"35 -1 CURVE",
"53 -10 OFFCURVE",
"79 -13 OFFCURVE",
"121 -13 CURVE SMOOTH"
);
}
);
width = 396;
},
{
anchors = (
{
name = bottom;
position = "{152, 0}";
},
{
name = top;
position = "{237, 652}";
}
);
layerId = "63F4CE79-9D5F-46D3-B41C-385689F27F0A";
paths = (
{
closed = 1;
nodes = (
"208 -13 OFFCURVE",
"269 27 OFFCURVE",
"292 97 CURVE SMOOTH",
"326 200 OFFCURVE",
"335 503 OFFCURVE",
"335 580 CURVE SMOOTH",
"335 630 OFFCURVE",
"228 652 OFFCURVE",
"164 652 CURVE SMOOTH",
"120 652 OFFCURVE",
"115 643 OFFCURVE",
"115 618 CURVE SMOOTH",
"115 413 OFFCURVE",
"108 118 OFFCURVE",
"87 91 CURVE SMOOTH",
"79 80 OFFCURVE",
"69 77 OFFCURVE",
"55 77 CURVE SMOOTH",
"45 77 OFFCURVE",
"37 79 OFFCURVE",
"32 79 CURVE SMOOTH",
"25 79 OFFCURVE",
"20 61 OFFCURVE",
"20 49 CURVE SMOOTH",
"20 32 OFFCURVE",
"26 3 OFFCURVE",
"36 -1 CURVE",
"54 -9 OFFCURVE",
"92 -13 OFFCURVE",
"120 -13 CURVE SMOOTH"
);
}
);
width = 365;
}
);
leftKerningGroup = KO_J;
note = J;
rightKerningGroup = KO_J;
unicode = 004A;
},
{
color = 1;
glyphname = K;
lastChange = "2022-10-09 03:47:51 +0000";
layers = (
{
anchors = (
{
name = bottom;
position = "{288, 0}";
},
{
name = top;
position = "{332, 652}";
}
);
layerId = "220B7CD1-1E4F-4884-BA06-A44A5DCE8B14";
paths = (
{
closed = 1;
nodes = (
"159 -13 OFFCURVE",
"161 -10 OFFCURVE",
"161 -5 CURVE SMOOTH",
"161 111 OFFCURVE",
"166 222 OFFCURVE",
"171 316 CURVE",
"178 311 OFFCURVE",
"187 302 OFFCURVE",
"200 292 CURVE SMOOTH",
"277 228 OFFCURVE",
"450 69 OFFCURVE",
"539 -8 CURVE SMOOTH",
"542 -11 OFFCURVE",
"546 -13 OFFCURVE",
"555 -13 CURVE SMOOTH",
"564 -13 OFFCURVE",
"580 -2 OFFCURVE",
"590 7 CURVE SMOOTH",
"596 13 OFFCURVE",
"601 18 OFFCURVE",
"601 20 CURVE SMOOTH",
"601 23 OFFCURVE",
"600 24 OFFCURVE",
"594 29 CURVE SMOOTH",
"457 134 OFFCURVE",
"277 297 OFFCURVE",
"241 331 CURVE",
"290 374 OFFCURVE",
"499 557 OFFCURVE",
"581 633 CURVE SMOOTH",
"587 639 OFFCURVE",
"589 641 OFFCURVE",
"589 644 CURVE SMOOTH",
"589 649 OFFCURVE",
"574 652 OFFCURVE",
"559 652 CURVE SMOOTH",
"541 652 OFFCURVE",
"533 650 OFFCURVE",
"522 640 CURVE SMOOTH",
"368 500 OFFCURVE",
"215 359 OFFCURVE",
"171 322 CURVE",
"181 492 OFFCURVE",
"196 617 OFFCURVE",
"196 626 CURVE SMOOTH",
"196 644 OFFCURVE",
"166 652 OFFCURVE",
"143 652 CURVE SMOOTH",
"134 652 OFFCURVE",
"133 650 OFFCURVE",
"133 645 CURVE SMOOTH",
"130 537 OFFCURVE",
"98 26 OFFCURVE",
"98 14 CURVE SMOOTH",
"98 -4 OFFCURVE",
"128 -13 OFFCURVE",
"151 -13 CURVE SMOOTH"
);
}
);
width = 631;
},
{
anchors = (
{
name = bottom;
position = "{296, 0}";
},
{
name = top;
position = "{340, 652}";
}
);
layerId = "63F4CE79-9D5F-46D3-B41C-385689F27F0A";
paths = (
{
closed = 1;
nodes = (
"278 -13 OFFCURVE",
"283 -4 OFFCURVE",
"283 21 CURVE",
"283 88 OFFCURVE",
"286 185 OFFCURVE",
"290 276 CURVE",
"296 263 OFFCURVE",
"321 251 OFFCURVE",
"337 246 CURVE",
"381 168 OFFCURVE",
"424 89 OFFCURVE",
"468 14 CURVE",
"482 -10 OFFCURVE",
"492 -13 OFFCURVE",
"514 -13 CURVE",
"569 -13 OFFCURVE",
"627 17 OFFCURVE",
"669 48 CURVE",
"680 56 OFFCURVE",
"688 63 OFFCURVE",
"688 70 CURVE",
"688 77 OFFCURVE",
"686 83 OFFCURVE",
"673 101 CURVE",
"633 157 OFFCURVE",
"525 344 OFFCURVE",
"502 384 CURVE",
"573 476 OFFCURVE",
"628 538 OFFCURVE",
"655 570 CURVE",
"666 583 OFFCURVE",
"671 590 OFFCURVE",
"671 596 CURVE",
"671 614 OFFCURVE",
"636 652 OFFCURVE",
"589 652 CURVE",
"560 652 OFFCURVE",
"552 638 OFFCURVE",
"536 619 CURVE",
"498 573 OFFCURVE",
"356 390 OFFCURVE",
"292 311 CURVE",
"299 447 OFFCURVE",
"307 570 OFFCURVE",
"307 580 CURVE",
"307 630 OFFCURVE",
"200 652 OFFCURVE",
"136 652 CURVE",
"92 652 OFFCURVE",
"87 643 OFFCURVE",
"87 618 CURVE",
"87 440 OFFCURVE",
"63 77 OFFCURVE",
"63 59 CURVE",
"63 9 OFFCURVE",
"170 -13 OFFCURVE",
"234 -13 CURVE"
);
}
);
width = 693;
}
);
leftKerningGroup = KO_H;
leftMetricsKey = "=H";
note = K;
rightKerningGroup = KO_K;
unicode = 004B;
},
{
color = 1;
glyphname = L;
lastChange = "2022-10-10 19:50:14 +0000";
layers = (
{
anchors = (
{
name = bottom;
position = "{279, 0}";
},
{
name = center;
position = "{236, 326}";
},
{
name = top;
position = "{243, 652}";
},
{
name = topright;
position = "{416, 524}";
}
);
layerId = "220B7CD1-1E4F-4884-BA06-A44A5DCE8B14";
paths = (
{
closed = 1;
nodes = (
"439 0 LINE SMOOTH",
"447 0 OFFCURVE",
"457 26 OFFCURVE",
"457 44 CURVE SMOOTH",
"457 52 OFFCURVE",
"457 58 OFFCURVE",
"454 58 CURVE SMOOTH",
"452 58 OFFCURVE",
"362 37 OFFCURVE",
"253 37 CURVE SMOOTH",
"176 37 OFFCURVE",
"164 43 OFFCURVE",
"164 82 CURVE SMOOTH",
"164 322 OFFCURVE",
"197 620 OFFCURVE",
"197 626 CURVE SMOOTH",
"197 644 OFFCURVE",
"167 652 OFFCURVE",
"144 652 CURVE SMOOTH",
"136 652 OFFCURVE",
"134 650 OFFCURVE",
"134 645 CURVE SMOOTH",
"127 428 OFFCURVE",
"105 76 OFFCURVE",
"98 0 CURVE"
);
}
);
width = 483;
},
{
anchors = (
{
name = bottom;
position = "{282, 0}";
},
{
name = center;
position = "{239, 326}";
},
{
name = top;
position = "{246, 632}";
},
{
name = topright;
position = "{419, 524}";
}
);
layerId = "63F4CE79-9D5F-46D3-B41C-385689F27F0A";
paths = (
{
closed = 1;
nodes = (
"464 0 LINE SMOOTH",
"493 0 OFFCURVE",
"500 62 OFFCURVE",
"500 81 CURVE SMOOTH",
"500 107 OFFCURVE",
"500 113 OFFCURVE",
"492 113 CURVE SMOOTH",
"482 113 OFFCURVE",
"428 106 OFFCURVE",
"376 106 CURVE SMOOTH",
"299 106 OFFCURVE",
"288 115 OFFCURVE",
"288 146 CURVE SMOOTH",
"288 213 OFFCURVE",
"310 565 OFFCURVE",
"310 580 CURVE SMOOTH",
"310 630 OFFCURVE",
"203 652 OFFCURVE",
"139 652 CURVE SMOOTH",
"95 652 OFFCURVE",
"90 643 OFFCURVE",
"90 618 CURVE SMOOTH",
"90 432 OFFCURVE",
"63 28 OFFCURVE",
"63 0 CURVE"
);
}
);
width = 505;
}
);
leftKerningGroup = KO_E;
leftMetricsKey = "=H";
note = L;
rightKerningGroup = KO_L;
unicode = 004C;
userData = {
KernOnName = L;
};
},
{
color = 1;
glyphname = Lslash;
lastChange = "2022-10-09 03:58:58 +0000";
layers = (
{
layerId = "220B7CD1-1E4F-4884-BA06-A44A5DCE8B14";
paths = (
{
closed = 1;
nodes = (
"446 0 LINE SMOOTH",
"454 0 OFFCURVE",
"464 26 OFFCURVE",
"464 44 CURVE SMOOTH",
"464 52 OFFCURVE",
"464 58 OFFCURVE",
"461 58 CURVE SMOOTH",
"459 58 OFFCURVE",
"369 37 OFFCURVE",
"260 37 CURVE SMOOTH",
"183 37 OFFCURVE",
"171 43 OFFCURVE",
"171 82 CURVE SMOOTH",
"171 148 OFFCURVE",
"173 215 OFFCURVE",
"177 280 CURVE",
"221 321 OFFCURVE",
"282 373 OFFCURVE",
"306 401 CURVE SMOOTH",
"311 407 OFFCURVE",
"314 412 OFFCURVE",
"314 423 CURVE SMOOTH",
"314 438 OFFCURVE",
"309 464 OFFCURVE",
"300 464 CURVE SMOOTH",
"296 464 OFFCURVE",
"261 423 OFFCURVE",
"180 340 CURVE",
"190 496 OFFCURVE",
"204 622 OFFCURVE",
"204 626 CURVE SMOOTH",
"204 644 OFFCURVE",
"174 652 OFFCURVE",
"151 652 CURVE SMOOTH",
"143 652 OFFCURVE",
"141 650 OFFCURVE",
"141 645 CURVE SMOOTH",
"138 544 OFFCURVE",
"131 415 OFFCURVE",
"125 298 CURVE",
"80 256 OFFCURVE",
"40 219 OFFCURVE",
"33 210 CURVE SMOOTH",
"28 204 OFFCURVE",
"25 199 OFFCURVE",
"25 188 CURVE SMOOTH",
"25 173 OFFCURVE",
"30 147 OFFCURVE",
"39 147 CURVE SMOOTH",
"43 147 OFFCURVE",
"58 168 OFFCURVE",
"121 232 CURVE",
"114 123 OFFCURVE",
"108 34 OFFCURVE",
"105 0 CURVE"
);
}
);
width = 490;
},
{
layerId = "63F4CE79-9D5F-46D3-B41C-385689F27F0A";
paths = (
{
closed = 1;
nodes = (
"453 0 LINE SMOOTH",
"482 0 OFFCURVE",
"489 62 OFFCURVE",
"489 81 CURVE SMOOTH",
"489 107 OFFCURVE",
"489 113 OFFCURVE",
"481 113 CURVE SMOOTH",
"471 113 OFFCURVE",
"417 106 OFFCURVE",
"365 106 CURVE SMOOTH",
"288 106 OFFCURVE",
"277 115 OFFCURVE",
"277 146 CURVE SMOOTH",
"277 174 OFFCURVE",
"281 251 OFFCURVE",
"285 331 CURVE",
"329 373 OFFCURVE",
"390 428 OFFCURVE",
"397 437 CURVE SMOOTH",
"402 444 OFFCURVE",
"406 449 OFFCURVE",
"406 460 CURVE SMOOTH",
"406 475 OFFCURVE",
"399 503 OFFCURVE",
"386 504 CURVE SMOOTH",
"382 504 OFFCURVE",
"352 473 OFFCURVE",
"290 411 CURVE",
"295 503 OFFCURVE",
"299 573 OFFCURVE",
"299 580 CURVE SMOOTH",
"299 630 OFFCURVE",
"192 652 OFFCURVE",
"128 652 CURVE SMOOTH",
"84 652 OFFCURVE",
"79 643 OFFCURVE",
"79 618 CURVE SMOOTH",
"79 525 OFFCURVE",
"72 379 OFFCURVE",
"66 254 CURVE",
"24 215 OFFCURVE",
"-23 171 OFFCURVE",
"-29 163 CURVE SMOOTH",
"-34 156 OFFCURVE",
"-38 151 OFFCURVE",
"-38 140 CURVE SMOOTH",
"-38 125 OFFCURVE",
"-31 96 OFFCURVE",
"-18 96 CURVE SMOOTH",
"-14 96 OFFCURVE",
"11 122 OFFCURVE",
"62 173 CURVE",
"56 80 OFFCURVE",
"52 11 OFFCURVE",
"52 0 CURVE"
);
}
);
width = 494;
}
);
leftKerningGroup = KO_Lslash;
rightKerningGroup = KO_L;
rightMetricsKey = L;
unicode = 0141;
},
{
color = 1;
glyphname = M;
lastChange = "2022-10-11 01:52:01 +0000";
layers = (
{
anchors = (
{
name = bottom;
position = "{470, 0}";
},
{
name = top;
position = "{504, 652}";
}
);
layerId = "220B7CD1-1E4F-4884-BA06-A44A5DCE8B14";
paths = (
{
closed = 1;
nodes = (
"144 -13 OFFCURVE",
"145 -10 OFFCURVE",
"145 -5 CURVE SMOOTH",
"145 49 OFFCURVE",
"188 379 OFFCURVE",
"213 562 CURVE",
"256 466 OFFCURVE",
"393 134 OFFCURVE",
"447 5 CURVE SMOOTH",
"451 -4 OFFCURVE",
"462 -13 OFFCURVE",
"477 -13 CURVE SMOOTH",
"482 -13 OFFCURVE",
"486 -8 OFFCURVE",
"488 -4 CURVE SMOOTH",
"591 183 OFFCURVE",
"756 477 OFFCURVE",
"811 576 CURVE",
"811 559 OFFCURVE",
"815 427 OFFCURVE",
"814 281 CURVE SMOOTH",
"813 194 OFFCURVE",
"809 83 OFFCURVE",
"809 14 CURVE SMOOTH",
"809 -4 OFFCURVE",
"838 -13 OFFCURVE",
"859 -13 CURVE SMOOTH",
"867 -13 OFFCURVE",
"869 -10 OFFCURVE",
"869 -3 CURVE SMOOTH",
"869 210 OFFCURVE",
"866 412 OFFCURVE",
"864 625 CURVE SMOOTH",
"864 645 OFFCURVE",
"828 652 OFFCURVE",
"807 652 CURVE SMOOTH",
"798 652 OFFCURVE",
"796 651 OFFCURVE",
"792 644 CURVE SMOOTH",
"750 567 OFFCURVE",
"588 262 OFFCURVE",
"483 76 CURVE",
"429 191 OFFCURVE",
"323 443 OFFCURVE",
"250 628 CURVE SMOOTH",
"244 644 OFFCURVE",
"219 652 OFFCURVE",
"189 652 CURVE SMOOTH",
"178 652 OFFCURVE",
"176 650 OFFCURVE",
"175 637 CURVE SMOOTH",
"153 429 OFFCURVE",
"90 24 OFFCURVE",
"90 14 CURVE SMOOTH",
"90 -4 OFFCURVE",
"117 -13 OFFCURVE",
"137 -13 CURVE SMOOTH"
);
}
);
width = 979;
},
{
anchors = (
{
name = bottom;
position = "{450, 0}";
},
{
name = top;
position = "{524, 652}";
}
);
layerId = "63F4CE79-9D5F-46D3-B41C-385689F27F0A";
paths = (
{
closed = 1;
nodes = (
"151 -13 OFFCURVE",
"157 -7 OFFCURVE",
"158 4 CURVE SMOOTH",
"166 69 OFFCURVE",
"207 412 OFFCURVE",
"221 470 CURVE",
"244 381 OFFCURVE",
"306 119 OFFCURVE",
"316 59 CURVE SMOOTH",
"323 17 OFFCURVE",
"406 -13 OFFCURVE",
"495 -13 CURVE SMOOTH",
"533 -13 OFFCURVE",
"541 -8 OFFCURVE",
"548 14 CURVE SMOOTH",
"585 129 OFFCURVE",
"684 339 OFFCURVE",
"743 474 CURVE",
"745 410 OFFCURVE",
"747 335 OFFCURVE",
"747 266 CURVE SMOOTH",
"748 168 OFFCURVE",
"748 83 OFFCURVE",
"748 61 CURVE SMOOTH",
"748 12 OFFCURVE",
"848 -13 OFFCURVE",
"922 -13 CURVE SMOOTH",
"958 -13 OFFCURVE",
"972 -7 OFFCURVE",
"972 15 CURVE SMOOTH",
"972 43 OFFCURVE",
"954 519 OFFCURVE",
"954 579 CURVE SMOOTH",
"954 630 OFFCURVE",
"828 652 OFFCURVE",
"754 652 CURVE SMOOTH",
"715 652 OFFCURVE",
"702 648 OFFCURVE",
"697 634 CURVE SMOOTH",
"675 570 OFFCURVE",
"536 271 OFFCURVE",
"503 204 CURVE",
"484 268 OFFCURVE",
"424 520 OFFCURVE",
"410 581 CURVE SMOOTH",
"399 628 OFFCURVE",
"282 652 OFFCURVE",
"197 652 CURVE SMOOTH",
"143 652 OFFCURVE",
"139 648 OFFCURVE",
"135 618 CURVE SMOOTH",
"129 570 OFFCURVE",
"48 112 OFFCURVE",
"48 59 CURVE SMOOTH",
"48 9 OFFCURVE",
"102 -13 OFFCURVE",
"134 -13 CURVE SMOOTH"
);
}
);
width = 1017;
}
);
leftKerningGroup = KO_M;
note = M;
rightKerningGroup = KO_M;
unicode = 004D;
},
{
color = 1;
glyphname = N;
lastChange = "2022-10-09 03:37:15 +0000";
layers = (
{
anchors = (
{
name = bottom;
position = "{418, 0}";
},
{
name = top;
position = "{452, 652}";
}
);
layerId = "220B7CD1-1E4F-4884-BA06-A44A5DCE8B14";
paths = (
{
closed = 1;
nodes = (
"154 -13 OFFCURVE",
"156 -11 OFFCURVE",
"156 -3 CURVE SMOOTH",
"156 160 OFFCURVE",
"175 544 OFFCURVE",
"176 563 CURVE",
"206 518 OFFCURVE",
"560 123 OFFCURVE",
"676 -1 CURVE SMOOTH",
"681 -6 OFFCURVE",
"687 -13 OFFCURVE",
"691 -13 CURVE SMOOTH",
"698 -13 OFFCURVE",
"731 10 OFFCURVE",
"731 19 CURVE SMOOTH",
"731 132 OFFCURVE",
"765 613 OFFCURVE",
"765 626 CURVE SMOOTH",
"765 644 OFFCURVE",
"739 652 OFFCURVE",
"716 652 CURVE SMOOTH",
"707 652 OFFCURVE",
"706 651 OFFCURVE",
"706 642 CURVE SMOOTH",
"706 290 OFFCURVE",
"686 81 OFFCURVE",
"685 77 CURVE",
"607 152 OFFCURVE",
"243 564 OFFCURVE",
"187 641 CURVE SMOOTH",
"183 646 OFFCURVE",
"176 652 OFFCURVE",
"172 652 CURVE SMOOTH",
"162 652 OFFCURVE",
"132 630 OFFCURVE",
"132 621 CURVE SMOOTH",
"132 508 OFFCURVE",
"98 26 OFFCURVE",
"98 14 CURVE SMOOTH",
"98 -4 OFFCURVE",
"123 -13 OFFCURVE",
"146 -13 CURVE SMOOTH"
);
}
);
width = 854;
},
{
anchors = (
{
name = bottom;
position = "{369, 0}";
},
{
name = top;
position = "{413, 652}";
}
);
layerId = "63F4CE79-9D5F-46D3-B41C-385689F27F0A";
paths = (
{
closed = 1;
nodes = (
"178 -13 OFFCURVE",
"181 -4 OFFCURVE",
"181 21 CURVE SMOOTH",
"181 112 OFFCURVE",
"188 317 OFFCURVE",
"192 361 CURVE",
"234 319 OFFCURVE",
"529 8 OFFCURVE",
"536 0 CURVE SMOOTH",
"543 -9 OFFCURVE",
"553 -13 OFFCURVE",
"563 -13 CURVE SMOOTH",
"595 -13 OFFCURVE",
"689 53 OFFCURVE",
"689 86 CURVE SMOOTH",
"689 156 OFFCURVE",
"711 546 OFFCURVE",
"711 580 CURVE SMOOTH",
"711 630 OFFCURVE",
"654 652 OFFCURVE",
"620 652 CURVE SMOOTH",
"596 652 OFFCURVE",
"593 643 OFFCURVE",
"593 618 CURVE SMOOTH",
"593 527 OFFCURVE",
"586 322 OFFCURVE",
"582 280 CURVE",
"540 319 OFFCURVE",
"245 631 OFFCURVE",
"238 639 CURVE SMOOTH",
"231 648 OFFCURVE",
"221 652 OFFCURVE",
"211 652 CURVE SMOOTH",
"179 652 OFFCURVE",
"85 586 OFFCURVE",
"85 553 CURVE SMOOTH",
"85 483 OFFCURVE",
"63 93 OFFCURVE",
"63 59 CURVE SMOOTH",
"63 9 OFFCURVE",
"120 -13 OFFCURVE",
"155 -13 CURVE SMOOTH"
);
}
);
width = 744;
}
);
leftKerningGroup = KO_H;
leftMetricsKey = "=H";
note = N;
rightKerningGroup = KO_N;
rightMetricsKey = "=H";
unicode = 004E;
},
{
color = 7;
glyphname = Eng;
lastChange = "2022-10-09 04:12:53 +0000";
layers = (
{
background = {
paths = (
{
closed = 1;
nodes = (
"698 644 OFFCURVE",
"667 652 OFFCURVE",
"644 652 CURVE SMOOTH",
"635 652 OFFCURVE",
"634 650 OFFCURVE",
"634 645 CURVE SMOOTH",
"633 597 OFFCURVE",
"628 476 OFFCURVE",
"621 353 CURVE",
"174 353 LINE",
"184 509 OFFCURVE",
"197 618 OFFCURVE",
"197 626 CURVE SMOOTH",
"197 644 OFFCURVE",
"167 652 OFFCURVE",
"144 652 CURVE SMOOTH",
"135 652 OFFCURVE",
"134 650 OFFCURVE",
"134 645 CURVE SMOOTH",
"131 537 OFFCURVE",
"99 26 OFFCURVE",
"99 14 CURVE SMOOTH",
"99 -4 OFFCURVE",
"129 -13 OFFCURVE",
"152 -13 CURVE SMOOTH",
"160 -13 OFFCURVE",
"162 -10 OFFCURVE",
"162 -5 CURVE SMOOTH",
"162 107 OFFCURVE",
"165 214 OFFCURVE",
"172 309 CURVE",
"250 313 OFFCURVE",
"328 315 OFFCURVE",
"405 315 CURVE SMOOTH",
"477 315 OFFCURVE",
"549 313 OFFCURVE",
"619 310 CURVE",
"610 160 OFFCURVE",
"599 20 OFFCURVE",
"599 14 CURVE SMOOTH",
"599 -4 OFFCURVE",
"629 -13 OFFCURVE",
"652 -13 CURVE SMOOTH",
"660 -13 OFFCURVE",
"663 -10 OFFCURVE",
"663 -5 CURVE SMOOTH",
"663 317 OFFCURVE",
"698 612 OFFCURVE",
"698 626 CURVE SMOOTH"
);
}
);
};
layerId = "220B7CD1-1E4F-4884-BA06-A44A5DCE8B14";
paths = (
{
closed = 1;
nodes = (
"507 -244 OFFCURVE",
"550 -225 OFFCURVE",
"587 -190 CURVE SMOOTH",
"624 -155 OFFCURVE",
"648 -99 OFFCURVE",
"652 -28 CURVE SMOOTH",
"659 161 OFFCURVE",
"688 483 OFFCURVE",
"688 550 CURVE SMOOTH",
"688 578 OFFCURVE",
"687 596 OFFCURVE",
"683 603 CURVE",
"677 618 OFFCURVE",
"647 643 OFFCURVE",
"633 643 CURVE SMOOTH",
"560 643 OFFCURVE",
"236 352 OFFCURVE",
"161 175 CURVE",
"161 189 OFFCURVE",
"190 554 OFFCURVE",
"190 610 CURVE SMOOTH",
"190 632 OFFCURVE",
"168 643 OFFCURVE",
"141 643 CURVE SMOOTH",
"133 643 OFFCURVE",
"131 640 OFFCURVE",
"131 633 CURVE SMOOTH",
"131 473 OFFCURVE",
"98 25 OFFCURVE",
"98 20 CURVE SMOOTH",
"98 -2 OFFCURVE",
"124 -13 OFFCURVE",
"147 -13 CURVE SMOOTH",
"156 -13 OFFCURVE",
"160 -9 OFFCURVE",
"160 -3 CURVE SMOOTH",
"160 57 OFFCURVE",
"194 139 OFFCURVE",
"240 220 CURVE SMOOTH",
"328 378 OFFCURVE",
"587 577 OFFCURVE",
"609 577 CURVE SMOOTH",
"624 577 OFFCURVE",
"628 569 OFFCURVE",
"627 519 CURVE SMOOTH",
"627 512 OFFCURVE",
"597 46 OFFCURVE",
"597 40 CURVE SMOOTH",
"581 -173 OFFCURVE",
"558 -193 OFFCURVE",
"477 -193 CURVE SMOOTH",
"407 -193 OFFCURVE",
"326 -161 OFFCURVE",
"293 -147 CURVE SMOOTH",
"287 -145 OFFCURVE",
"280 -141 OFFCURVE",
"278 -141 CURVE SMOOTH",
"275 -141 OFFCURVE",
"271 -146 OFFCURVE",
"271 -164 CURVE SMOOTH",
"271 -174 OFFCURVE",
"275 -185 OFFCURVE",
"281 -189 CURVE SMOOTH",
"293 -198 OFFCURVE",
"385 -244 OFFCURVE",
"474 -244 CURVE SMOOTH"
);
}
);
width = 777;
},
{
background = {
paths = (
{
closed = 1;
nodes = (
"884 728 OFFCURVE",
"927 747 OFFCURVE",
"964 782 CURVE SMOOTH",
"1001 817 OFFCURVE",
"1025 873 OFFCURVE",
"1029 944 CURVE SMOOTH",
"1036 1133 OFFCURVE",
"1065 1455 OFFCURVE",
"1065 1522 CURVE SMOOTH",
"1065 1550 OFFCURVE",
"1064 1568 OFFCURVE",
"1060 1575 CURVE",
"1054 1590 OFFCURVE",
"1024 1615 OFFCURVE",
"1010 1615 CURVE SMOOTH",
"937 1615 OFFCURVE",
"613 1324 OFFCURVE",
"538 1147 CURVE",
"538 1161 OFFCURVE",
"567 1526 OFFCURVE",
"567 1582 CURVE SMOOTH",
"567 1604 OFFCURVE",
"545 1615 OFFCURVE",
"518 1615 CURVE SMOOTH",
"510 1615 OFFCURVE",
"508 1612 OFFCURVE",
"508 1605 CURVE SMOOTH",
"508 1445 OFFCURVE",
"475 997 OFFCURVE",
"475 992 CURVE SMOOTH",
"475 970 OFFCURVE",
"501 959 OFFCURVE",
"524 959 CURVE SMOOTH",
"533 959 OFFCURVE",
"537 963 OFFCURVE",
"537 969 CURVE SMOOTH",
"537 1029 OFFCURVE",
"571 1111 OFFCURVE",
"617 1192 CURVE SMOOTH",
"705 1350 OFFCURVE",
"964 1549 OFFCURVE",
"986 1549 CURVE SMOOTH",
"1001 1549 OFFCURVE",
"1005 1541 OFFCURVE",
"1004 1491 CURVE SMOOTH",
"1004 1484 OFFCURVE",
"974 1018 OFFCURVE",
"974 1012 CURVE SMOOTH",
"958 799 OFFCURVE",
"935 779 OFFCURVE",
"854 779 CURVE SMOOTH",
"784 779 OFFCURVE",
"703 811 OFFCURVE",
"670 825 CURVE SMOOTH",
"664 827 OFFCURVE",
"657 831 OFFCURVE",
"655 831 CURVE SMOOTH",
"652 831 OFFCURVE",
"648 826 OFFCURVE",
"648 808 CURVE SMOOTH",
"648 798 OFFCURVE",
"652 787 OFFCURVE",
"658 783 CURVE SMOOTH",
"670 774 OFFCURVE",
"762 728 OFFCURVE",
"851 728 CURVE SMOOTH"
);
},
{
closed = 1;
nodes = (
"278 -13 OFFCURVE",
"283 -4 OFFCURVE",
"283 21 CURVE SMOOTH",
"283 85 OFFCURVE",
"286 171 OFFCURVE",
"290 256 CURVE",
"341 262 OFFCURVE",
"390 265 OFFCURVE",
"437 265 CURVE",
"477 265 OFFCURVE",
"516 263 OFFCURVE",
"551 259 CURVE",
"545 152 OFFCURVE",
"540 67 OFFCURVE",
"540 59 CURVE SMOOTH",
"540 9 OFFCURVE",
"647 -13 OFFCURVE",
"711 -13 CURVE SMOOTH",
"755 -13 OFFCURVE",
"760 -4 OFFCURVE",
"760 21 CURVE SMOOTH",
"760 199 OFFCURVE",
"784 562 OFFCURVE",
"784 580 CURVE SMOOTH",
"784 630 OFFCURVE",
"677 652 OFFCURVE",
"613 652 CURVE SMOOTH",
"569 652 OFFCURVE",
"564 643 OFFCURVE",
"564 618 CURVE SMOOTH",
"564 553 OFFCURVE",
"561 465 OFFCURVE",
"557 379 CURVE",
"296 379 LINE",
"302 487 OFFCURVE",
"307 572 OFFCURVE",
"307 580 CURVE SMOOTH",
"307 630 OFFCURVE",
"200 652 OFFCURVE",
"136 652 CURVE SMOOTH",
"92 652 OFFCURVE",
"87 643 OFFCURVE",
"87 618 CURVE SMOOTH",
"87 440 OFFCURVE",
"63 77 OFFCURVE",
"63 59 CURVE SMOOTH",
"63 9 OFFCURVE",
"170 -13 OFFCURVE",
"234 -13 CURVE SMOOTH"
);
}
);
};
layerId = "63F4CE79-9D5F-46D3-B41C-385689F27F0A";
paths = (
{
closed = 1;
nodes = (
"509 -244 OFFCURVE",
"573 -239 OFFCURVE",
"626 -192 CURVE SMOOTH",
"678 -146 OFFCURVE",
"695 -82 OFFCURVE",
"700 -22 CURVE SMOOTH",
"718 222 OFFCURVE",
"730 383 OFFCURVE",
"733 497 CURVE SMOOTH",
"733 515 OFFCURVE",
"732 531 OFFCURVE",
"730 550 CURVE SMOOTH",
"721 614 OFFCURVE",
"634 652 OFFCURVE",
"611 652 CURVE SMOOTH",
"545 652 OFFCURVE",
"303 423 OFFCURVE",
"294 342 CURVE",
"301 418 OFFCURVE",
"308 554 OFFCURVE",
"308 576 CURVE SMOOTH",
"308 630 OFFCURVE",
"193 652 OFFCURVE",
"129 652 CURVE SMOOTH",
"97 652 OFFCURVE",
"88 642 OFFCURVE",
"88 619 CURVE SMOOTH",
"87 440 OFFCURVE",
"63 178 OFFCURVE",
"63 59 CURVE SMOOTH",
"63 9 OFFCURVE",
"170 -13 OFFCURVE",
"242 -16 CURVE SMOOTH",
"274 -17 OFFCURVE",
"283 -6 OFFCURVE",
"283 17 CURVE SMOOTH",
"283 96 OFFCURVE",
"286 147 OFFCURVE",
"310 222 CURVE SMOOTH",
"345 329 OFFCURVE",
"466 427 OFFCURVE",
"487 427 CURVE SMOOTH",
"497 427 OFFCURVE",
"507 421 OFFCURVE",
"504 355 CURVE SMOOTH",
"500 261 OFFCURVE",
"489 125 OFFCURVE",
"475 -24 CURVE SMOOTH",
"466 -118 OFFCURVE",
"438 -149 OFFCURVE",
"405 -149 CURVE SMOOTH",
"370 -149 OFFCURVE",
"360 -148 OFFCURVE",
"350 -147 CURVE SMOOTH",
"342 -146 OFFCURVE",
"338 -145 OFFCURVE",
"335 -145 CURVE SMOOTH",
"325 -145 OFFCURVE",
"317 -162 OFFCURVE",
"317 -178 CURVE SMOOTH",
"317 -201 OFFCURVE",
"321 -218 OFFCURVE",
"336 -226 CURVE SMOOTH",
"351 -234 OFFCURVE",
"413 -244 OFFCURVE",
"460 -244 CURVE SMOOTH"
);
}
);
width = 766;
}
);
leftKerningGroup = KO_H;
leftMetricsKey = H;
rightKerningGroup = KO_N;
rightMetricsKey = H;
unicode = 014A;
},
{
color = 7;
glyphname = Nhookleft;
lastChange = "2022-10-09 04:12:53 +0000";
layers = (
{
anchors = (
{
name = bottom;
position = "{418, 0}";
},
{
name = top;
position = "{452, 652}";
}
);
layerId = "220B7CD1-1E4F-4884-BA06-A44A5DCE8B14";
paths = (
{
closed = 1;
nodes = (
"57 -163 OFFCURVE",
"123 -126 OFFCURVE",
"142 -35 CURVE SMOOTH",
"160 50 OFFCURVE",
"158 283 OFFCURVE",
"162 366 CURVE SMOOTH",
"167 473 OFFCURVE",
"176 555 OFFCURVE",
"176 563 CURVE",
"206 518 OFFCURVE",
"560 123 OFFCURVE",
"676 -1 CURVE SMOOTH",
"681 -6 OFFCURVE",
"687 -13 OFFCURVE",
"691 -13 CURVE SMOOTH",
"698 -13 OFFCURVE",
"731 10 OFFCURVE",
"731 19 CURVE SMOOTH",
"731 132 OFFCURVE",
"765 613 OFFCURVE",
"765 626 CURVE SMOOTH",
"765 644 OFFCURVE",
"739 652 OFFCURVE",
"716 652 CURVE SMOOTH",
"707 652 OFFCURVE",
"706 651 OFFCURVE",
"706 642 CURVE SMOOTH",
"706 290 OFFCURVE",
"686 81 OFFCURVE",
"685 77 CURVE",
"607 152 OFFCURVE",
"243 564 OFFCURVE",
"187 641 CURVE SMOOTH",
"183 646 OFFCURVE",
"176 652 OFFCURVE",
"172 652 CURVE SMOOTH",
"162 652 OFFCURVE",
"132 630 OFFCURVE",
"132 621 CURVE SMOOTH",
"132 580 OFFCURVE",
"115 286 OFFCURVE",
"113 244 CURVE SMOOTH",
"108 169 OFFCURVE",
"103 101 OFFCURVE",
"101 58 CURVE SMOOTH",
"92 -50 OFFCURVE",
"83 -81 OFFCURVE",
"59 -102 CURVE SMOOTH",
"43 -116 OFFCURVE",
"25 -124 OFFCURVE",
"3 -124 CURVE SMOOTH",
"-40 -124 OFFCURVE",
"-87 -101 OFFCURVE",
"-98 -101 CURVE SMOOTH",
"-103 -101 OFFCURVE",
"-107 -108 OFFCURVE",
"-107 -119 CURVE SMOOTH",
"-107 -138 OFFCURVE",
"-104 -145 OFFCURVE",
"-92 -151 CURVE SMOOTH",
"-74 -160 OFFCURVE",
"-48 -163 OFFCURVE",
"-6 -163 CURVE SMOOTH"
);
}
);
width = 854;
},
{
anchors = (
{
name = bottom;
position = "{419, 0}";
},
{
name = top;
position = "{453, 652}";
}
);
background = {
paths = (
{
closed = 1;
nodes = (
"58 -163 OFFCURVE",
"124 -126 OFFCURVE",
"143 -35 CURVE SMOOTH",
"161 50 OFFCURVE",
"159 283 OFFCURVE",
"163 366 CURVE SMOOTH",
"168 473 OFFCURVE",
"177 555 OFFCURVE",
"177 563 CURVE",
"207 518 OFFCURVE",
"561 123 OFFCURVE",
"677 -1 CURVE SMOOTH",
"682 -6 OFFCURVE",
"688 -13 OFFCURVE",
"692 -13 CURVE SMOOTH",
"699 -13 OFFCURVE",
"732 10 OFFCURVE",
"732 19 CURVE SMOOTH",
"732 132 OFFCURVE",
"766 613 OFFCURVE",
"766 626 CURVE SMOOTH",
"766 644 OFFCURVE",
"740 652 OFFCURVE",
"717 652 CURVE SMOOTH",
"708 652 OFFCURVE",
"707 651 OFFCURVE",
"707 642 CURVE SMOOTH",
"707 290 OFFCURVE",
"687 81 OFFCURVE",
"686 77 CURVE",
"608 152 OFFCURVE",
"244 564 OFFCURVE",
"188 641 CURVE SMOOTH",
"184 646 OFFCURVE",
"177 652 OFFCURVE",
"173 652 CURVE SMOOTH",
"163 652 OFFCURVE",
"133 630 OFFCURVE",
"133 621 CURVE SMOOTH",
"133 580 OFFCURVE",
"116 286 OFFCURVE",
"114 244 CURVE SMOOTH",
"109 169 OFFCURVE",
"104 101 OFFCURVE",
"102 58 CURVE SMOOTH",
"93 -50 OFFCURVE",
"84 -81 OFFCURVE",
"60 -102 CURVE SMOOTH",
"44 -116 OFFCURVE",
"26 -124 OFFCURVE",
"4 -124 CURVE SMOOTH",
"-39 -124 OFFCURVE",
"-86 -101 OFFCURVE",
"-97 -101 CURVE SMOOTH",
"-102 -101 OFFCURVE",
"-106 -108 OFFCURVE",
"-106 -119 CURVE SMOOTH",
"-106 -138 OFFCURVE",
"-103 -145 OFFCURVE",
"-91 -151 CURVE SMOOTH",
"-73 -160 OFFCURVE",
"-47 -163 OFFCURVE",
"-5 -163 CURVE SMOOTH"
);
}
);
};
layerId = "63F4CE79-9D5F-46D3-B41C-385689F27F0A";
paths = (
{
closed = 1;
nodes = (
"28 -195 OFFCURVE",
"89 -183 OFFCURVE",
"135 -134 CURVE SMOOTH",
"167 -100 OFFCURVE",
"181 -34 OFFCURVE",
"181 21 CURVE SMOOTH",
"181 112 OFFCURVE",
"188 317 OFFCURVE",
"192 361 CURVE",
"234 319 OFFCURVE",
"529 8 OFFCURVE",
"536 0 CURVE SMOOTH",
"543 -9 OFFCURVE",
"553 -13 OFFCURVE",
"563 -13 CURVE SMOOTH",
"595 -13 OFFCURVE",
"689 53 OFFCURVE",
"689 86 CURVE SMOOTH",
"689 156 OFFCURVE",
"711 546 OFFCURVE",
"711 580 CURVE SMOOTH",
"711 630 OFFCURVE",
"654 652 OFFCURVE",
"620 652 CURVE SMOOTH",
"596 652 OFFCURVE",
"593 643 OFFCURVE",
"593 618 CURVE SMOOTH",
"593 527 OFFCURVE",
"586 322 OFFCURVE",
"582 280 CURVE",
"540 319 OFFCURVE",
"245 631 OFFCURVE",
"238 639 CURVE SMOOTH",
"231 648 OFFCURVE",
"221 652 OFFCURVE",
"211 652 CURVE SMOOTH",
"179 652 OFFCURVE",
"85 586 OFFCURVE",
"85 553 CURVE SMOOTH",
"85 520 OFFCURVE",
"80 398 OFFCURVE",
"69 187 CURVE SMOOTH",
"66 134 OFFCURVE",
"63 77 OFFCURVE",
"63 52 CURVE SMOOTH",
"58 -49 OFFCURVE",
"52 -64 OFFCURVE",
"32 -88 CURVE SMOOTH",
"24 -97 OFFCURVE",
"10 -102 OFFCURVE",
"-12 -102 CURVE SMOOTH",
"-26 -102 OFFCURVE",
"-85 -96 OFFCURVE",
"-92 -96 CURVE SMOOTH",
"-101 -96 OFFCURVE",
"-110 -112 OFFCURVE",
"-110 -128 CURVE SMOOTH",
"-110 -154 OFFCURVE",
"-107 -173 OFFCURVE",
"-86 -182 CURVE SMOOTH",
"-64 -191 OFFCURVE",
"-51 -195 OFFCURVE",
"-22 -195 CURVE SMOOTH"
);
}
);
width = 744;
}
);
widthMetricsKey = N;
rightKerningGroup = KO_N;
rightMetricsKey = H;
unicode = 019D;
},
{
color = 1;
glyphname = O;
lastChange = "2022-10-10 19:50:14 +0000";
layers = (
{
anchors = (
{
name = bottom;
position = "{361, 0}";
},
{
name = center;
position = "{378, 326}";
},
{
name = ogonek;
position = "{429, 10}";
},
{
name = top;
position = "{395, 652}";
},
{
name = topleft;
position = "{41, 652}";
},
{
name = topright;
position = "{558, 602}";
}
);
layerId = "220B7CD1-1E4F-4884-BA06-A44A5DCE8B14";
paths = (
{
closed = 1;
nodes = (
"587 -13 OFFCURVE",
"686 134 OFFCURVE",
"686 349 CURVE SMOOTH",
"686 528 OFFCURVE",
"597 652 OFFCURVE",
"379 652 CURVE SMOOTH",
"163 652 OFFCURVE",
"64 506 OFFCURVE",
"64 291 CURVE SMOOTH",
"64 112 OFFCURVE",
"153 -13 OFFCURVE",
"371 -13 CURVE SMOOTH"
);
},
{
closed = 1;
nodes = (
"197 24 OFFCURVE",
"125 135 OFFCURVE",
"125 294 CURVE SMOOTH",
"125 485 OFFCURVE",
"205 615 OFFCURVE",
"378 615 CURVE SMOOTH",
"553 615 OFFCURVE",
"625 505 OFFCURVE",
"625 346 CURVE SMOOTH",
"625 154 OFFCURVE",
"545 24 OFFCURVE",
"372 24 CURVE SMOOTH"
);
}
);
width = 743;
},
{
anchors = (
{
name = bottom;
position = "{375, 0}";
},
{
name = center;
position = "{392, 326}";
},
{
name = ogonek;
position = "{443, 10}";
},
{
name = top;
position = "{409, 652}";
},
{
name = topleft;
position = "{55, 652}";
},
{
name = topright;
position = "{593, 608}";
}
);
background = {
paths = (
{
closed = 1;
nodes = (
"582 -13 OFFCURVE",
"738 45 OFFCURVE",
"738 364 CURVE",
"738 365 LINE",
"738 635 OFFCURVE",
"577 652 OFFCURVE",
"421 652 CURVE",
"206 652 OFFCURVE",
"50 594 OFFCURVE",
"50 275 CURVE",
"50 5 OFFCURVE",
"211 -13 OFFCURVE",
"368 -13 CURVE"
);
},
{
closed = 1;
nodes = (
"330 68 OFFCURVE",
"278 125 OFFCURVE",
"278 279 CURVE",
"278 401 OFFCURVE",
"295 580 OFFCURVE",
"373 580 CURVE",
"458 580 OFFCURVE",
"510 522 OFFCURVE",
"510 370 CURVE",
"510 369 LINE",
"510 246 OFFCURVE",
"494 68 OFFCURVE",
"415 68 CURVE"
);
}
);
};
layerId = "63F4CE79-9D5F-46D3-B41C-385689F27F0A";
paths = (
{
closed = 1;
nodes = (
"582 -13 OFFCURVE",
"738 45 OFFCURVE",
"738 365 CURVE SMOOTH",
"738 635 OFFCURVE",
"577 652 OFFCURVE",
"421 652 CURVE SMOOTH",
"206 652 OFFCURVE",
"50 594 OFFCURVE",
"50 275 CURVE SMOOTH",
"50 5 OFFCURVE",
"211 -13 OFFCURVE",
"368 -13 CURVE SMOOTH"
);
},
{
closed = 1;
nodes = (
"330 68 OFFCURVE",
"278 125 OFFCURVE",
"278 279 CURVE SMOOTH",
"278 401 OFFCURVE",
"295 580 OFFCURVE",
"373 580 CURVE SMOOTH",
"458 580 OFFCURVE",
"510 522 OFFCURVE",
"510 370 CURVE SMOOTH",
"510 246 OFFCURVE",
"494 68 OFFCURVE",
"415 68 CURVE SMOOTH"
);
}
);
width = 763;
}
);
leftKerningGroup = KO_O;
note = O;
rightKerningGroup = KO_O;
unicode = 004F;
userData = {
KernOnName = O;
};
},
{
color = 7;
glyphname = Oopen;
lastChange = "2022-10-10 19:19:56 +0000";
layers = (
{
anchors = (
{
name = bottom;
position = "{229, 0}";
},
{
name = top;
position = "{268, 652}";
}
);
layerId = "220B7CD1-1E4F-4884-BA06-A44A5DCE8B14";
paths = (
{
closed = 1;
nodes = (
"493 0 OFFCURVE",
"588 176 OFFCURVE",
"594 340 CURVE SMOOTH",
"602 594 OFFCURVE",
"425 665 OFFCURVE",
"268 665 CURVE SMOOTH",
"173 665 OFFCURVE",
"87 642 OFFCURVE",
"61 626 CURVE SMOOTH",
"51 620 OFFCURVE",
"48 602 OFFCURVE",
"46 584 CURVE SMOOTH",
"46 576 OFFCURVE",
"46 570 OFFCURVE",
"49 570 CURVE SMOOTH",
"52 570 OFFCURVE",
"59 573 OFFCURVE",
"69 578 CURVE SMOOTH",
"102 595 OFFCURVE",
"179 620 OFFCURVE",
"276 620 CURVE SMOOTH",
"420 620 OFFCURVE",
"539 531 OFFCURVE",
"533 336 CURVE SMOOTH",
"525 139 OFFCURVE",
"401 39 OFFCURVE",
"248 39 CURVE SMOOTH",
"119 39 OFFCURVE",
"59 97 OFFCURVE",
"41 97 CURVE SMOOTH",
"35 97 OFFCURVE",
"28 71 OFFCURVE",
"28 56 CURVE SMOOTH",
"28 49 OFFCURVE",
"26 42 OFFCURVE",
"47 32 CURVE SMOOTH",
"86 12 OFFCURVE",
"151 0 OFFCURVE",
"258 0 CURVE SMOOTH"
);
}
);
width = 651;
},
{
anchors = (
{
name = bottom;
position = "{279, 0}";
},
{
name = top;
position = "{318, 652}";
}
);
background = {
paths = (
{
closed = 1;
nodes = (
"543 0 OFFCURVE",
"638 176 OFFCURVE",
"644 340 CURVE SMOOTH",
"652 594 OFFCURVE",
"475 665 OFFCURVE",
"318 665 CURVE SMOOTH",
"223 665 OFFCURVE",
"137 642 OFFCURVE",
"111 626 CURVE SMOOTH",
"101 620 OFFCURVE",
"98 602 OFFCURVE",
"96 584 CURVE SMOOTH",
"96 576 OFFCURVE",
"96 570 OFFCURVE",
"99 570 CURVE SMOOTH",
"102 570 OFFCURVE",
"109 573 OFFCURVE",
"119 578 CURVE SMOOTH",
"152 595 OFFCURVE",
"229 620 OFFCURVE",
"326 620 CURVE SMOOTH",
"470 620 OFFCURVE",
"589 531 OFFCURVE",
"583 336 CURVE SMOOTH",
"575 139 OFFCURVE",
"451 39 OFFCURVE",
"298 39 CURVE SMOOTH",
"169 39 OFFCURVE",
"109 97 OFFCURVE",
"91 97 CURVE SMOOTH",
"85 97 OFFCURVE",
"78 71 OFFCURVE",
"78 56 CURVE SMOOTH",
"78 49 OFFCURVE",
"76 42 OFFCURVE",
"97 32 CURVE SMOOTH",
"136 12 OFFCURVE",
"201 0 OFFCURVE",
"308 0 CURVE SMOOTH"
);
}
);
};
layerId = "63F4CE79-9D5F-46D3-B41C-385689F27F0A";
paths = (
{
closed = 1;
nodes = (
"213 665 OFFCURVE",
"174 662 OFFCURVE",
"115 645 CURVE SMOOTH",
"86 637 OFFCURVE",
"67 606 OFFCURVE",
"67 535 CURVE SMOOTH",
"67 521 OFFCURVE",
"69 515 OFFCURVE",
"78 515 CURVE SMOOTH",
"83 515 OFFCURVE",
"90 517 OFFCURVE",
"100 520 CURVE SMOOTH",
"157 539 OFFCURVE",
"197 542 OFFCURVE",
"250 542 CURVE SMOOTH",
"367 542 OFFCURVE",
"416 487 OFFCURVE",
"416 339 CURVE",
"416 160 OFFCURVE",
"341 126 OFFCURVE",
"266 126 CURVE SMOOTH",
"157 126 OFFCURVE",
"103 166 OFFCURVE",
"86 166 CURVE",
"53 166 OFFCURVE",
"50 97 OFFCURVE",
"50 81 CURVE",
"50 57 OFFCURVE",
"54 39 OFFCURVE",
"77 31 CURVE",
"140 9 OFFCURVE",
"206 0 OFFCURVE",
"273 0 CURVE",
"488 0 OFFCURVE",
"644 58 OFFCURVE",
"644 377 CURVE",
"644 589 OFFCURVE",
"520 665 OFFCURVE",
"287 665 CURVE SMOOTH"
);
}
);
width = 669;
}
);
leftKerningGroup = KO_Z;
rightKerningGroup = KO_D;
rightMetricsKey = O;
unicode = 0186;
},
{
color = 1;
glyphname = Oslash;
lastChange = "2022-09-24 06:35:46 +0000";
layers = (
{
anchors = (
{
name = bottom;
position = "{360, 0}";
},
{
name = top;
position = "{394, 652}";
}
);
layerId = "220B7CD1-1E4F-4884-BA06-A44A5DCE8B14";
paths = (
{
closed = 1;
nodes = (
"88 -101 OFFCURVE",
"91 -97 OFFCURVE",
"96 -90 CURVE SMOOTH",
"185 31 LINE",
"232 3 OFFCURVE",
"293 -13 OFFCURVE",
"370 -13 CURVE SMOOTH",
"586 -13 OFFCURVE",
"685 134 OFFCURVE",
"685 349 CURVE SMOOTH",
"685 442 OFFCURVE",
"661 520 OFFCURVE",
"607 573 CURVE",
"692 682 LINE SMOOTH",
"699 690 OFFCURVE",
"701 695 OFFCURVE",
"701 700 CURVE SMOOTH",
"701 717 OFFCURVE",
"679 733 OFFCURVE",
"673 733 CURVE SMOOTH",
"669 733 OFFCURVE",
"666 729 OFFCURVE",
"661 722 CURVE SMOOTH",
"572 602 LINE",
"524 635 OFFCURVE",
"460 652 OFFCURVE",
"378 652 CURVE SMOOTH",
"162 652 OFFCURVE",
"63 506 OFFCURVE",
"63 291 CURVE SMOOTH",
"63 193 OFFCURVE",
"89 111 OFFCURVE",
"150 58 CURVE",
"65 -50 LINE SMOOTH",
"58 -58 OFFCURVE",
"56 -63 OFFCURVE",
"56 -68 CURVE SMOOTH",
"56 -85 OFFCURVE",
"78 -101 OFFCURVE",
"84 -101 CURVE SMOOTH"
);
},
{
closed = 1;
nodes = (
"160 124 OFFCURVE",
"124 182 OFFCURVE",
"124 296 CURVE SMOOTH",
"124 485 OFFCURVE",
"209 617 OFFCURVE",
"374 617 CURVE SMOOTH",
"450 617 OFFCURVE",
"505 596 OFFCURVE",
"539 566 CURVE",
"479 482 OFFCURVE",
"272 213 OFFCURVE",
"186 95 CURVE"
);
},
{
closed = 1;
nodes = (
"309 24 OFFCURVE",
"257 38 OFFCURVE",
"218 66 CURVE",
"281 152 OFFCURVE",
"492 428 OFFCURVE",
"571 534 CURVE",
"609 488 OFFCURVE",
"624 414 OFFCURVE",
"624 346 CURVE SMOOTH",
"624 154 OFFCURVE",
"544 24 OFFCURVE",
"371 24 CURVE SMOOTH"
);
}
);
width = 748;
},
{
anchors = (
{
name = bottom;
position = "{360, 0}";
},
{
name = top;
position = "{394, 652}";
}
);
layerId = "63F4CE79-9D5F-46D3-B41C-385689F27F0A";
paths = (
{
closed = 1;
nodes = (
"75 -95 OFFCURVE",
"81 -89 OFFCURVE",
"88 -80 CURVE SMOOTH",
"166 14 LINE",
"232 -11 OFFCURVE",
"293 -13 OFFCURVE",
"352 -13 CURVE SMOOTH",
"567 -13 OFFCURVE",
"723 45 OFFCURVE",
"723 364 CURVE SMOOTH",
"723 492 OFFCURVE",
"688 555 OFFCURVE",
"649 589 CURVE",
"719 666 LINE SMOOTH",
"727 674 OFFCURVE",
"730 680 OFFCURVE",
"730 685 CURVE SMOOTH",
"730 708 OFFCURVE",
"697 734 OFFCURVE",
"687 734 CURVE SMOOTH",
"683 734 OFFCURVE",
"677 728 OFFCURVE",
"670 719 CURVE SMOOTH",
"592 625 LINE",
"542 647 OFFCURVE",
"478 652 OFFCURVE",
"405 652 CURVE SMOOTH",
"191 652 OFFCURVE",
"35 594 OFFCURVE",
"35 274 CURVE SMOOTH",
"35 155 OFFCURVE",
"66 86 OFFCURVE",
"109 50 CURVE",
"39 -27 LINE SMOOTH",
"31 -35 OFFCURVE",
"28 -41 OFFCURVE",
"28 -46 CURVE SMOOTH",
"28 -69 OFFCURVE",
"61 -95 OFFCURVE",
"71 -95 CURVE SMOOTH"
);
},
{
closed = 1;
nodes = (
"345 69 OFFCURVE",
"307 86 OFFCURVE",
"285 132 CURVE",
"345 211 OFFCURVE",
"424 320 OFFCURVE",
"493 412 CURVE",
"494 390 OFFCURVE",
"494 372 OFFCURVE",
"494 354 CURVE SMOOTH",
"494 249 OFFCURVE",
"478 69 OFFCURVE",
"400 69 CURVE SMOOTH"
);
},
{
closed = 1;
nodes = (
"264 236 OFFCURVE",
"263 258 OFFCURVE",
"263 278 CURVE SMOOTH",
"263 402 OFFCURVE",
"280 581 OFFCURVE",
"357 581 CURVE SMOOTH",
"415 582 OFFCURVE",
"456 559 OFFCURVE",
"478 497 CURVE",
"418 416 OFFCURVE",
"336 302 OFFCURVE",
"266 212 CURVE"
);
}
);
width = 748;
}
);
leftKerningGroup = KO_Oslash;
note = Oslash;
rightKerningGroup = KO_O;
unicode = 00D8;
},
{
color = 1;
glyphname = OE;
lastChange = "2022-10-10 19:19:56 +0000";
layers = (
{
layerId = "220B7CD1-1E4F-4884-BA06-A44A5DCE8B14";
paths = (
{
closed = 1;
nodes = (
"855 0 LINE SMOOTH",
"862 0 OFFCURVE",
"872 26 OFFCURVE",
"872 44 CURVE SMOOTH",
"872 52 OFFCURVE",
"872 58 OFFCURVE",
"870 58 CURVE SMOOTH",
"867 58 OFFCURVE",
"788 37 OFFCURVE",
"647 37 CURVE SMOOTH",
"570 37 OFFCURVE",
"559 43 OFFCURVE",
"559 82 CURVE SMOOTH",
"559 149 OFFCURVE",
"560 228 OFFCURVE",
"565 312 CURVE",
"605 312 LINE SMOOTH",
"746 312 OFFCURVE",
"794 304 OFFCURVE",
"798 304 CURVE SMOOTH",
"802 304 OFFCURVE",
"808 326 OFFCURVE",
"808 341 CURVE SMOOTH",
"808 349 OFFCURVE",
"806 355 OFFCURVE",
"803 355 CURVE SMOOTH",
"568 355 LINE",
"574 458 OFFCURVE",
"583 552 OFFCURVE",
"589 596 CURVE",
"622 596 LINE SMOOTH",
"763 596 OFFCURVE",
"811 587 OFFCURVE",
"814 587 CURVE SMOOTH",
"818 587 OFFCURVE",
"825 610 OFFCURVE",
"825 625 CURVE SMOOTH",
"825 633 OFFCURVE",
"822 639 OFFCURVE",
"820 639 CURVE SMOOTH",
"395 639 LINE SMOOTH",
"153 639 OFFCURVE",
"64 506 OFFCURVE",
"64 335 CURVE SMOOTH",
"64 122 OFFCURVE",
"185 0 OFFCURVE",
"403 0 CURVE SMOOTH"
);
},
{
closed = 1;
nodes = (
"329 37 OFFCURVE",
"266 55 OFFCURVE",
"202 114 CURVE SMOOTH",
"148 164 OFFCURVE",
"125 237 OFFCURVE",
"125 319 CURVE SMOOTH",
"125 511 OFFCURVE",
"213 596 OFFCURVE",
"385 596 CURVE SMOOTH",
"528 596 LINE",
"519 407 OFFCURVE",
"505 140 OFFCURVE",
"496 37 CURVE",
"435 37 LINE SMOOTH"
);
}
);
width = 926;
},
{
layerId = "63F4CE79-9D5F-46D3-B41C-385689F27F0A";
paths = (
{
closed = 1;
nodes = (
"919 0 LINE SMOOTH",
"948 0 OFFCURVE",
"954 67 OFFCURVE",
"954 86 CURVE SMOOTH",
"954 112 OFFCURVE",
"954 119 OFFCURVE",
"947 119 CURVE SMOOTH",
"937 119 OFFCURVE",
"865 106 OFFCURVE",
"789 106 CURVE SMOOTH",
"712 106 OFFCURVE",
"701 115 OFFCURVE",
"701 146 CURVE SMOOTH",
"701 190 OFFCURVE",
"706 264 OFFCURVE",
"706 277 CURVE",
"728 277 LINE SMOOTH",
"807 277 OFFCURVE",
"881 272 OFFCURVE",
"890 272 CURVE SMOOTH",
"900 272 OFFCURVE",
"906 313 OFFCURVE",
"906 342 CURVE SMOOTH",
"906 367 OFFCURVE",
"901 374 OFFCURVE",
"885 374 CURVE SMOOTH",
"709 374 LINE",
"709 418 OFFCURVE",
"716 524 OFFCURVE",
"721 541 CURVE",
"747 541 LINE SMOOTH",
"809 541 OFFCURVE",
"892 537 OFFCURVE",
"901 537 CURVE SMOOTH",
"911 537 OFFCURVE",
"917 577 OFFCURVE",
"917 606 CURVE SMOOTH",
"917 631 OFFCURVE",
"912 639 OFFCURVE",
"896 639 CURVE SMOOTH",
"365 639 LINE SMOOTH",
"180 639 OFFCURVE",
"50 568 OFFCURVE",
"50 302 CURVE SMOOTH",
"50 80 OFFCURVE",
"176 0 OFFCURVE",
"366 0 CURVE SMOOTH"
);
},
{
closed = 1;
nodes = (
"372 92 OFFCURVE",
"340 99 OFFCURVE",
"317 120 CURVE SMOOTH",
"289 146 OFFCURVE",
"276 194 OFFCURVE",
"276 281 CURVE SMOOTH",
"276 468 OFFCURVE",
"331 547 OFFCURVE",
"436 547 CURVE SMOOTH",
"503 547 LINE",
"499 398 OFFCURVE",
"487 206 OFFCURVE",
"480 92 CURVE",
"414 92 LINE SMOOTH"
);
}
);
width = 966;
}
);
leftKerningGroup = KO_O;
leftMetricsKey = O;
note = OE;
rightKerningGroup = KO_E;
rightMetricsKey = E;
unicode = 0152;
},
{
color = 1;
glyphname = P;
lastChange = "2022-10-10 19:50:14 +0000";
layers = (
{
anchors = (
{
name = bottom;
position = "{257, 0}";
},
{
name = top;
position = "{291, 652}";
}
);
layerId = "220B7CD1-1E4F-4884-BA06-A44A5DCE8B14";
paths = (
{
closed = 1;
nodes = (
"159 -13 OFFCURVE",
"161 -10 OFFCURVE",
"161 -5 CURVE SMOOTH",
"161 86 OFFCURVE",
"163 174 OFFCURVE",
"167 251 CURVE",
"173 245 OFFCURVE",
"186 244 OFFCURVE",
"222 244 CURVE SMOOTH",
"386 244 OFFCURVE",
"494 345 OFFCURVE",
"494 470 CURVE SMOOTH",
"494 575 OFFCURVE",
"420 639 OFFCURVE",
"268 639 CURVE SMOOTH",
"133 639 LINE",
"129 523 OFFCURVE",
"98 26 OFFCURVE",
"98 14 CURVE SMOOTH",
"98 -4 OFFCURVE",
"128 -13 OFFCURVE",
"151 -13 CURVE SMOOTH"
);
},
{
closed = 1;
nodes = (
"177 432 OFFCURVE",
"190 548 OFFCURVE",
"193 596 CURVE",
"210 598 OFFCURVE",
"226 602 OFFCURVE",
"253 602 CURVE SMOOTH",
"394 602 OFFCURVE",
"434 539 OFFCURVE",
"434 457 CURVE SMOOTH",
"434 401 OFFCURVE",
"412 360 OFFCURVE",
"380 331 CURVE SMOOTH",
"313 270 OFFCURVE",
"213 269 OFFCURVE",
"168 277 CURVE"
);
}
);
width = 532;
},
{
anchors = (
{
name = bottom;
position = "{265, 0}";
},
{
name = top;
position = "{299, 652}";
}
);
layerId = "63F4CE79-9D5F-46D3-B41C-385689F27F0A";
paths = (
{
closed = 1;
nodes = (
"278 -13 OFFCURVE",
"282 -4 OFFCURVE",
"282 21 CURVE SMOOTH",
"282 79 OFFCURVE",
"285 154 OFFCURVE",
"288 231 CURVE",
"293 223 OFFCURVE",
"319 204 OFFCURVE",
"339 204 CURVE SMOOTH",
"539 204 OFFCURVE",
"670 319 OFFCURVE",
"670 459 CURVE SMOOTH",
"670 571 OFFCURVE",
"601 639 OFFCURVE",
"456 639 CURVE SMOOTH",
"87 639 LINE",
"87 426 OFFCURVE",
"63 77 OFFCURVE",
"63 59 CURVE SMOOTH",
"63 9 OFFCURVE",
"170 -13 OFFCURVE",
"234 -13 CURVE SMOOTH"
);
},
{
closed = 1;
nodes = (
"289 287 OFFCURVE",
"304 541 OFFCURVE",
"305 553 CURVE",
"314 553 OFFCURVE",
"323 553 OFFCURVE",
"341 553 CURVE SMOOTH",
"410 553 OFFCURVE",
"443 498 OFFCURVE",
"443 437 CURVE SMOOTH",
"443 390 OFFCURVE",
"428 343 OFFCURVE",
"394 311 CURVE SMOOTH",
"358 278 OFFCURVE",
"320 272 OFFCURVE",
"289 272 CURVE"
);
}
);
width = 665;
}
);
leftKerningGroup = KO_H;
leftMetricsKey = "=H";
note = P;
rightKerningGroup = KO_P;
unicode = 0050;
userData = {
KernOnName = P;
};
},
{
color = 1;
glyphname = Thorn;
lastChange = "2022-10-09 03:37:15 +0000";
layers = (
{
layerId = "220B7CD1-1E4F-4884-BA06-A44A5DCE8B14";
paths = (
{
closed = 1;
nodes = (
"159 -13 OFFCURVE",
"161 -10 OFFCURVE",
"161 -5 CURVE SMOOTH",
"161 55 OFFCURVE",
"164 117 OFFCURVE",
"166 156 CURVE",
"172 150 OFFCURVE",
"185 149 OFFCURVE",
"216 149 CURVE SMOOTH",
"381 149 OFFCURVE",
"489 243 OFFCURVE",
"489 356 CURVE SMOOTH",
"489 453 OFFCURVE",
"415 511 OFFCURVE",
"263 511 CURVE SMOOTH",
"186 511 LINE",
"192 584 OFFCURVE",
"196 622 OFFCURVE",
"196 626 CURVE SMOOTH",
"196 644 OFFCURVE",
"166 652 OFFCURVE",
"143 652 CURVE SMOOTH",
"134 652 OFFCURVE",
"133 650 OFFCURVE",
"133 645 CURVE SMOOTH",
"130 537 OFFCURVE",
"98 26 OFFCURVE",
"98 14 CURVE SMOOTH",
"98 -4 OFFCURVE",
"128 -13 OFFCURVE",
"151 -13 CURVE SMOOTH"
);
},
{
closed = 1;
nodes = (
"172 322 OFFCURVE",
"178 426 OFFCURVE",
"182 470 CURVE",
"198 471 OFFCURVE",
"221 474 OFFCURVE",
"249 474 CURVE SMOOTH",
"390 474 OFFCURVE",
"432 418 OFFCURVE",
"432 345 CURVE SMOOTH",
"432 300 OFFCURVE",
"416 268 OFFCURVE",
"390 242 CURVE SMOOTH",
"322 174 OFFCURVE",
"189 174 OFFCURVE",
"166 183 CURVE"
);
}
);
width = 532;
},
{
layerId = "63F4CE79-9D5F-46D3-B41C-385689F27F0A";
paths = (
{
closed = 1;
nodes = (
"278 -13 OFFCURVE",
"283 -4 OFFCURVE",
"283 21 CURVE SMOOTH",
"283 48 OFFCURVE",
"283 80 OFFCURVE",
"284 115 CURVE",
"289 107 OFFCURVE",
"315 88 OFFCURVE",
"335 88 CURVE SMOOTH",
"521 88 OFFCURVE",
"643 203 OFFCURVE",
"643 343 CURVE SMOOTH",
"643 455 OFFCURVE",
"579 523 OFFCURVE",
"444 523 CURVE SMOOTH",
"304 523 LINE",
"306 555 OFFCURVE",
"307 576 OFFCURVE",
"307 580 CURVE SMOOTH",
"307 630 OFFCURVE",
"200 652 OFFCURVE",
"136 652 CURVE SMOOTH",
"92 652 OFFCURVE",
"87 643 OFFCURVE",
"87 618 CURVE SMOOTH",
"87 440 OFFCURVE",
"63 77 OFFCURVE",
"63 59 CURVE SMOOTH",
"63 9 OFFCURVE",
"170 -13 OFFCURVE",
"234 -13 CURVE SMOOTH"
);
},
{
closed = 1;
nodes = (
"286 171 OFFCURVE",
"298 425 OFFCURVE",
"299 437 CURVE",
"308 437 OFFCURVE",
"317 437 OFFCURVE",
"331 437 CURVE SMOOTH",
"389 437 OFFCURVE",
"416 382 OFFCURVE",
"416 321 CURVE SMOOTH",
"416 272 OFFCURVE",
"402 221 OFFCURVE",
"369 189 CURVE SMOOTH",
"349 169 OFFCURVE",
"322 156 OFFCURVE",
"286 156 CURVE"
);
}
);
width = 650;
}
);
leftKerningGroup = KO_H;
leftMetricsKey = H;
note = Thorn;
rightKerningGroup = KO_P;
unicode = 00DE;
},
{
color = 1;
glyphname = Q;
lastChange = "2022-10-10 19:50:14 +0000";
layers = (
{
layerId = "220B7CD1-1E4F-4884-BA06-A44A5DCE8B14";
paths = (
{
closed = 1;
nodes = (
"728 -85 OFFCURVE",
"740 -57 OFFCURVE",
"740 -42 CURVE SMOOTH",
"740 -39 OFFCURVE",
"739 -35 OFFCURVE",
"732 -35 CURVE SMOOTH",
"655 -35 OFFCURVE",
"553 -16 OFFCURVE",
"454 -3 CURVE",
"598 30 OFFCURVE",
"686 166 OFFCURVE",
"686 349 CURVE SMOOTH",
"686 528 OFFCURVE",
"597 652 OFFCURVE",
"379 652 CURVE SMOOTH",
"163 652 OFFCURVE",
"64 506 OFFCURVE",
"64 291 CURVE SMOOTH",
"64 139 OFFCURVE",
"129 31 OFFCURVE",
"281 -4 CURVE SMOOTH",
"393 -30 OFFCURVE",
"575 -69 OFFCURVE",
"657 -80 CURVE SMOOTH",
"683 -83 OFFCURVE",
"697 -85 OFFCURVE",
"706 -85 CURVE SMOOTH"
);
},
{
closed = 1;
nodes = (
"197 24 OFFCURVE",
"125 135 OFFCURVE",
"125 294 CURVE SMOOTH",
"125 485 OFFCURVE",
"205 615 OFFCURVE",
"378 615 CURVE SMOOTH",
"553 615 OFFCURVE",
"625 505 OFFCURVE",
"625 346 CURVE SMOOTH",
"625 154 OFFCURVE",
"545 24 OFFCURVE",
"372 24 CURVE SMOOTH"
);
}
);
width = 743;
},
{
layerId = "63F4CE79-9D5F-46D3-B41C-385689F27F0A";
paths = (
{
closed = 1;
nodes = (
"683 -152 OFFCURVE",
"759 -67 OFFCURVE",
"759 -14 CURVE SMOOTH",
"759 -4 OFFCURVE",
"756 -2 OFFCURVE",
"748 0 CURVE SMOOTH",
"706 8 OFFCURVE",
"628 35 OFFCURVE",
"596 53 CURVE",
"671 94 OFFCURVE",
"738 195 OFFCURVE",
"738 365 CURVE SMOOTH",
"738 635 OFFCURVE",
"577 652 OFFCURVE",
"421 652 CURVE SMOOTH",
"206 652 OFFCURVE",
"50 594 OFFCURVE",
"50 275 CURVE SMOOTH",
"50 107 OFFCURVE",
"125 33 OFFCURVE",
"257 0 CURVE SMOOTH",
"291 -8 OFFCURVE",
"510 -121 OFFCURVE",
"568 -140 CURVE SMOOTH",
"587 -146 OFFCURVE",
"600 -152 OFFCURVE",
"619 -152 CURVE SMOOTH"
);
},
{
closed = 1;
nodes = (
"330 50 OFFCURVE",
"278 109 OFFCURVE",
"278 269 CURVE SMOOTH",
"278 395 OFFCURVE",
"295 580 OFFCURVE",
"373 580 CURVE SMOOTH",
"458 580 OFFCURVE",
"510 520 OFFCURVE",
"510 363 CURVE SMOOTH",
"510 234 OFFCURVE",
"494 50 OFFCURVE",
"415 50 CURVE SMOOTH"
);
}
);
width = 763;
}
);
leftKerningGroup = KO_O;
leftMetricsKey = "=O";
widthMetricsKey = O;
note = Q;
rightKerningGroup = KO_Q;
unicode = 0051;
userData = {
KernOnName = Q;
};
},
{
color = 1;
glyphname = R;
lastChange = "2022-10-11 02:07:28 +0000";
layers = (
{
anchors = (
{
name = bottom;
position = "{278, 0}";
},
{
name = top;
position = "{312, 652}";
}
);
layerId = "220B7CD1-1E4F-4884-BA06-A44A5DCE8B14";
paths = (
{
closed = 1;
nodes = (
"159 -13 OFFCURVE",
"161 -10 OFFCURVE",
"161 -5 CURVE SMOOTH",
"161 112 OFFCURVE",
"164 218 OFFCURVE",
"170 307 CURVE",
"177 298 OFFCURVE",
"196 296 OFFCURVE",
"204 293 CURVE",
"254 253 OFFCURVE",
"385 125 OFFCURVE",
"492 8 CURVE SMOOTH",
"503 -4 OFFCURVE",
"513 -13 OFFCURVE",
"523 -13 CURVE SMOOTH",
"540 -13 OFFCURVE",
"566 7 OFFCURVE",
"566 14 CURVE SMOOTH",
"566 17 OFFCURVE",
"565 21 OFFCURVE",
"558 27 CURVE SMOOTH",
"542 40 OFFCURVE",
"321 262 OFFCURVE",
"278 306 CURVE",
"404 314 OFFCURVE",
"483 407 OFFCURVE",
"483 491 CURVE SMOOTH",
"483 566 OFFCURVE",
"424 639 OFFCURVE",
"282 639 CURVE SMOOTH",
"136 639 LINE",
"130 529 OFFCURVE",
"98 26 OFFCURVE",
"98 14 CURVE SMOOTH",
"98 -4 OFFCURVE",
"128 -13 OFFCURVE",
"151 -13 CURVE SMOOTH"
);
},
{
closed = 1;
nodes = (
"180 485 OFFCURVE",
"191 559 OFFCURVE",
"195 597 CURVE",
"211 600 OFFCURVE",
"226 602 OFFCURVE",
"251 602 CURVE SMOOTH",
"384 602 OFFCURVE",
"423 554 OFFCURVE",
"423 480 CURVE SMOOTH",
"423 440 OFFCURVE",
"407 411 OFFCURVE",
"383 388 CURVE SMOOTH",
"329 337 OFFCURVE",
"235 324 OFFCURVE",
"172 331 CURVE"
);
}
);
width = 566;
},
{
anchors = (
{
name = bottom;
position = "{346, 0}";
},
{
name = top;
position = "{380, 652}";
}
);
layerId = "63F4CE79-9D5F-46D3-B41C-385689F27F0A";
paths = (
{
closed = 1;
nodes = (
"278 -13 OFFCURVE",
"283 -4 OFFCURVE",
"283 21 CURVE",
"283 88 OFFCURVE",
"287 170 OFFCURVE",
"291 261 CURVE",
"301 250 OFFCURVE",
"327 239 OFFCURVE",
"336 239 CURVE",
"395 125 OFFCURVE",
"449 24 OFFCURVE",
"461 7 CURVE",
"473 -10 OFFCURVE",
"485 -13 OFFCURVE",
"510 -13 CURVE",
"562 -13 OFFCURVE",
"678 37 OFFCURVE",
"678 66 CURVE",
"678 75 OFFCURVE",
"673 80 OFFCURVE",
"659 104 CURVE",
"629 156 OFFCURVE",
"564 273 OFFCURVE",
"550 298 CURVE",
"611 327 OFFCURVE",
"671 394 OFFCURVE",
"671 478 CURVE",
"671 597 OFFCURVE",
"600 639 OFFCURVE",
"456 639 CURVE",
"87 639 LINE",
"87 426 OFFCURVE",
"63 77 OFFCURVE",
"63 59 CURVE",
"63 9 OFFCURVE",
"170 -13 OFFCURVE",
"234 -13 CURVE"
);
},
{
closed = 1;
nodes = (
"293 320 OFFCURVE",
"304 523 OFFCURVE",
"306 553 CURVE",
"318 553 OFFCURVE",
"329 553 OFFCURVE",
"341 553 CURVE",
"409 553 OFFCURVE",
"444 505 OFFCURVE",
"444 451 CURVE",
"444 411 OFFCURVE",
"431 373 OFFCURVE",
"402 344 CURVE",
"365 307 OFFCURVE",
"315 304 OFFCURVE",
"292 304 CURVE"
);
}
);
width = 693;
}
);
leftKerningGroup = KO_H;
leftMetricsKey = "=H";
note = R;
rightKerningGroup = KO_R;
unicode = 0052;
userData = {
KernOnName = R;
};
},
{
color = 1;
glyphname = Rstroke;
lastChange = "2022-10-11 14:33:28 +0000";
layers = (
{
anchors = (
{
name = bottom;
position = "{276, 0}";
},
{
name = top;
position = "{310, 652}";
}
);
layerId = "220B7CD1-1E4F-4884-BA06-A44A5DCE8B14";
paths = (
{
closed = 1;
nodes = (
"157 -13 OFFCURVE",
"159 -10 OFFCURVE",
"159 -5 CURVE SMOOTH",
"159 112 OFFCURVE",
"162 218 OFFCURVE",
"168 307 CURVE",
"175 298 OFFCURVE",
"194 296 OFFCURVE",
"202 293 CURVE",
"252 253 OFFCURVE",
"383 125 OFFCURVE",
"490 8 CURVE SMOOTH",
"501 -4 OFFCURVE",
"511 -13 OFFCURVE",
"521 -13 CURVE SMOOTH",
"538 -13 OFFCURVE",
"564 7 OFFCURVE",
"564 14 CURVE SMOOTH",
"564 17 OFFCURVE",
"563 21 OFFCURVE",
"556 27 CURVE SMOOTH",
"540 40 OFFCURVE",
"319 262 OFFCURVE",
"276 306 CURVE",
"402 314 OFFCURVE",
"481 407 OFFCURVE",
"481 491 CURVE SMOOTH",
"481 566 OFFCURVE",
"422 639 OFFCURVE",
"280 639 CURVE SMOOTH",
"134 639 LINE",
"128 529 OFFCURVE",
"96 26 OFFCURVE",
"96 14 CURVE SMOOTH",
"96 -4 OFFCURVE",
"126 -13 OFFCURVE",
"149 -13 CURVE SMOOTH"
);
},
{
closed = 1;
nodes = (
"178 485 OFFCURVE",
"189 559 OFFCURVE",
"193 597 CURVE",
"209 600 OFFCURVE",
"224 602 OFFCURVE",
"249 602 CURVE SMOOTH",
"382 602 OFFCURVE",
"421 554 OFFCURVE",
"421 480 CURVE SMOOTH",
"421 440 OFFCURVE",
"405 411 OFFCURVE",
"381 388 CURVE SMOOTH",
"327 337 OFFCURVE",
"233 324 OFFCURVE",
"170 331 CURVE"
);
},
{
closed = 1;
nodes = (
"23 293 OFFCURVE",
"140 294 OFFCURVE",
"145 294 CURVE SMOOTH",
"154 294 OFFCURVE",
"159 313 OFFCURVE",
"159 331 CURVE SMOOTH",
"159 337 OFFCURVE",
"156 341 OFFCURVE",
"151 341 CURVE",
"28 341 LINE",
"19 341 OFFCURVE",
"13 321 OFFCURVE",
"13 303 CURVE SMOOTH",
"13 297 OFFCURVE",
"15 293 OFFCURVE",
"20 293 CURVE SMOOTH"
);
}
);
width = 580;
},
{
anchors = (
{
name = bottom;
position = "{336, 0}";
},
{
name = top;
position = "{370, 652}";
}
);
layerId = "63F4CE79-9D5F-46D3-B41C-385689F27F0A";
paths = (
{
closed = 1;
nodes = (
"268 -13 OFFCURVE",
"273 -4 OFFCURVE",
"273 21 CURVE",
"273 88 OFFCURVE",
"277 170 OFFCURVE",
"281 261 CURVE",
"291 250 OFFCURVE",
"317 239 OFFCURVE",
"326 239 CURVE",
"385 125 OFFCURVE",
"439 24 OFFCURVE",
"451 7 CURVE",
"463 -10 OFFCURVE",
"475 -13 OFFCURVE",
"500 -13 CURVE",
"552 -13 OFFCURVE",
"668 37 OFFCURVE",
"668 66 CURVE",
"668 75 OFFCURVE",
"663 80 OFFCURVE",
"649 104 CURVE",
"619 156 OFFCURVE",
"554 273 OFFCURVE",
"540 298 CURVE",
"601 327 OFFCURVE",
"661 394 OFFCURVE",
"661 478 CURVE",
"661 597 OFFCURVE",
"590 639 OFFCURVE",
"446 639 CURVE",
"77 639 LINE",
"77 426 OFFCURVE",
"53 77 OFFCURVE",
"53 59 CURVE",
"53 9 OFFCURVE",
"160 -13 OFFCURVE",
"224 -13 CURVE"
);
},
{
closed = 1;
nodes = (
"283 320 OFFCURVE",
"294 523 OFFCURVE",
"296 553 CURVE",
"308 553 OFFCURVE",
"319 553 OFFCURVE",
"331 553 CURVE",
"399 553 OFFCURVE",
"434 505 OFFCURVE",
"434 451 CURVE",
"434 411 OFFCURVE",
"421 373 OFFCURVE",
"392 344 CURVE",
"355 307 OFFCURVE",
"305 304 OFFCURVE",
"282 304 CURVE"
);
},
{
closed = 1;
nodes = (
"19 294 OFFCURVE",
"206 295 OFFCURVE",
"211 295 CURVE SMOOTH",
"220 295 OFFCURVE",
"225 314 OFFCURVE",
"225 372 CURVE SMOOTH",
"225 378 OFFCURVE",
"222 382 OFFCURVE",
"217 382 CURVE",
"24 382 LINE",
"15 382 OFFCURVE",
"9 322 OFFCURVE",
"9 304 CURVE SMOOTH",
"9 298 OFFCURVE",
"11 294 OFFCURVE",
"16 294 CURVE SMOOTH"
);
}
);
width = 705;
}
);
leftKerningGroup = KO_imacron;
rightKerningGroup = KO_R;
unicode = 024C;
},
{
color = 1;
glyphname = S;
lastChange = "2022-10-11 00:58:52 +0000";
layers = (
{
anchors = (
{
name = bottom;
position = "{233, 0}";
},
{
name = top;
position = "{297, 652}";
}
);
layerId = "220B7CD1-1E4F-4884-BA06-A44A5DCE8B14";
paths = (
{
closed = 1;
nodes = (
"329 -13 OFFCURVE",
"435 59 OFFCURVE",
"435 175 CURVE SMOOTH",
"435 218 OFFCURVE",
"417 251 OFFCURVE",
"385 282 CURVE SMOOTH",
"353 313 OFFCURVE",
"252 375 OFFCURVE",
"218 409 CURVE SMOOTH",
"187 440 OFFCURVE",
"172 472 OFFCURVE",
"172 510 CURVE SMOOTH",
"172 587 OFFCURVE",
"228 613 OFFCURVE",
"264 613 CURVE SMOOTH",
"338 613 OFFCURVE",
"378 574 OFFCURVE",
"402 550 CURVE SMOOTH",
"414 538 OFFCURVE",
"421 529 OFFCURVE",
"427 529 CURVE SMOOTH",
"437 529 OFFCURVE",
"442 544 OFFCURVE",
"442 572 CURVE SMOOTH",
"442 578 OFFCURVE",
"440 587 OFFCURVE",
"434 593 CURVE SMOOTH",
"398 632 OFFCURVE",
"339 652 OFFCURVE",
"288 652 CURVE SMOOTH",
"163 652 OFFCURVE",
"113 569 OFFCURVE",
"113 487 CURVE SMOOTH",
"113 434 OFFCURVE",
"136 397 OFFCURVE",
"168 367 CURVE SMOOTH",
"215 323 OFFCURVE",
"305 272 OFFCURVE",
"339 235 CURVE SMOOTH",
"363 209 OFFCURVE",
"379 180 OFFCURVE",
"379 141 CURVE SMOOTH",
"379 61 OFFCURVE",
"304 29 OFFCURVE",
"264 29 CURVE SMOOTH",
"194 29 OFFCURVE",
"142 63 OFFCURVE",
"112 89 CURVE SMOOTH",
"94 105 OFFCURVE",
"86 117 OFFCURVE",
"82 117 CURVE SMOOTH",
"71 117 OFFCURVE",
"67 77 OFFCURVE",
"67 68 CURVE SMOOTH",
"67 63 OFFCURVE",
"68 52 OFFCURVE",
"75 45 CURVE SMOOTH",
"106 15 OFFCURVE",
"159 -13 OFFCURVE",
"242 -13 CURVE SMOOTH"
);
}
);
width = 516;
},
{
anchors = (
{
name = bottom;
position = "{269, 0}";
},
{
name = top;
position = "{305, 652}";
}
);
layerId = "63F4CE79-9D5F-46D3-B41C-385689F27F0A";
paths = (
{
closed = 1;
nodes = (
"409 -13 OFFCURVE",
"522 70 OFFCURVE",
"522 200 CURVE SMOOTH",
"522 240 OFFCURVE",
"516 285 OFFCURVE",
"477 326 CURVE SMOOTH",
"418 388 OFFCURVE",
"337 420 OFFCURVE",
"299 455 CURVE SMOOTH",
"287 466 OFFCURVE",
"282 474 OFFCURVE",
"282 489 CURVE SMOOTH",
"282 521 OFFCURVE",
"310 526 OFFCURVE",
"340 526 CURVE SMOOTH",
"396 526 OFFCURVE",
"438 507 OFFCURVE",
"468 492 CURVE SMOOTH",
"480 486 OFFCURVE",
"492 483 OFFCURVE",
"502 483 CURVE SMOOTH",
"517 483 OFFCURVE",
"526 511 OFFCURVE",
"526 551 CURVE SMOOTH",
"526 576 OFFCURVE",
"522 592 OFFCURVE",
"498 608 CURVE SMOOTH",
"443 645 OFFCURVE",
"366 652 OFFCURVE",
"302 652 CURVE SMOOTH",
"163 652 OFFCURVE",
"70 560 OFFCURVE",
"70 437 CURVE SMOOTH",
"70 392 OFFCURVE",
"81 342 OFFCURVE",
"134 293 CURVE SMOOTH",
"180 251 OFFCURVE",
"246 225 OFFCURVE",
"285 186 CURVE SMOOTH",
"301 170 OFFCURVE",
"306 158 OFFCURVE",
"306 146 CURVE SMOOTH",
"306 124 OFFCURVE",
"280 112 OFFCURVE",
"241 112 CURVE SMOOTH",
"193 112 OFFCURVE",
"146 130 OFFCURVE",
"121 141 CURVE SMOOTH",
"100 150 OFFCURVE",
"84 155 OFFCURVE",
"74 155 CURVE SMOOTH",
"58 155 OFFCURVE",
"48 127 OFFCURVE",
"48 87 CURVE SMOOTH",
"48 58 OFFCURVE",
"53 41 OFFCURVE",
"90 23 CURVE SMOOTH",
"140 -1 OFFCURVE",
"194 -13 OFFCURVE",
"280 -13 CURVE SMOOTH"
);
}
);
width = 574;
}
);
leftKerningGroup = KO_S;
note = S;
rightKerningGroup = KO_S;
unicode = 0053;
},
{
color = 1;
glyphname = Saltillo;
lastChange = "2022-10-09 03:58:58 +0000";
layers = (
{
layerId = "220B7CD1-1E4F-4884-BA06-A44A5DCE8B14";
paths = (
{
closed = 1;
nodes = (
"164 203 OFFCURVE",
"166 206 OFFCURVE",
"166 211 CURVE SMOOTH",
"166 533 OFFCURVE",
"192 612 OFFCURVE",
"192 626 CURVE SMOOTH",
"192 644 OFFCURVE",
"162 652 OFFCURVE",
"139 652 CURVE SMOOTH",
"130 652 OFFCURVE",
"129 650 OFFCURVE",
"129 645 CURVE SMOOTH",
"126 537 OFFCURVE",
"103 242 OFFCURVE",
"103 230 CURVE SMOOTH",
"103 212 OFFCURVE",
"133 203 OFFCURVE",
"156 203 CURVE SMOOTH"
);
}
);
width = 281;
},
{
layerId = "63F4CE79-9D5F-46D3-B41C-385689F27F0A";
paths = (
{
closed = 1;
nodes = (
"280 197 OFFCURVE",
"285 206 OFFCURVE",
"285 231 CURVE SMOOTH",
"285 409 OFFCURVE",
"309 562 OFFCURVE",
"309 579 CURVE SMOOTH",
"309 630 OFFCURVE",
"202 652 OFFCURVE",
"138 652 CURVE SMOOTH",
"94 652 OFFCURVE",
"89 643 OFFCURVE",
"89 618 CURVE SMOOTH",
"89 440 OFFCURVE",
"65 287 OFFCURVE",
"65 269 CURVE SMOOTH",
"65 219 OFFCURVE",
"172 197 OFFCURVE",
"236 197 CURVE SMOOTH"
);
}
);
width = 344;
}
);
leftKerningGroup = KO_v;
leftMetricsKey = I;
rightKerningGroup = KO_F;
rightMetricsKey = I;
unicode = A78B;
},
{
color = 1;
glyphname = Germandbls;
lastChange = "2022-09-26 01:35:25 +0000";
layers = (
{
layerId = "220B7CD1-1E4F-4884-BA06-A44A5DCE8B14";
paths = (
{
closed = 1;
nodes = (
"100 -13 OFFCURVE",
"101 -11 OFFCURVE",
"101 -6 CURVE SMOOTH",
"106 346 OFFCURVE",
"120 475 OFFCURVE",
"182 540 CURVE SMOOTH",
"214 574 OFFCURVE",
"270 612 OFFCURVE",
"349 612 CURVE SMOOTH",
"430 612 OFFCURVE",
"474 606 OFFCURVE",
"515 600 CURVE",
"477 555 OFFCURVE",
"388 470 OFFCURVE",
"348 423 CURVE SMOOTH",
"337 409 OFFCURVE",
"334 394 OFFCURVE",
"342 383 CURVE",
"343 379 OFFCURVE",
"346 376 OFFCURVE",
"350 372 CURVE SMOOTH",
"401 328 OFFCURVE",
"461 280 OFFCURVE",
"498 243 CURVE SMOOTH",
"524 217 OFFCURVE",
"534 180 OFFCURVE",
"536 141 CURVE SMOOTH",
"542 61 OFFCURVE",
"469 29 OFFCURVE",
"429 29 CURVE SMOOTH",
"359 29 OFFCURVE",
"308 57 OFFCURVE",
"276 83 CURVE SMOOTH",
"257 99 OFFCURVE",
"245 114 OFFCURVE",
"241 114 CURVE SMOOTH",
"230 114 OFFCURVE",
"229 77 OFFCURVE",
"230 68 CURVE SMOOTH",
"230 63 OFFCURVE",
"232 52 OFFCURVE",
"239 45 CURVE SMOOTH",
"272 15 OFFCURVE",
"327 -13 OFFCURVE",
"410 -13 CURVE SMOOTH",
"497 -13 OFFCURVE",
"598 59 OFFCURVE",
"590 175 CURVE SMOOTH",
"587 218 OFFCURVE",
"567 251 OFFCURVE",
"533 282 CURVE SMOOTH",
"500 312 OFFCURVE",
"427 372 OFFCURVE",
"390 406 CURVE",
"426 450 OFFCURVE",
"532 557 OFFCURVE",
"557 581 CURVE SMOOTH",
"565 589 OFFCURVE",
"564 604 OFFCURVE",
"564 611 CURVE SMOOTH",
"563 625 OFFCURVE",
"558 639 OFFCURVE",
"549 639 CURVE",
"485 652 OFFCURVE",
"428 652 OFFCURVE",
"365 652 CURVE SMOOTH",
"254 652 OFFCURVE",
"195 613 OFFCURVE",
"151 571 CURVE SMOOTH",
"63 484 OFFCURVE",
"45 322 OFFCURVE",
"38 13 CURVE SMOOTH",
"38 -5 OFFCURVE",
"70 -13 OFFCURVE",
"91 -13 CURVE SMOOTH"
);
}
);
width = 614;
},
{
background = {
paths = (
{
closed = 1;
nodes = (
"156 -13 OFFCURVE",
"157 -11 OFFCURVE",
"157 -6 CURVE SMOOTH",
"187 346 OFFCURVE",
"210 475 OFFCURVE",
"276 540 CURVE SMOOTH",
"311 574 OFFCURVE",
"359 612 OFFCURVE",
"438 612 CURVE SMOOTH",
"519 612 OFFCURVE",
"554 606 OFFCURVE",
"595 600 CURVE",
"553 555 OFFCURVE",
"465 465 OFFCURVE",
"422 418 CURVE SMOOTH",
"410 404 OFFCURVE",
"412 392 OFFCURVE",
"419 381 CURVE",
"420 377 OFFCURVE",
"423 374 OFFCURVE",
"427 370 CURVE SMOOTH",
"474 326 OFFCURVE",
"534 275 OFFCURVE",
"568 238 CURVE SMOOTH",
"592 212 OFFCURVE",
"603 180 OFFCURVE",
"603 141 CURVE SMOOTH",
"603 61 OFFCURVE",
"528 29 OFFCURVE",
"488 29 CURVE SMOOTH",
"418 29 OFFCURVE",
"366 63 OFFCURVE",
"336 89 CURVE SMOOTH",
"318 105 OFFCURVE",
"310 117 OFFCURVE",
"306 117 CURVE SMOOTH",
"295 117 OFFCURVE",
"291 77 OFFCURVE",
"291 68 CURVE SMOOTH",
"291 63 OFFCURVE",
"292 52 OFFCURVE",
"299 45 CURVE SMOOTH",
"330 15 OFFCURVE",
"383 -13 OFFCURVE",
"466 -13 CURVE SMOOTH",
"553 -13 OFFCURVE",
"659 59 OFFCURVE",
"659 175 CURVE SMOOTH",
"659 218 OFFCURVE",
"641 251 OFFCURVE",
"609 282 CURVE SMOOTH",
"578 312 OFFCURVE",
"510 372 OFFCURVE",
"475 406 CURVE",
"514 450 OFFCURVE",
"618 557 OFFCURVE",
"644 581 CURVE SMOOTH",
"653 589 OFFCURVE",
"653 604 OFFCURVE",
"653 611 CURVE SMOOTH",
"653 625 OFFCURVE",
"649 639 OFFCURVE",
"640 639 CURVE",
"577 652 OFFCURVE",
"520 652 OFFCURVE",
"457 652 CURVE SMOOTH",
"346 652 OFFCURVE",
"294 613 OFFCURVE",
"248 571 CURVE SMOOTH",
"153 484 OFFCURVE",
"134 322 OFFCURVE",
"106 13 CURVE SMOOTH",
"104 -5 OFFCURVE",
"126 -13 OFFCURVE",
"147 -13 CURVE SMOOTH"
);
}
);
};
layerId = "63F4CE79-9D5F-46D3-B41C-385689F27F0A";
paths = (
{
closed = 1;
nodes = (
"248 -9 OFFCURVE",
"263 0 OFFCURVE",
"264 26 CURVE SMOOTH",
"284 344 OFFCURVE",
"297 423 OFFCURVE",
"311 457 CURVE SMOOTH",
"334 513 OFFCURVE",
"383 559 OFFCURVE",
"426 559 CURVE SMOOTH",
"493 559 OFFCURVE",
"506 545 OFFCURVE",
"523 538 CURVE SMOOTH",
"470 484 OFFCURVE",
"408 433 OFFCURVE",
"393 410 CURVE SMOOTH",
"388 402 OFFCURVE",
"371 381 OFFCURVE",
"372 363 CURVE SMOOTH",
"374 344 OFFCURVE",
"396 322 OFFCURVE",
"404 315 CURVE SMOOTH",
"445 283 OFFCURVE",
"458 271 OFFCURVE",
"510 231 CURVE SMOOTH",
"543 205 OFFCURVE",
"555 175 OFFCURVE",
"556 152 CURVE SMOOTH",
"559 99 OFFCURVE",
"518 66 OFFCURVE",
"501 66 CURVE SMOOTH",
"462 66 OFFCURVE",
"433 85 OFFCURVE",
"401 104 CURVE SMOOTH",
"379 119 OFFCURVE",
"360 152 OFFCURVE",
"344 152 CURVE SMOOTH",
"324 152 OFFCURVE",
"312 124 OFFCURVE",
"316 59 CURVE SMOOTH",
"317 44 OFFCURVE",
"326 31 OFFCURVE",
"349 20 CURVE SMOOTH",
"379 7 OFFCURVE",
"415 -10 OFFCURVE",
"483 -10 CURVE SMOOTH",
"625 -10 OFFCURVE",
"757 75 OFFCURVE",
"751 184 CURVE SMOOTH",
"749 234 OFFCURVE",
"733 290 OFFCURVE",
"667 335 CURVE SMOOTH",
"632 360 OFFCURVE",
"608 378 OFFCURVE",
"567 406 CURVE SMOOTH",
"620 463 OFFCURVE",
"687 515 OFFCURVE",
"707 538 CURVE SMOOTH",
"718 552 OFFCURVE",
"725 567 OFFCURVE",
"724 595 CURVE SMOOTH",
"722 619 OFFCURVE",
"714 626 OFFCURVE",
"696 630 CURVE SMOOTH",
"648 638 OFFCURVE",
"538 652 OFFCURVE",
"440 652 CURVE SMOOTH",
"331 652 OFFCURVE",
"236 624 OFFCURVE",
"178 571 CURVE SMOOTH",
"64 469 OFFCURVE",
"49 415 OFFCURVE",
"33 35 CURVE SMOOTH",
"32 3 OFFCURVE",
"158 -9 OFFCURVE",
"208 -9 CURVE SMOOTH"
);
}
);
width = 784;
}
);
leftKerningGroup = KO_Germandbls;
unicode = 1E9E;
},
{
color = 1;
glyphname = Schwa;
lastChange = "2022-10-10 19:19:56 +0000";
layers = (
{
layerId = "220B7CD1-1E4F-4884-BA06-A44A5DCE8B14";
paths = (
{
closed = 1;
nodes = (
"367 5 OFFCURVE",
"459 135 OFFCURVE",
"459 365 CURVE SMOOTH",
"459 545 OFFCURVE",
"386 645 OFFCURVE",
"254 645 CURVE SMOOTH",
"172 645 OFFCURVE",
"102 615 OFFCURVE",
"47 556 CURVE SMOOTH",
"41 550 OFFCURVE",
"40 547 OFFCURVE",
"40 541 CURVE SMOOTH",
"40 530 OFFCURVE",
"46 514 OFFCURVE",
"49 514 CURVE SMOOTH",
"50 514 OFFCURVE",
"51 514 OFFCURVE",
"62 525 CURVE SMOOTH",
"105 568 OFFCURVE",
"174 603 OFFCURVE",
"234 603 CURVE SMOOTH",
"339 603 OFFCURVE",
"397 515 OFFCURVE",
"397 359 CURVE SMOOTH",
"397 317 OFFCURVE",
"396 298 OFFCURVE",
"394 291 CURVE SMOOTH",
"388 288 LINE SMOOTH",
"357 295 OFFCURVE",
"309 301 OFFCURVE",
"259 301 CURVE SMOOTH",
"160 301 OFFCURVE",
"42 255 OFFCURVE",
"42 134 CURVE SMOOTH",
"42 52 OFFCURVE",
"101 5 OFFCURVE",
"202 5 CURVE SMOOTH"
);
},
{
closed = 1;
nodes = (
"152 34 OFFCURVE",
"111 71 OFFCURVE",
"111 131 CURVE SMOOTH",
"111 216 OFFCURVE",
"165 264 OFFCURVE",
"261 264 CURVE SMOOTH",
"309 264 OFFCURVE",
"371 248 OFFCURVE",
"380 234 CURVE SMOOTH",
"381 230 LINE SMOOTH",
"359 107 OFFCURVE",
"298 34 OFFCURVE",
"217 34 CURVE SMOOTH"
);
}
);
width = 516;
},
{
background = {
paths = (
{
closed = 1;
nodes = (
"455 5 OFFCURVE",
"547 135 OFFCURVE",
"547 365 CURVE SMOOTH",
"547 545 OFFCURVE",
"474 645 OFFCURVE",
"342 645 CURVE SMOOTH",
"260 645 OFFCURVE",
"190 615 OFFCURVE",
"135 556 CURVE SMOOTH",
"129 550 OFFCURVE",
"128 547 OFFCURVE",
"128 541 CURVE SMOOTH",
"128 530 OFFCURVE",
"134 514 OFFCURVE",
"137 514 CURVE SMOOTH",
"138 514 OFFCURVE",
"139 514 OFFCURVE",
"150 525 CURVE SMOOTH",
"193 568 OFFCURVE",
"262 603 OFFCURVE",
"322 603 CURVE SMOOTH",
"427 603 OFFCURVE",
"485 515 OFFCURVE",
"485 359 CURVE SMOOTH",
"485 317 OFFCURVE",
"484 298 OFFCURVE",
"482 291 CURVE",
"476 288 LINE",
"445 295 OFFCURVE",
"397 301 OFFCURVE",
"347 301 CURVE SMOOTH",
"248 301 OFFCURVE",
"130 255 OFFCURVE",
"130 134 CURVE SMOOTH",
"130 52 OFFCURVE",
"189 5 OFFCURVE",
"290 5 CURVE SMOOTH"
);
},
{
closed = 1;
nodes = (
"240 34 OFFCURVE",
"199 71 OFFCURVE",
"199 131 CURVE SMOOTH",
"199 216 OFFCURVE",
"253 264 OFFCURVE",
"349 264 CURVE SMOOTH",
"397 264 OFFCURVE",
"459 248 OFFCURVE",
"468 234 CURVE",
"469 230 LINE",
"447 107 OFFCURVE",
"386 34 OFFCURVE",
"305 34 CURVE SMOOTH"
);
}
);
};
layerId = "63F4CE79-9D5F-46D3-B41C-385689F27F0A";
paths = (
{
closed = 1;
nodes = (
"500 -14 OFFCURVE",
"657 45 OFFCURVE",
"657 365 CURVE SMOOTH",
"657 558 OFFCURVE",
"544 652 OFFCURVE",
"340 652 CURVE SMOOTH",
"205 652 OFFCURVE",
"91 586 OFFCURVE",
"55 550 CURVE SMOOTH",
"41 536 OFFCURVE",
"36 526 OFFCURVE",
"36 517 CURVE SMOOTH",
"36 459 OFFCURVE",
"44 430 OFFCURVE",
"67 430 CURVE SMOOTH",
"75 430 OFFCURVE",
"88 431 OFFCURVE",
"97 439 CURVE SMOOTH",
"157 496 OFFCURVE",
"232 527 OFFCURVE",
"292 527 CURVE SMOOTH",
"377 527 OFFCURVE",
"428 502 OFFCURVE",
"428 389 CURVE SMOOTH",
"428 372 OFFCURVE",
"429 321 OFFCURVE",
"428 315 CURVE",
"420 309 LINE",
"410 311 OFFCURVE",
"365 315 OFFCURVE",
"306 315 CURVE SMOOTH",
"82 315 OFFCURVE",
"20 239 OFFCURVE",
"20 134 CURVE SMOOTH",
"20 43 OFFCURVE",
"128 -14 OFFCURVE",
"292 -14 CURVE SMOOTH"
);
},
{
closed = 1;
nodes = (
"284 49 OFFCURVE",
"259 93 OFFCURVE",
"259 131 CURVE SMOOTH",
"259 210 OFFCURVE",
"304 249 OFFCURVE",
"364 249 CURVE SMOOTH",
"388 249 OFFCURVE",
"411 241 OFFCURVE",
"419 234 CURVE",
"421 227 LINE",
"402 96 OFFCURVE",
"351 49 OFFCURVE",
"320 49 CURVE SMOOTH"
);
}
);
width = 682;
}
);
leftKerningGroup = KO_Schwa;
rightKerningGroup = KO_O;
rightMetricsKey = O;
unicode = 018F;
},
{
color = 1;
glyphname = T;
lastChange = "2022-10-11 01:02:28 +0000";
layers = (
{
anchors = (
{
name = bottom;
position = "{240, 0}";
},
{
name = center;
position = "{280, 326}";
},
{
name = top;
position = "{277, 652}";
}
);
layerId = "220B7CD1-1E4F-4884-BA06-A44A5DCE8B14";
paths = (
{
closed = 1;
nodes = (
"272 -13 OFFCURVE",
"274 -10 OFFCURVE",
"274 -5 CURVE SMOOTH",
"274 264 OFFCURVE",
"296 514 OFFCURVE",
"304 596 CURVE",
"310 596 LINE",
"442 596 OFFCURVE",
"504 588 OFFCURVE",
"514 588 CURVE SMOOTH",
"524 588 OFFCURVE",
"529 607 OFFCURVE",
"529 630 CURVE SMOOTH",
"529 638 OFFCURVE",
"527 639 OFFCURVE",
"522 639 CURVE SMOOTH",
"39 639 LINE SMOOTH",
"29 639 OFFCURVE",
"24 620 OFFCURVE",
"24 597 CURVE SMOOTH",
"24 590 OFFCURVE",
"27 588 OFFCURVE",
"32 588 CURVE SMOOTH",
"43 588 OFFCURVE",
"94 596 OFFCURVE",
"237 596 CURVE",
"243 596 LINE",
"238 358 OFFCURVE",
"211 24 OFFCURVE",
"211 14 CURVE SMOOTH",
"211 -4 OFFCURVE",
"241 -13 OFFCURVE",
"263 -13 CURVE SMOOTH"
);
}
);
width = 507;
},
{
anchors = (
{
name = bottom;
position = "{262, 0}";
},
{
name = center;
position = "{281, 326}";
},
{
name = top;
position = "{303, 652}";
}
);
layerId = "63F4CE79-9D5F-46D3-B41C-385689F27F0A";
paths = (
{
closed = 1;
nodes = (
"376 -13 OFFCURVE",
"381 -4 OFFCURVE",
"381 21 CURVE",
"381 157 OFFCURVE",
"395 401 OFFCURVE",
"402 514 CURVE",
"405 514 LINE",
"418 514 OFFCURVE",
"531 505 OFFCURVE",
"540 505 CURVE",
"550 505 OFFCURVE",
"556 570 OFFCURVE",
"556 599 CURVE",
"556 624 OFFCURVE",
"552 639 OFFCURVE",
"536 639 CURVE",
"55 639 LINE",
"41 639 OFFCURVE",
"28 603 OFFCURVE",
"28 550 CURVE",
"28 526 OFFCURVE",
"32 505 OFFCURVE",
"40 505 CURVE",
"49 505 OFFCURVE",
"150 514 OFFCURVE",
"179 514 CURVE",
"183 514 LINE",
"178 327 OFFCURVE",
"161 74 OFFCURVE",
"161 59 CURVE",
"161 9 OFFCURVE",
"268 -13 OFFCURVE",
"332 -13 CURVE"
);
}
);
width = 541;
}
);
leftKerningGroup = KO_T;
note = T;
rightKerningGroup = KO_T;
unicode = 0054;
userData = {
KernOnName = T;
};
},
{
color = 1;
glyphname = Tbar;
lastChange = "2022-10-09 03:58:58 +0000";
layers = (
{
layerId = "220B7CD1-1E4F-4884-BA06-A44A5DCE8B14";
paths = (
{
closed = 1;
nodes = (
"272 -13 OFFCURVE",
"274 -10 OFFCURVE",
"274 -5 CURVE SMOOTH",
"274 264 OFFCURVE",
"296 514 OFFCURVE",
"304 596 CURVE",
"311 596 LINE",
"442 596 OFFCURVE",
"504 588 OFFCURVE",
"514 588 CURVE SMOOTH",
"524 588 OFFCURVE",
"529 607 OFFCURVE",
"529 630 CURVE SMOOTH",
"529 638 OFFCURVE",
"527 639 OFFCURVE",
"522 639 CURVE SMOOTH",
"39 639 LINE SMOOTH",
"29 639 OFFCURVE",
"24 620 OFFCURVE",
"24 597 CURVE SMOOTH",
"24 590 OFFCURVE",
"27 588 OFFCURVE",
"32 588 CURVE SMOOTH",
"43 588 OFFCURVE",
"94 596 OFFCURVE",
"235 596 CURVE",
"243 596 LINE",
"238 358 OFFCURVE",
"211 24 OFFCURVE",
"211 14 CURVE SMOOTH",
"211 -4 OFFCURVE",
"241 -13 OFFCURVE",
"263 -13 CURVE SMOOTH"
);
},
{
closed = 1;
nodes = (
"70 341 OFFCURVE",
"166 341 OFFCURVE",
"263 342 CURVE SMOOTH",
"360 342 OFFCURVE",
"457 342 OFFCURVE",
"459 342 CURVE SMOOTH",
"468 342 OFFCURVE",
"473 356 OFFCURVE",
"473 374 CURVE SMOOTH",
"473 380 OFFCURVE",
"470 384 OFFCURVE",
"465 384 CURVE",
"76 384 LINE",
"67 384 OFFCURVE",
"61 369 OFFCURVE",
"61 351 CURVE SMOOTH",
"61 345 OFFCURVE",
"63 341 OFFCURVE",
"68 341 CURVE SMOOTH"
);
}
);
width = 507;
},
{
layerId = "63F4CE79-9D5F-46D3-B41C-385689F27F0A";
paths = (
{
closed = 1;
nodes = (
"376 -13 OFFCURVE",
"381 -4 OFFCURVE",
"381 21 CURVE",
"381 157 OFFCURVE",
"395 401 OFFCURVE",
"402 514 CURVE",
"405 514 LINE",
"418 514 OFFCURVE",
"531 505 OFFCURVE",
"540 505 CURVE",
"550 505 OFFCURVE",
"556 570 OFFCURVE",
"556 599 CURVE",
"556 624 OFFCURVE",
"552 639 OFFCURVE",
"536 639 CURVE",
"55 639 LINE",
"41 639 OFFCURVE",
"28 603 OFFCURVE",
"28 550 CURVE",
"28 526 OFFCURVE",
"32 505 OFFCURVE",
"40 505 CURVE",
"49 505 OFFCURVE",
"150 514 OFFCURVE",
"179 514 CURVE",
"183 514 LINE",
"178 327 OFFCURVE",
"161 74 OFFCURVE",
"161 59 CURVE",
"161 9 OFFCURVE",
"268 -13 OFFCURVE",
"332 -13 CURVE"
);
},
{
closed = 1;
nodes = (
"202 276 OFFCURVE",
"263 280 OFFCURVE",
"294 280 CURVE SMOOTH",
"333 280 OFFCURVE",
"371 276 OFFCURVE",
"500 276 CURVE SMOOTH",
"515 276 OFFCURVE",
"526 298 OFFCURVE",
"526 334 CURVE SMOOTH",
"526 357 OFFCURVE",
"523 360 OFFCURVE",
"513 360 CURVE SMOOTH",
"84 360 LINE SMOOTH",
"69 360 OFFCURVE",
"58 338 OFFCURVE",
"58 302 CURVE SMOOTH",
"58 279 OFFCURVE",
"61 276 OFFCURVE",
"71 276 CURVE SMOOTH"
);
}
);
width = 541;
}
);
leftKerningGroup = KO_V;
leftMetricsKey = T;
rightKerningGroup = KO_W;
rightMetricsKey = T;
unicode = 0166;
},
{
color = 1;
glyphname = U;
lastChange = "2022-10-11 01:44:59 +0000";
layers = (
{
anchors = (
{
name = bottom;
position = "{348, 0}";
},
{
name = ogonek;
position = "{385, 0}";
},
{
name = top;
position = "{384, 652}";
},
{
name = topright;
position = "{636, 608}";
}
);
layerId = "220B7CD1-1E4F-4884-BA06-A44A5DCE8B14";
paths = (
{
closed = 1;
nodes = (
"421 -13 OFFCURVE",
"483 6 OFFCURVE",
"529 48 CURVE SMOOTH",
"624 135 OFFCURVE",
"653 317 OFFCURVE",
"653 626 CURVE SMOOTH",
"653 644 OFFCURVE",
"631 652 OFFCURVE",
"610 652 CURVE SMOOTH",
"601 652 OFFCURVE",
"600 650 OFFCURVE",
"600 645 CURVE SMOOTH",
"600 293 OFFCURVE",
"567 144 OFFCURVE",
"501 79 CURVE SMOOTH",
"466 45 OFFCURVE",
"408 27 OFFCURVE",
"359 27 CURVE SMOOTH",
"298 27 OFFCURVE",
"243 42 OFFCURVE",
"207 80 CURVE SMOOTH",
"164 125 OFFCURVE",
"148 212 OFFCURVE",
"148 307 CURVE SMOOTH",
"148 411 OFFCURVE",
"166 589 OFFCURVE",
"166 626 CURVE SMOOTH",
"166 644 OFFCURVE",
"136 652 OFFCURVE",
"113 652 CURVE SMOOTH",
"104 652 OFFCURVE",
"103 650 OFFCURVE",
"103 645 CURVE SMOOTH",
"103 635 OFFCURVE",
"87 456 OFFCURVE",
"87 298 CURVE SMOOTH",
"87 195 OFFCURVE",
"101 104 OFFCURVE",
"151 53 CURVE SMOOTH",
"193 10 OFFCURVE",
"267 -13 OFFCURVE",
"340 -13 CURVE SMOOTH"
);
}
);
width = 708;
},
{
anchors = (
{
name = bottom;
position = "{374, 0}";
},
{
name = ogonek;
position = "{617, 10}";
},
{
name = top;
position = "{408, 652}";
},
{
name = topright;
position = "{658, 608}";
}
);
layerId = "63F4CE79-9D5F-46D3-B41C-385689F27F0A";
paths = (
{
closed = 1;
nodes = (
"453 -13 OFFCURVE",
"529 13 OFFCURVE",
"583 64 CURVE SMOOTH",
"679 155 OFFCURVE",
"708 327 OFFCURVE",
"708 580 CURVE SMOOTH",
"708 630 OFFCURVE",
"642 652 OFFCURVE",
"603 652 CURVE SMOOTH",
"576 652 OFFCURVE",
"573 643 OFFCURVE",
"573 618 CURVE SMOOTH",
"573 343 OFFCURVE",
"548 201 OFFCURVE",
"506 145 CURVE SMOOTH",
"484 116 OFFCURVE",
"450 99 OFFCURVE",
"420 99 CURVE SMOOTH",
"384 99 OFFCURVE",
"350 112 OFFCURVE",
"328 146 CURVE SMOOTH",
"302 186 OFFCURVE",
"295 264 OFFCURVE",
"295 347 CURVE SMOOTH",
"295 420 OFFCURVE",
"310 569 OFFCURVE",
"310 580 CURVE SMOOTH",
"310 630 OFFCURVE",
"203 652 OFFCURVE",
"139 652 CURVE SMOOTH",
"95 652 OFFCURVE",
"93 643 OFFCURVE",
"90 618 CURVE SMOOTH",
"89 608 OFFCURVE",
"74 447 OFFCURVE",
"72 298 CURVE SMOOTH",
"71 195 OFFCURVE",
"84 105 OFFCURVE",
"139 55 CURVE SMOOTH",
"187 12 OFFCURVE",
"266 -13 OFFCURVE",
"348 -13 CURVE SMOOTH"
);
}
);
width = 700;
}
);
leftKerningGroup = KO_U;
note = U;
rightKerningGroup = KO_U;
unicode = 0055;
},
{
color = 7;
glyphname = Ubar;
lastChange = "2022-10-09 04:12:53 +0000";
layers = (
{
anchors = (
{
name = bottom;
position = "{354, 0}";
},
{
name = ogonek;
position = "{391, 0}";
},
{
name = top;
position = "{390, 652}";
},
{
name = topright;
position = "{690, 652}";
}
);
layerId = "220B7CD1-1E4F-4884-BA06-A44A5DCE8B14";
paths = (
{
closed = 1;
nodes = (
"427 -13 OFFCURVE",
"489 6 OFFCURVE",
"535 48 CURVE SMOOTH",
"630 135 OFFCURVE",
"659 317 OFFCURVE",
"659 626 CURVE SMOOTH",
"659 644 OFFCURVE",
"637 652 OFFCURVE",
"616 652 CURVE SMOOTH",
"607 652 OFFCURVE",
"606 650 OFFCURVE",
"606 645 CURVE SMOOTH",
"606 293 OFFCURVE",
"573 144 OFFCURVE",
"507 79 CURVE SMOOTH",
"472 45 OFFCURVE",
"414 27 OFFCURVE",
"365 27 CURVE SMOOTH",
"304 27 OFFCURVE",
"249 42 OFFCURVE",
"213 80 CURVE SMOOTH",
"170 125 OFFCURVE",
"154 212 OFFCURVE",
"154 307 CURVE SMOOTH",
"154 411 OFFCURVE",
"172 589 OFFCURVE",
"172 626 CURVE SMOOTH",
"172 644 OFFCURVE",
"142 652 OFFCURVE",
"119 652 CURVE SMOOTH",
"110 652 OFFCURVE",
"109 650 OFFCURVE",
"109 645 CURVE SMOOTH",
"109 635 OFFCURVE",
"93 456 OFFCURVE",
"93 298 CURVE SMOOTH",
"93 195 OFFCURVE",
"107 104 OFFCURVE",
"157 53 CURVE SMOOTH",
"199 10 OFFCURVE",
"273 -13 OFFCURVE",
"346 -13 CURVE SMOOTH"
);
},
{
closed = 1;
nodes = (
"36 455 OFFCURVE",
"213 458 OFFCURVE",
"389 459 CURVE SMOOTH",
"562 459 OFFCURVE",
"715 456 OFFCURVE",
"717 456 CURVE",
"726 456 OFFCURVE",
"731 475 OFFCURVE",
"731 489 CURVE SMOOTH",
"731 495 OFFCURVE",
"728 499 OFFCURVE",
"723 499 CURVE",
"42 499 LINE",
"33 499 OFFCURVE",
"27 483 OFFCURVE",
"27 465 CURVE SMOOTH",
"27 459 OFFCURVE",
"29 455 OFFCURVE",
"34 455 CURVE"
);
}
);
width = 720;
},
{
anchors = (
{
name = bottom;
position = "{379, 0}";
},
{
name = ogonek;
position = "{622, 10}";
},
{
name = top;
position = "{413, 652}";
},
{
name = topright;
position = "{705, 652}";
}
);
layerId = "63F4CE79-9D5F-46D3-B41C-385689F27F0A";
paths = (
{
closed = 1;
nodes = (
"458 -13 OFFCURVE",
"534 13 OFFCURVE",
"588 64 CURVE SMOOTH",
"684 155 OFFCURVE",
"713 327 OFFCURVE",
"713 580 CURVE SMOOTH",
"713 630 OFFCURVE",
"647 652 OFFCURVE",
"608 652 CURVE SMOOTH",
"581 652 OFFCURVE",
"578 643 OFFCURVE",
"578 618 CURVE SMOOTH",
"578 343 OFFCURVE",
"553 201 OFFCURVE",
"511 145 CURVE SMOOTH",
"489 116 OFFCURVE",
"455 99 OFFCURVE",
"425 99 CURVE SMOOTH",
"389 99 OFFCURVE",
"355 112 OFFCURVE",
"333 146 CURVE SMOOTH",
"307 186 OFFCURVE",
"300 264 OFFCURVE",
"300 347 CURVE SMOOTH",
"300 420 OFFCURVE",
"315 569 OFFCURVE",
"315 580 CURVE SMOOTH",
"315 630 OFFCURVE",
"208 652 OFFCURVE",
"144 652 CURVE SMOOTH",
"100 652 OFFCURVE",
"98 643 OFFCURVE",
"95 618 CURVE SMOOTH",
"94 608 OFFCURVE",
"79 447 OFFCURVE",
"77 298 CURVE SMOOTH",
"76 195 OFFCURVE",
"89 105 OFFCURVE",
"144 55 CURVE SMOOTH",
"192 12 OFFCURVE",
"271 -13 OFFCURVE",
"353 -13 CURVE SMOOTH"
);
},
{
closed = 1;
nodes = (
"172 415 OFFCURVE",
"303 419 OFFCURVE",
"434 419 CURVE SMOOTH",
"563 419 OFFCURVE",
"621 415 OFFCURVE",
"750 415 CURVE SMOOTH",
"765 415 OFFCURVE",
"776 437 OFFCURVE",
"776 473 CURVE SMOOTH",
"776 496 OFFCURVE",
"773 499 OFFCURVE",
"763 499 CURVE SMOOTH",
"54 499 LINE",
"39 499 OFFCURVE",
"28 477 OFFCURVE",
"28 441 CURVE SMOOTH",
"28 418 OFFCURVE",
"31 415 OFFCURVE",
"41 415 CURVE"
);
}
);
width = 756;
}
);
leftKerningGroup = KO_U;
rightKerningGroup = KO_W;
unicode = 0244;
},
{
color = 1;
glyphname = V;
lastChange = "2022-10-11 01:01:52 +0000";
layers = (
{
anchors = (
{
name = bottom;
position = "{280, 0}";
},
{
name = top;
position = "{337, 652}";
}
);
layerId = "220B7CD1-1E4F-4884-BA06-A44A5DCE8B14";
paths = (
{
closed = 1;
nodes = (
"300 -13 OFFCURVE",
"302 -11 OFFCURVE",
"305 -6 CURVE SMOOTH",
"365 107 OFFCURVE",
"583 558 OFFCURVE",
"608 613 CURVE SMOOTH",
"610 617 OFFCURVE",
"613 623 OFFCURVE",
"613 626 CURVE SMOOTH",
"613 641 OFFCURVE",
"590 652 OFFCURVE",
"569 652 CURVE SMOOTH",
"564 652 OFFCURVE",
"561 651 OFFCURVE",
"559 644 CURVE SMOOTH",
"528 548 OFFCURVE",
"326 121 OFFCURVE",
"290 64 CURVE",
"251 151 OFFCURVE",
"115 593 OFFCURVE",
"103 628 CURVE SMOOTH",
"100 637 OFFCURVE",
"85 652 OFFCURVE",
"46 652 CURVE SMOOTH",
"36 652 OFFCURVE",
"35 650 OFFCURVE",
"35 645 CURVE SMOOTH",
"35 641 OFFCURVE",
"36 639 OFFCURVE",
"39 630 CURVE SMOOTH",
"66 538 OFFCURVE",
"221 77 OFFCURVE",
"245 6 CURVE SMOOTH",
"248 -3 OFFCURVE",
"268 -13 OFFCURVE",
"292 -13 CURVE SMOOTH"
);
}
);
width = 618;
},
{
anchors = (
{
name = bottom;
position = "{302, 0}";
},
{
name = top;
position = "{373, 652}";
}
);
layerId = "63F4CE79-9D5F-46D3-B41C-385689F27F0A";
paths = (
{
closed = 1;
nodes = (
"385 -13 OFFCURVE",
"394 -6 OFFCURVE",
"400 8 CURVE SMOOTH",
"420 59 OFFCURVE",
"537 327 OFFCURVE",
"633 540 CURVE SMOOTH",
"641 557 OFFCURVE",
"646 569 OFFCURVE",
"646 579 CURVE SMOOTH",
"646 630 OFFCURVE",
"594 652 OFFCURVE",
"562 652 CURVE SMOOTH",
"550 652 OFFCURVE",
"544 649 OFFCURVE",
"541 641 CURVE SMOOTH",
"501 532 OFFCURVE",
"398 267 OFFCURVE",
"354 185 CURVE",
"336 248 OFFCURVE",
"293 545 OFFCURVE",
"290 579 CURVE SMOOTH",
"286 625 OFFCURVE",
"181 652 OFFCURVE",
"93 652 CURVE SMOOTH",
"55 652 OFFCURVE",
"40 646 OFFCURVE",
"40 632 CURVE SMOOTH",
"40 626 OFFCURVE",
"43 618 OFFCURVE",
"46 607 CURVE SMOOTH",
"49 596 OFFCURVE",
"130 236 OFFCURVE",
"163 66 CURVE SMOOTH",
"173 15 OFFCURVE",
"259 -13 OFFCURVE",
"350 -13 CURVE SMOOTH"
);
}
);
width = 626;
}
);
leftKerningGroup = KO_V;
note = V;
rightKerningGroup = KO_V;
unicode = 0056;
userData = {
KernOnName = V;
};
},
{
color = 1;
glyphname = W;
lastChange = "2022-10-11 01:04:19 +0000";
layers = (
{
anchors = (
{
name = bottom;
position = "{473, 0}";
},
{
name = top;
position = "{507, 652}";
}
);
layerId = "220B7CD1-1E4F-4884-BA06-A44A5DCE8B14";
paths = (
{
closed = 1;
nodes = (
"210 -13 OFFCURVE",
"213 -12 OFFCURVE",
"217 -4 CURVE SMOOTH",
"226 14 OFFCURVE",
"389 341 OFFCURVE",
"481 550 CURVE",
"528 420 OFFCURVE",
"684 50 OFFCURVE",
"695 11 CURVE SMOOTH",
"699 -4 OFFCURVE",
"725 -13 OFFCURVE",
"755 -13 CURVE SMOOTH",
"765 -13 OFFCURVE",
"768 -10 OFFCURVE",
"769 3 CURVE SMOOTH",
"774 50 OFFCURVE",
"933 616 OFFCURVE",
"933 626 CURVE SMOOTH",
"933 644 OFFCURVE",
"906 652 OFFCURVE",
"886 652 CURVE SMOOTH",
"878 652 OFFCURVE",
"878 650 OFFCURVE",
"878 645 CURVE SMOOTH",
"878 591 OFFCURVE",
"784 248 OFFCURVE",
"736 69 CURVE",
"676 194 OFFCURVE",
"563 506 OFFCURVE",
"509 635 CURVE SMOOTH",
"505 644 OFFCURVE",
"492 652 OFFCURVE",
"477 652 CURVE SMOOTH",
"472 652 OFFCURVE",
"468 647 OFFCURVE",
"467 644 CURVE SMOOTH",
"400 476 OFFCURVE",
"304 256 OFFCURVE",
"201 69 CURVE",
"172 204 OFFCURVE",
"124 612 OFFCURVE",
"124 626 CURVE SMOOTH",
"124 644 OFFCURVE",
"92 652 OFFCURVE",
"72 652 CURVE SMOOTH",
"63 652 OFFCURVE",
"60 650 OFFCURVE",
"60 642 CURVE SMOOTH",
"60 638 OFFCURVE",
"60 631 OFFCURVE",
"61 623 CURVE SMOOTH",
"71 530 OFFCURVE",
"124 210 OFFCURVE",
"147 15 CURVE SMOOTH",
"149 -5 OFFCURVE",
"181 -13 OFFCURVE",
"202 -13 CURVE SMOOTH"
);
}
);
width = 958;
},
{
anchors = (
{
name = bottom;
position = "{498, 0}";
},
{
name = top;
position = "{582, 652}";
}
);
layerId = "63F4CE79-9D5F-46D3-B41C-385689F27F0A";
paths = (
{
closed = 1;
nodes = (
"334 -13 OFFCURVE",
"341 -9 OFFCURVE",
"348 11 CURVE SMOOTH",
"366 64 OFFCURVE",
"484 333 OFFCURVE",
"526 422 CURVE",
"550 336 OFFCURVE",
"603 119 OFFCURVE",
"616 59 CURVE SMOOTH",
"626 14 OFFCURVE",
"723 -13 OFFCURVE",
"796 -13 CURVE SMOOTH",
"828 -13 OFFCURVE",
"859 -8 OFFCURVE",
"864 15 CURVE SMOOTH",
"894 152 OFFCURVE",
"1027 533 OFFCURVE",
"1027 580 CURVE SMOOTH",
"1027 630 OFFCURVE",
"973 652 OFFCURVE",
"940 652 CURVE SMOOTH",
"927 652 OFFCURVE",
"918 650 OFFCURVE",
"916 626 CURVE SMOOTH",
"911 567 OFFCURVE",
"816 251 OFFCURVE",
"799 193 CURVE",
"776 282 OFFCURVE",
"719 519 OFFCURVE",
"708 587 CURVE SMOOTH",
"702 626 OFFCURVE",
"617 652 OFFCURVE",
"543 652 CURVE SMOOTH",
"512 652 OFFCURVE",
"504 650 OFFCURVE",
"496 627 CURVE SMOOTH",
"472 556 OFFCURVE",
"326 216 OFFCURVE",
"319 194 CURVE",
"291 377 OFFCURVE",
"273 536 OFFCURVE",
"271 573 CURVE SMOOTH",
"268 621 OFFCURVE",
"158 652 OFFCURVE",
"94 652 CURVE SMOOTH",
"62 652 OFFCURVE",
"40 648 OFFCURVE",
"40 633 CURVE SMOOTH",
"40 628 OFFCURVE",
"43 614 OFFCURVE",
"45 602 CURVE SMOOTH",
"51 566 OFFCURVE",
"116 117 OFFCURVE",
"121 59 CURVE SMOOTH",
"125 9 OFFCURVE",
"226 -13 OFFCURVE",
"302 -13 CURVE SMOOTH"
);
}
);
width = 1017;
}
);
leftKerningGroup = KO_W;
note = W;
rightKerningGroup = KO_W;
unicode = 0057;
userData = {
KernOnName = W;
};
},
{
color = 1;
glyphname = X;
lastChange = "2022-10-10 19:50:14 +0000";
layers = (
{
anchors = (
{
name = bottom;
position = "{291, 0}";
},
{
name = top;
position = "{325, 652}";
}
);
layerId = "220B7CD1-1E4F-4884-BA06-A44A5DCE8B14";
paths = (
{
closed = 1;
nodes = (
"54 -13 OFFCURVE",
"56 -13 OFFCURVE",
"66 1 CURVE SMOOTH",
"127 86 OFFCURVE",
"200 174 OFFCURVE",
"300 297 CURVE",
"350 224 OFFCURVE",
"478 28 OFFCURVE",
"501 0 CURVE SMOOTH",
"509 -10 OFFCURVE",
"511 -13 OFFCURVE",
"518 -13 CURVE SMOOTH",
"530 -13 OFFCURVE",
"550 -4 OFFCURVE",
"562 6 CURVE SMOOTH",
"567 10 OFFCURVE",
"568 13 OFFCURVE",
"568 14 CURVE SMOOTH",
"568 15 OFFCURVE",
"564 21 OFFCURVE",
"557 31 CURVE SMOOTH",
"525 75 OFFCURVE",
"430 200 OFFCURVE",
"346 331 CURVE",
"408 409 OFFCURVE",
"463 484 OFFCURVE",
"529 577 CURVE SMOOTH",
"534 585 OFFCURVE",
"536 590 OFFCURVE",
"536 598 CURVE SMOOTH",
"536 622 OFFCURVE",
"523 652 OFFCURVE",
"510 652 CURVE SMOOTH",
"507 652 OFFCURVE",
"506 650 OFFCURVE",
"503 644 CURVE SMOOTH",
"481 592 OFFCURVE",
"400 465 OFFCURVE",
"324 366 CURVE",
"248 474 OFFCURVE",
"181 581 OFFCURVE",
"141 645 CURVE SMOOTH",
"137 651 OFFCURVE",
"132 652 OFFCURVE",
"123 652 CURVE SMOOTH",
"102 652 OFFCURVE",
"76 636 OFFCURVE",
"76 628 CURVE SMOOTH",
"76 625 OFFCURVE",
"77 623 OFFCURVE",
"83 614 CURVE SMOOTH",
"104 583 OFFCURVE",
"175 493 OFFCURVE",
"277 334 CURVE",
"203 243 OFFCURVE",
"127 155 OFFCURVE",
"34 52 CURVE SMOOTH",
"28 46 OFFCURVE",
"26 43 OFFCURVE",
"26 38 CURVE SMOOTH",
"26 20 OFFCURVE",
"35 -13 OFFCURVE",
"50 -13 CURVE SMOOTH"
);
}
);
width = 598;
},
{
anchors = (
{
name = bottom;
position = "{233, 0}";
},
{
name = top;
position = "{373, 652}";
}
);
layerId = "63F4CE79-9D5F-46D3-B41C-385689F27F0A";
paths = (
{
closed = 1;
nodes = (
"87 -13 OFFCURVE",
"93 -8 OFFCURVE",
"109 15 CURVE SMOOTH",
"133 49 OFFCURVE",
"219 166 OFFCURVE",
"251 203 CURVE",
"298 102 OFFCURVE",
"339 16 OFFCURVE",
"343 8 CURVE SMOOTH",
"351 -7 OFFCURVE",
"370 -13 OFFCURVE",
"392 -13 CURVE SMOOTH",
"435 -13 OFFCURVE",
"492 7 OFFCURVE",
"528 27 CURVE SMOOTH",
"553 41 OFFCURVE",
"562 49 OFFCURVE",
"562 60 CURVE SMOOTH",
"562 66 OFFCURVE",
"558 72 OFFCURVE",
"554 80 CURVE SMOOTH",
"519 146 OFFCURVE",
"472 242 OFFCURVE",
"428 333 CURVE",
"508 424 OFFCURVE",
"555 469 OFFCURVE",
"574 509 CURVE SMOOTH",
"580 522 OFFCURVE",
"583 535 OFFCURVE",
"583 547 CURVE SMOOTH",
"583 594 OFFCURVE",
"537 652 OFFCURVE",
"526 652 CURVE SMOOTH",
"521 652 OFFCURVE",
"515 647 OFFCURVE",
"499 624 CURVE SMOOTH",
"475 590 OFFCURVE",
"396 481 OFFCURVE",
"364 444 CURVE",
"319 540 OFFCURVE",
"281 623 OFFCURVE",
"277 630 CURVE SMOOTH",
"268 646 OFFCURVE",
"249 652 OFFCURVE",
"226 652 CURVE SMOOTH",
"177 652 OFFCURVE",
"58 612 OFFCURVE",
"58 579 CURVE SMOOTH",
"58 573 OFFCURVE",
"61 566 OFFCURVE",
"65 558 CURVE SMOOTH",
"100 494 OFFCURVE",
"144 398 OFFCURVE",
"188 312 CURVE",
"104 217 OFFCURVE",
"52 168 OFFCURVE",
"33 125 CURVE SMOOTH",
"28 114 OFFCURVE",
"25 102 OFFCURVE",
"25 91 CURVE SMOOTH",
"25 36 OFFCURVE",
"76 -13 OFFCURVE",
"82 -13 CURVE SMOOTH"
);
}
);
width = 593;
}
);
leftKerningGroup = KO_X;
note = X;
rightKerningGroup = KO_X;
unicode = 0058;
userData = {
KernOnName = X;
};
},
{
color = 1;
glyphname = Y;
lastChange = "2022-10-11 01:04:12 +0000";
layers = (
{
anchors = (
{
name = bottom;
position = "{279, 0}";
},
{
name = top;
position = "{313, 652}";
},
{
name = topleft;
position = "{95, 652}";
}
);
layerId = "220B7CD1-1E4F-4884-BA06-A44A5DCE8B14";
paths = (
{
closed = 1;
nodes = (
"310 -13 OFFCURVE",
"311 -10 OFFCURVE",
"311 -5 CURVE SMOOTH",
"314 85 OFFCURVE",
"317 174 OFFCURVE",
"320 264 CURVE",
"375 363 OFFCURVE",
"487 531 OFFCURVE",
"521 590 CURVE SMOOTH",
"529 604 OFFCURVE",
"531 610 OFFCURVE",
"531 614 CURVE SMOOTH",
"531 626 OFFCURVE",
"520 652 OFFCURVE",
"506 652 CURVE SMOOTH",
"502 652 OFFCURVE",
"499 650 OFFCURVE",
"497 646 CURVE SMOOTH",
"484 621 OFFCURVE",
"363 418 OFFCURVE",
"301 320 CURVE",
"267 378 OFFCURVE",
"204 504 OFFCURVE",
"123 630 CURVE SMOOTH",
"110 651 OFFCURVE",
"76 652 OFFCURVE",
"62 652 CURVE SMOOTH",
"48 652 OFFCURVE",
"45 650 OFFCURVE",
"45 643 CURVE SMOOTH",
"45 638 OFFCURVE",
"53 626 OFFCURVE",
"58 618 CURVE SMOOTH",
"77 590 OFFCURVE",
"145 502 OFFCURVE",
"266 275 CURVE",
"259 188 OFFCURVE",
"248 25 OFFCURVE",
"248 14 CURVE SMOOTH",
"248 -4 OFFCURVE",
"278 -13 OFFCURVE",
"301 -13 CURVE SMOOTH"
);
}
);
width = 566;
},
{
anchors = (
{
name = bottom;
position = "{253, 0}";
},
{
name = top;
position = "{287, 652}";
},
{
name = topleft;
position = "{69, 652}";
}
);
layerId = "63F4CE79-9D5F-46D3-B41C-385689F27F0A";
paths = (
{
closed = 1;
nodes = (
"363 -13 OFFCURVE",
"368 -4 OFFCURVE",
"368 21 CURVE SMOOTH",
"368 81 OFFCURVE",
"371 149 OFFCURVE",
"374 232 CURVE",
"402 277 OFFCURVE",
"512 453 OFFCURVE",
"531 483 CURVE SMOOTH",
"546 506 OFFCURVE",
"553 535 OFFCURVE",
"553 559 CURVE SMOOTH",
"553 610 OFFCURVE",
"508 652 OFFCURVE",
"493 652 CURVE SMOOTH",
"483 652 OFFCURVE",
"478 642 OFFCURVE",
"463 614 CURVE SMOOTH",
"439 568 OFFCURVE",
"377 447 OFFCURVE",
"334 381 CURVE",
"314 446 OFFCURVE",
"297 509 OFFCURVE",
"284 576 CURVE SMOOTH",
"273 633 OFFCURVE",
"155 652 OFFCURVE",
"77 652 CURVE SMOOTH",
"30 652 OFFCURVE",
"19 641 OFFCURVE",
"19 626 CURVE SMOOTH",
"19 622 OFFCURVE",
"20 618 OFFCURVE",
"22 613 CURVE SMOOTH",
"63 530 OFFCURVE",
"131 336 OFFCURVE",
"159 261 CURVE",
"153 153 OFFCURVE",
"148 68 OFFCURVE",
"148 59 CURVE SMOOTH",
"148 9 OFFCURVE",
"255 -13 OFFCURVE",
"319 -13 CURVE SMOOTH"
);
}
);
width = 534;
}
);
leftKerningGroup = KO_Y;
note = Y;
rightKerningGroup = KO_Y;
unicode = 0059;
},
{
color = 1;
glyphname = Z;
lastChange = "2022-10-09 03:52:26 +0000";
layers = (
{
anchors = (
{
name = bottom;
position = "{259, 0}";
},
{
name = center;
position = "{276, 326}";
},
{
name = top;
position = "{293, 652}";
}
);
layerId = "220B7CD1-1E4F-4884-BA06-A44A5DCE8B14";
paths = (
{
closed = 1;
nodes = (
"484 0 LINE SMOOTH",
"490 0 OFFCURVE",
"501 23 OFFCURVE",
"501 43 CURVE SMOOTH",
"501 53 OFFCURVE",
"499 61 OFFCURVE",
"494 61 CURVE SMOOTH",
"487 61 OFFCURVE",
"461 46 OFFCURVE",
"206 46 CURVE SMOOTH",
"112 46 LINE",
"125 72 OFFCURVE",
"470 551 OFFCURVE",
"490 578 CURVE SMOOTH",
"498 588 OFFCURVE",
"499 598 OFFCURVE",
"499 605 CURVE SMOOTH",
"499 619 OFFCURVE",
"490 639 OFFCURVE",
"481 639 CURVE SMOOTH",
"109 639 LINE SMOOTH",
"100 639 OFFCURVE",
"91 616 OFFCURVE",
"91 594 CURVE SMOOTH",
"91 584 OFFCURVE",
"92 578 OFFCURVE",
"97 578 CURVE SMOOTH",
"110 578 OFFCURVE",
"122 594 OFFCURVE",
"338 594 CURVE SMOOTH",
"431 594 LINE",
"368 482 OFFCURVE",
"143 179 OFFCURVE",
"52 58 CURVE SMOOTH",
"44 48 OFFCURVE",
"44 44 OFFCURVE",
"44 38 CURVE SMOOTH",
"44 24 OFFCURVE",
"52 0 OFFCURVE",
"61 0 CURVE SMOOTH"
);
}
);
width = 539;
},
{
anchors = (
{
name = bottom;
position = "{227, 0}";
},
{
name = center;
position = "{244, 326}";
},
{
name = top;
position = "{261, 652}";
}
);
layerId = "63F4CE79-9D5F-46D3-B41C-385689F27F0A";
paths = (
{
closed = 1;
nodes = (
"96 639 LINE SMOOTH",
"82 639 OFFCURVE",
"62 622 OFFCURVE",
"62 561 CURVE SMOOTH",
"62 524 OFFCURVE",
"64 506 OFFCURVE",
"71 506 CURVE SMOOTH",
"79 506 OFFCURVE",
"168 519 OFFCURVE",
"224 519 CURVE SMOOTH",
"306 519 LINE",
"278 477 OFFCURVE",
"67 180 OFFCURVE",
"47 148 CURVE SMOOTH",
"40 136 OFFCURVE",
"40 128 OFFCURVE",
"40 116 CURVE SMOOTH",
"40 95 OFFCURVE",
"73 0 OFFCURVE",
"104 0 CURVE SMOOTH",
"512 0 LINE SMOOTH",
"526 0 OFFCURVE",
"546 20 OFFCURVE",
"546 73 CURVE SMOOTH",
"546 115 OFFCURVE",
"544 133 OFFCURVE",
"537 133 CURVE SMOOTH",
"529 133 OFFCURVE",
"440 120 OFFCURVE",
"384 120 CURVE SMOOTH",
"285 120 LINE",
"293 140 OFFCURVE",
"527 460 OFFCURVE",
"546 491 CURVE SMOOTH",
"554 503 OFFCURVE",
"554 511 OFFCURVE",
"554 523 CURVE SMOOTH",
"554 544 OFFCURVE",
"521 639 OFFCURVE",
"490 639 CURVE SMOOTH"
);
}
);
width = 579;
}
);
leftKerningGroup = KO_Z;
note = Z;
rightKerningGroup = KO_Z;
unicode = 005A;
},
{
color = 7;
glyphname = Eng.loclNSM;
lastChange = "2022-10-09 04:12:43 +0000";
layers = (
{
layerId = "220B7CD1-1E4F-4884-BA06-A44A5DCE8B14";
paths = (
{
closed = 1;
nodes = (
"584 -244 OFFCURVE",
"627 -225 OFFCURVE",
"664 -190 CURVE SMOOTH",
"701 -155 OFFCURVE",
"725 -99 OFFCURVE",
"729 -28 CURVE SMOOTH",
"730 -14 OFFCURVE",
"765 613 OFFCURVE",
"765 626 CURVE SMOOTH",
"765 644 OFFCURVE",
"739 652 OFFCURVE",
"716 652 CURVE SMOOTH",
"707 652 OFFCURVE",
"706 651 OFFCURVE",
"706 642 CURVE SMOOTH",
"706 290 OFFCURVE",
"686 81 OFFCURVE",
"685 77 CURVE",
"607 152 OFFCURVE",
"243 564 OFFCURVE",
"187 641 CURVE SMOOTH",
"183 646 OFFCURVE",
"176 652 OFFCURVE",
"172 652 CURVE SMOOTH",
"162 652 OFFCURVE",
"132 630 OFFCURVE",
"132 621 CURVE SMOOTH",
"132 508 OFFCURVE",
"98 26 OFFCURVE",
"98 14 CURVE SMOOTH",
"98 -4 OFFCURVE",
"123 -13 OFFCURVE",
"146 -13 CURVE SMOOTH",
"154 -13 OFFCURVE",
"156 -11 OFFCURVE",
"156 -3 CURVE SMOOTH",
"156 160 OFFCURVE",
"175 544 OFFCURVE",
"176 563 CURVE",
"200 527 OFFCURVE",
"518 168 OFFCURVE",
"680 -6 CURVE",
"654 -176 OFFCURVE",
"629 -193 OFFCURVE",
"554 -193 CURVE SMOOTH",
"484 -193 OFFCURVE",
"403 -161 OFFCURVE",
"370 -147 CURVE SMOOTH",
"364 -145 OFFCURVE",
"357 -141 OFFCURVE",
"355 -141 CURVE SMOOTH",
"352 -141 OFFCURVE",
"348 -146 OFFCURVE",
"348 -164 CURVE SMOOTH",
"348 -174 OFFCURVE",
"352 -185 OFFCURVE",
"358 -189 CURVE SMOOTH",
"370 -198 OFFCURVE",
"462 -244 OFFCURVE",
"551 -244 CURVE SMOOTH"
);
}
);
width = 854;
},
{
layerId = "63F4CE79-9D5F-46D3-B41C-385689F27F0A";
paths = (
{
closed = 1;
nodes = (
"511 -222 OFFCURVE",
"575 -217 OFFCURVE",
"628 -170 CURVE SMOOTH",
"669 -135 OFFCURVE",
"682 -80 OFFCURVE",
"686 7 CURVE SMOOTH",
"689 77 OFFCURVE",
"711 546 OFFCURVE",
"711 580 CURVE SMOOTH",
"711 630 OFFCURVE",
"654 652 OFFCURVE",
"620 652 CURVE SMOOTH",
"596 652 OFFCURVE",
"593 643 OFFCURVE",
"593 618 CURVE SMOOTH",
"593 527 OFFCURVE",
"586 322 OFFCURVE",
"582 280 CURVE",
"540 319 OFFCURVE",
"245 631 OFFCURVE",
"238 639 CURVE SMOOTH",
"231 648 OFFCURVE",
"221 652 OFFCURVE",
"211 652 CURVE SMOOTH",
"179 652 OFFCURVE",
"85 586 OFFCURVE",
"85 553 CURVE SMOOTH",
"85 483 OFFCURVE",
"63 93 OFFCURVE",
"63 59 CURVE SMOOTH",
"63 9 OFFCURVE",
"120 -13 OFFCURVE",
"155 -13 CURVE SMOOTH",
"178 -13 OFFCURVE",
"181 -4 OFFCURVE",
"181 21 CURVE SMOOTH",
"181 112 OFFCURVE",
"188 317 OFFCURVE",
"192 361 CURVE",
"228 325 OFFCURVE",
"456 85 OFFCURVE",
"520 18 CURVE",
"513 -40 OFFCURVE",
"501 -57 OFFCURVE",
"494 -72 CURVE SMOOTH",
"480 -99 OFFCURVE",
"451 -127 OFFCURVE",
"407 -127 CURVE SMOOTH",
"395 -127 OFFCURVE",
"356 -123 OFFCURVE",
"358 -123 CURVE SMOOTH",
"348 -123 OFFCURVE",
"340 -140 OFFCURVE",
"340 -156 CURVE SMOOTH",
"340 -179 OFFCURVE",
"344 -196 OFFCURVE",
"359 -204 CURVE SMOOTH",
"374 -212 OFFCURVE",
"415 -222 OFFCURVE",
"462 -222 CURVE SMOOTH"
);
}
);
width = 744;
}
);
leftKerningGroup = KO_H;
leftMetricsKey = H;
rightKerningGroup = KO_N;
rightMetricsKey = H;
},
{
color = 1;
glyphname = a;
lastChange = "2022-10-11 01:01:00 +0000";
layers = (
{
anchors = (
{
name = bottom;
position = "{303, 0}";
},
{
name = ogonek;
position = "{529, 10}";
},
{
name = top;
position = "{339, 524}";
}
);
layerId = "220B7CD1-1E4F-4884-BA06-A44A5DCE8B14";
paths = (
{
closed = 1;
nodes = (
"205 -13 OFFCURVE",
"379 210 OFFCURVE",
"451 355 CURVE",
"445 262 OFFCURVE",
"438 121 OFFCURVE",
"438 63 CURVE SMOOTH",
"438 40 OFFCURVE",
"438 26 OFFCURVE",
"441 20 CURVE SMOOTH",
"446 9 OFFCURVE",
"480 -13 OFFCURVE",
"491 -13 CURVE SMOOTH",
"533 -13 OFFCURVE",
"618 88 OFFCURVE",
"651 131 CURVE SMOOTH",
"653 133 OFFCURVE",
"654 137 OFFCURVE",
"654 141 CURVE SMOOTH",
"654 154 OFFCURVE",
"644 170 OFFCURVE",
"640 170 CURVE SMOOTH",
"637 170 OFFCURVE",
"636 167 OFFCURVE",
"633 164 CURVE",
"612 136 OFFCURVE",
"530 41 OFFCURVE",
"511 41 CURVE SMOOTH",
"499 41 OFFCURVE",
"495 48 OFFCURVE",
"495 89 CURVE SMOOTH",
"495 237 OFFCURVE",
"511 451 OFFCURVE",
"511 460 CURVE",
"516 460 OFFCURVE",
"523 472 OFFCURVE",
"523 490 CURVE SMOOTH",
"523 495 OFFCURVE",
"520 496 OFFCURVE",
"519 496 CURVE SMOOTH",
"442 513 OFFCURVE",
"338 524 OFFCURVE",
"320 524 CURVE SMOOTH",
"253 524 OFFCURVE",
"191 484 OFFCURVE",
"142 417 CURVE SMOOTH",
"91 348 OFFCURVE",
"88 141 OFFCURVE",
"88 63 CURVE SMOOTH",
"88 40 OFFCURVE",
"89 26 OFFCURVE",
"92 20 CURVE SMOOTH",
"97 9 OFFCURVE",
"131 -13 OFFCURVE",
"142 -13 CURVE SMOOTH"
);
},
{
closed = 1;
nodes = (
"149 41 OFFCURVE",
"145 48 OFFCURVE",
"145 89 CURVE SMOOTH",
"145 339 OFFCURVE",
"199 481 OFFCURVE",
"282 481 CURVE SMOOTH",
"320 481 OFFCURVE",
"377 476 OFFCURVE",
"460 460 CURVE",
"418 319 OFFCURVE",
"194 41 OFFCURVE",
"161 41 CURVE SMOOTH"
);
}
);
width = 645;
},
{
anchors = (
{
name = bottom;
position = "{303, 0}";
},
{
name = ogonek;
position = "{550, 10}";
},
{
name = top;
position = "{370, 524}";
}
);
layerId = "63F4CE79-9D5F-46D3-B41C-385689F27F0A";
paths = (
{
closed = 1;
nodes = (
"228 -13 OFFCURVE",
"370 160 OFFCURVE",
"386 224 CURVE SMOOTH",
"384 200 OFFCURVE",
"381 144 OFFCURVE",
"381 112 CURVE SMOOTH",
"381 97 OFFCURVE",
"382 84 OFFCURVE",
"384 69 CURVE SMOOTH",
"391 18 OFFCURVE",
"494 -13 OFFCURVE",
"512 -13 CURVE SMOOTH",
"556 -13 OFFCURVE",
"653 104 OFFCURVE",
"675 137 CURVE SMOOTH",
"682 147 OFFCURVE",
"686 157 OFFCURVE",
"686 167 CURVE SMOOTH",
"686 187 OFFCURVE",
"669 211 OFFCURVE",
"658 211 CURVE SMOOTH",
"654 211 OFFCURVE",
"652 209 OFFCURVE",
"646 201 CURVE SMOOTH",
"639 192 OFFCURVE",
"620 168 OFFCURVE",
"612 168 CURVE SMOOTH",
"604 168 OFFCURVE",
"601 173 OFFCURVE",
"601 226 CURVE SMOOTH",
"601 263 OFFCURVE",
"611 424 OFFCURVE",
"611 433 CURVE SMOOTH",
"617 433 OFFCURVE",
"628 455 OFFCURVE",
"628 482 CURVE SMOOTH",
"628 494 OFFCURVE",
"625 495 OFFCURVE",
"620 496 CURVE SMOOTH",
"466 519 OFFCURVE",
"385 524 OFFCURVE",
"302 524 CURVE SMOOTH",
"201 524 OFFCURVE",
"146 482 OFFCURVE",
"98 417 CURVE SMOOTH",
"47 348 OFFCURVE",
"44 142 OFFCURVE",
"44 112 CURVE SMOOTH",
"44 97 OFFCURVE",
"45 84 OFFCURVE",
"47 69 CURVE SMOOTH",
"54 18 OFFCURVE",
"157 -13 OFFCURVE",
"175 -13 CURVE SMOOTH"
);
},
{
closed = 1;
nodes = (
"267 167 OFFCURVE",
"264 172 OFFCURVE",
"264 224 CURVE SMOOTH",
"264 368 OFFCURVE",
"286 454 OFFCURVE",
"341 454 CURVE SMOOTH",
"358 454 OFFCURVE",
"378 452 OFFCURVE",
"395 446 CURVE SMOOTH",
"395 297 OFFCURVE",
"292 167 OFFCURVE",
"275 167 CURVE SMOOTH"
);
}
);
width = 686;
}
);
leftKerningGroup = KO_a;
note = a;
rightKerningGroup = KO_a;
unicode = 0061;
userData = {
KernOnName = a;
};
},
{
color = 5;
glyphname = aacute;
lastChange = "2022-09-24 06:35:46 +0000";
layers = (
{
background = {
paths = (
{
closed = 1;
nodes = (
"205 -13 OFFCURVE",
"379 210 OFFCURVE",
"451 355 CURVE",
"445 262 OFFCURVE",
"438 121 OFFCURVE",
"438 63 CURVE SMOOTH",
"438 40 OFFCURVE",
"438 26 OFFCURVE",
"441 20 CURVE SMOOTH",
"446 9 OFFCURVE",
"480 -13 OFFCURVE",
"491 -13 CURVE SMOOTH",
"533 -13 OFFCURVE",
"618 88 OFFCURVE",
"651 131 CURVE SMOOTH",
"653 133 OFFCURVE",
"654 137 OFFCURVE",
"654 141 CURVE SMOOTH",
"654 154 OFFCURVE",
"644 170 OFFCURVE",
"640 170 CURVE SMOOTH",
"637 170 OFFCURVE",
"636 167 OFFCURVE",
"633 164 CURVE",
"612 136 OFFCURVE",
"530 41 OFFCURVE",
"511 41 CURVE SMOOTH",
"499 41 OFFCURVE",
"495 48 OFFCURVE",
"495 89 CURVE SMOOTH",
"495 237 OFFCURVE",
"511 451 OFFCURVE",
"511 460 CURVE",
"516 460 OFFCURVE",
"523 472 OFFCURVE",
"523 490 CURVE SMOOTH",
"523 495 OFFCURVE",
"520 496 OFFCURVE",
"519 496 CURVE SMOOTH",
"442 513 OFFCURVE",
"338 524 OFFCURVE",
"320 524 CURVE SMOOTH",
"253 524 OFFCURVE",
"191 484 OFFCURVE",
"142 417 CURVE SMOOTH",
"91 348 OFFCURVE",
"88 141 OFFCURVE",
"88 63 CURVE SMOOTH",
"88 40 OFFCURVE",
"89 26 OFFCURVE",
"92 20 CURVE SMOOTH",
"97 9 OFFCURVE",
"131 -13 OFFCURVE",
"142 -13 CURVE SMOOTH"
);
},
{
closed = 1;
nodes = (
"149 41 OFFCURVE",
"145 48 OFFCURVE",
"145 89 CURVE SMOOTH",
"145 339 OFFCURVE",
"199 481 OFFCURVE",
"282 481 CURVE SMOOTH",
"320 481 OFFCURVE",
"377 476 OFFCURVE",
"460 460 CURVE",
"418 319 OFFCURVE",
"194 41 OFFCURVE",
"161 41 CURVE SMOOTH"
);
},
{
closed = 1;
nodes = (
"296 614 OFFCURVE",
"411 722 OFFCURVE",
"463 759 CURVE SMOOTH",
"466 761 OFFCURVE",
"466 766 OFFCURVE",
"466 771 CURVE SMOOTH",
"466 783 OFFCURVE",
"455 806 OFFCURVE",
"443 806 CURVE SMOOTH",
"439 806 OFFCURVE",
"435 805 OFFCURVE",
"430 800 CURVE SMOOTH",
"413 783 OFFCURVE",
"293 673 OFFCURVE",
"280 652 CURVE SMOOTH",
"277 647 OFFCURVE",
"275 641 OFFCURVE",
"275 636 CURVE SMOOTH",
"275 622 OFFCURVE",
"288 610 OFFCURVE",
"290 607 CURVE"
);
}
);
};
components = (
{
name = a;
},
{
name = acutecomb;
transform = "{1, 0, 0, 1, 277, 0}";
}
);
layerId = "220B7CD1-1E4F-4884-BA06-A44A5DCE8B14";
width = 645;
},
{
components = (
{
name = a;
},
{
name = acutecomb;
transform = "{1, 0, 0, 1, 308, 0}";
}
);
layerId = "63F4CE79-9D5F-46D3-B41C-385689F27F0A";
width = 686;
}
);
leftKerningGroup = KO_a;
note = aacute;
rightKerningGroup = KO_a;
unicode = 00E1;
},
{
color = 5;
glyphname = acircumflex;
lastChange = "2022-09-25 02:05:18 +0000";
layers = (
{
background = {
paths = (
{
closed = 1;
nodes = (
"205 -13 OFFCURVE",
"379 210 OFFCURVE",
"451 355 CURVE",
"445 262 OFFCURVE",
"438 121 OFFCURVE",
"438 63 CURVE SMOOTH",
"438 40 OFFCURVE",
"438 26 OFFCURVE",
"441 20 CURVE SMOOTH",
"446 9 OFFCURVE",
"480 -13 OFFCURVE",
"491 -13 CURVE SMOOTH",
"533 -13 OFFCURVE",
"618 88 OFFCURVE",
"651 131 CURVE SMOOTH",
"653 133 OFFCURVE",
"654 137 OFFCURVE",
"654 141 CURVE SMOOTH",
"654 154 OFFCURVE",
"644 170 OFFCURVE",
"640 170 CURVE SMOOTH",
"637 170 OFFCURVE",
"636 167 OFFCURVE",
"633 164 CURVE",
"612 136 OFFCURVE",
"530 41 OFFCURVE",
"511 41 CURVE SMOOTH",
"499 41 OFFCURVE",
"495 48 OFFCURVE",
"495 89 CURVE SMOOTH",
"495 237 OFFCURVE",
"511 451 OFFCURVE",
"511 460 CURVE",
"516 460 OFFCURVE",
"523 472 OFFCURVE",
"523 490 CURVE SMOOTH",
"523 495 OFFCURVE",
"520 496 OFFCURVE",
"519 496 CURVE SMOOTH",
"442 513 OFFCURVE",
"338 524 OFFCURVE",
"320 524 CURVE SMOOTH",
"253 524 OFFCURVE",
"191 484 OFFCURVE",
"142 417 CURVE SMOOTH",
"91 348 OFFCURVE",
"88 141 OFFCURVE",
"88 63 CURVE SMOOTH",
"88 40 OFFCURVE",
"89 26 OFFCURVE",
"92 20 CURVE SMOOTH",
"97 9 OFFCURVE",
"131 -13 OFFCURVE",
"142 -13 CURVE SMOOTH"
);
},
{
closed = 1;
nodes = (
"149 41 OFFCURVE",
"145 48 OFFCURVE",
"145 89 CURVE SMOOTH",
"145 339 OFFCURVE",
"199 481 OFFCURVE",
"282 481 CURVE SMOOTH",
"320 481 OFFCURVE",
"377 476 OFFCURVE",
"460 460 CURVE",
"418 319 OFFCURVE",
"194 41 OFFCURVE",
"161 41 CURVE SMOOTH"
);
},
{
closed = 1;
nodes = (
"220 612 OFFCURVE",
"308 696 OFFCURVE",
"366 744 CURVE",
"401 700 OFFCURVE",
"463 612 OFFCURVE",
"464 607 CURVE",
"466 608 OFFCURVE",
"485 621 OFFCURVE",
"485 631 CURVE SMOOTH",
"485 640 OFFCURVE",
"480 652 OFFCURVE",
"475 660 CURVE SMOOTH",
"454 696 OFFCURVE",
"410 761 OFFCURVE",
"380 800 CURVE SMOOTH",
"376 805 OFFCURVE",
"371 806 OFFCURVE",
"368 806 CURVE SMOOTH",
"364 806 OFFCURVE",
"361 805 OFFCURVE",
"356 800 CURVE SMOOTH",
"338 785 OFFCURVE",
"220 673 OFFCURVE",
"207 652 CURVE SMOOTH",
"204 647 OFFCURVE",
"202 641 OFFCURVE",
"202 636 CURVE SMOOTH",
"202 622 OFFCURVE",
"215 610 OFFCURVE",
"217 607 CURVE"
);
}
);
};
components = (
{
name = a;
},
{
name = circumflexcomb;
transform = "{1, 0, 0, 1, 204, 0}";
}
);
layerId = "220B7CD1-1E4F-4884-BA06-A44A5DCE8B14";
width = 645;
},
{
components = (
{
name = a;
},
{
name = circumflexcomb;
transform = "{1, 0, 0, 1, 235, 0}";
}
);
layerId = "63F4CE79-9D5F-46D3-B41C-385689F27F0A";
width = 686;
}
);
leftKerningGroup = KO_a;
note = acircumflex;
rightKerningGroup = KO_a;
unicode = 00E2;
},
{
color = 5;
glyphname = adieresis;
lastChange = "2022-09-25 01:54:22 +0000";
layers = (
{
background = {
paths = (
{
closed = 1;
nodes = (
"205 -13 OFFCURVE",
"379 210 OFFCURVE",
"451 355 CURVE",
"445 262 OFFCURVE",
"438 121 OFFCURVE",
"438 63 CURVE SMOOTH",
"438 40 OFFCURVE",
"438 26 OFFCURVE",
"441 20 CURVE SMOOTH",
"446 9 OFFCURVE",
"480 -13 OFFCURVE",
"491 -13 CURVE SMOOTH",
"533 -13 OFFCURVE",
"618 88 OFFCURVE",
"651 131 CURVE SMOOTH",
"653 133 OFFCURVE",
"654 137 OFFCURVE",
"654 141 CURVE SMOOTH",
"654 154 OFFCURVE",
"644 170 OFFCURVE",
"640 170 CURVE SMOOTH",
"637 170 OFFCURVE",
"636 167 OFFCURVE",
"633 164 CURVE",
"612 136 OFFCURVE",
"530 41 OFFCURVE",
"511 41 CURVE SMOOTH",
"499 41 OFFCURVE",
"495 48 OFFCURVE",
"495 89 CURVE SMOOTH",
"495 237 OFFCURVE",
"511 451 OFFCURVE",
"511 460 CURVE",
"516 460 OFFCURVE",
"523 472 OFFCURVE",
"523 490 CURVE SMOOTH",
"523 495 OFFCURVE",
"520 496 OFFCURVE",
"519 496 CURVE SMOOTH",
"442 513 OFFCURVE",
"338 524 OFFCURVE",
"320 524 CURVE SMOOTH",
"253 524 OFFCURVE",
"191 484 OFFCURVE",
"142 417 CURVE SMOOTH",
"91 348 OFFCURVE",
"88 141 OFFCURVE",
"88 63 CURVE SMOOTH",
"88 40 OFFCURVE",
"89 26 OFFCURVE",
"92 20 CURVE SMOOTH",
"97 9 OFFCURVE",
"131 -13 OFFCURVE",
"142 -13 CURVE SMOOTH"
);
},
{
closed = 1;
nodes = (
"149 41 OFFCURVE",
"145 48 OFFCURVE",
"145 89 CURVE SMOOTH",
"145 339 OFFCURVE",
"199 481 OFFCURVE",
"282 481 CURVE SMOOTH",
"320 481 OFFCURVE",
"377 476 OFFCURVE",
"460 460 CURVE",
"418 319 OFFCURVE",
"194 41 OFFCURVE",
"161 41 CURVE SMOOTH"
);
},
{
closed = 1;
nodes = (
"271 664 OFFCURVE",
"290 689 OFFCURVE",
"290 710 CURVE SMOOTH",
"290 744 OFFCURVE",
"276 756 OFFCURVE",
"261 756 CURVE SMOOTH",
"240 756 OFFCURVE",
"217 732 OFFCURVE",
"217 699 CURVE SMOOTH",
"217 675 OFFCURVE",
"231 664 OFFCURVE",
"251 664 CURVE SMOOTH"
);
},
{
closed = 1;
nodes = (
"471 664 OFFCURVE",
"490 689 OFFCURVE",
"490 710 CURVE SMOOTH",
"490 744 OFFCURVE",
"476 756 OFFCURVE",
"461 756 CURVE SMOOTH",
"440 756 OFFCURVE",
"417 732 OFFCURVE",
"417 699 CURVE SMOOTH",
"417 675 OFFCURVE",
"431 664 OFFCURVE",
"451 664 CURVE SMOOTH"
);
}
);
};
components = (
{
name = a;
},
{
name = dieresiscomb;
transform = "{1, 0, 0, 1, 194, 0}";
}
);
layerId = "220B7CD1-1E4F-4884-BA06-A44A5DCE8B14";
width = 645;
},
{
components = (
{
name = a;
},
{
name = dieresiscomb;
transform = "{1, 0, 0, 1, 183, 0}";
}
);
layerId = "63F4CE79-9D5F-46D3-B41C-385689F27F0A";
width = 686;
}
);
leftKerningGroup = KO_a;
note = adieresis;
rightKerningGroup = KO_a;
unicode = 00E4;
},
{
color = 7;
glyphname = "alpha-latin";
lastChange = "2022-10-10 18:08:27 +0000";
layers = (
{
layerId = "220B7CD1-1E4F-4884-BA06-A44A5DCE8B14";
paths = (
{
closed = 1;
nodes = (
"529 -13 OFFCURVE",
"614 88 OFFCURVE",
"647 131 CURVE SMOOTH",
"649 133 OFFCURVE",
"650 137 OFFCURVE",
"650 141 CURVE SMOOTH",
"650 154 OFFCURVE",
"640 170 OFFCURVE",
"636 170 CURVE SMOOTH",
"633 170 OFFCURVE",
"632 167 OFFCURVE",
"629 164 CURVE",
"608 136 OFFCURVE",
"526 41 OFFCURVE",
"507 41 CURVE SMOOTH",
"494 41 OFFCURVE",
"490 48 OFFCURVE",
"490 89 CURVE SMOOTH",
"490 113 OFFCURVE",
"494 230 OFFCURVE",
"497 273 CURVE SMOOTH",
"504 362 OFFCURVE",
"512 430 OFFCURVE",
"519 479 CURVE SMOOTH",
"523 505 OFFCURVE",
"524 518 OFFCURVE",
"507 519 CURVE SMOOTH",
"478 521 OFFCURVE",
"459 506 OFFCURVE",
"456 443 CURVE",
"424 493 OFFCURVE",
"379 524 OFFCURVE",
"313 524 CURVE SMOOTH",
"234 524 OFFCURVE",
"66 451 OFFCURVE",
"66 219 CURVE SMOOTH",
"66 40 OFFCURVE",
"149 -13 OFFCURVE",
"265 -13 CURVE SMOOTH",
"338 -13 OFFCURVE",
"394 32 OFFCURVE",
"433 76 CURVE",
"433 57 OFFCURVE",
"433 25 OFFCURVE",
"436 20 CURVE SMOOTH",
"441 9 OFFCURVE",
"476 -13 OFFCURVE",
"487 -13 CURVE SMOOTH"
);
},
{
closed = 1;
nodes = (
"169 23 OFFCURVE",
"126 86 OFFCURVE",
"126 224 CURVE SMOOTH",
"126 395 OFFCURVE",
"247 489 OFFCURVE",
"306 489 CURVE SMOOTH",
"397 489 OFFCURVE",
"446 416 OFFCURVE",
"440 287 CURVE SMOOTH",
"433 136 OFFCURVE",
"380 23 OFFCURVE",
"270 23 CURVE SMOOTH"
);
}
);
width = 641;
},
{
layerId = "63F4CE79-9D5F-46D3-B41C-385689F27F0A";
paths = (
{
closed = 1;
nodes = (
"493 -14 OFFCURVE",
"590 103 OFFCURVE",
"612 136 CURVE SMOOTH",
"619 146 OFFCURVE",
"623 156 OFFCURVE",
"623 166 CURVE SMOOTH",
"623 186 OFFCURVE",
"606 210 OFFCURVE",
"595 210 CURVE SMOOTH",
"591 210 OFFCURVE",
"589 208 OFFCURVE",
"583 200 CURVE SMOOTH",
"576 191 OFFCURVE",
"557 167 OFFCURVE",
"549 167 CURVE SMOOTH",
"543 167 OFFCURVE",
"536 172 OFFCURVE",
"536 186 CURVE SMOOTH",
"536 213 OFFCURVE",
"535 256 OFFCURVE",
"537 297 CURVE SMOOTH",
"539 348 OFFCURVE",
"549 433 OFFCURVE",
"553 484 CURVE SMOOTH",
"555 509 OFFCURVE",
"546 524 OFFCURVE",
"521 524 CURVE SMOOTH",
"472 524 OFFCURVE",
"439 524 OFFCURVE",
"409 479 CURVE",
"387 509 OFFCURVE",
"340 524 OFFCURVE",
"283 524 CURVE SMOOTH",
"146 524 OFFCURVE",
"35 441 OFFCURVE",
"35 219 CURVE SMOOTH",
"35 1 OFFCURVE",
"152 -13 OFFCURVE",
"267 -13 CURVE SMOOTH",
"303 -13 OFFCURVE",
"354 26 OFFCURVE",
"380 46 CURVE",
"380 35 OFFCURVE",
"377 14 OFFCURVE",
"391 3 CURVE SMOOTH",
"406 -9 OFFCURVE",
"441 -14 OFFCURVE",
"449 -14 CURVE SMOOTH"
);
},
{
closed = 1;
nodes = (
"242 55 OFFCURVE",
"237 102 OFFCURVE",
"237 205 CURVE SMOOTH",
"237 372 OFFCURVE",
"274 454 OFFCURVE",
"306 454 CURVE SMOOTH",
"334 454 OFFCURVE",
"340 438 OFFCURVE",
"335 303 CURVE SMOOTH",
"329 137 OFFCURVE",
"302 55 OFFCURVE",
"271 55 CURVE SMOOTH"
);
}
);
width = 630;
}
);
leftKerningGroup = KO_o;
leftMetricsKey = o;
rightKerningGroup = KO_n;
rightMetricsKey = n;
unicode = 0251;
},
{
color = 1;
glyphname = aogonek;
lastChange = "2022-09-26 01:35:25 +0000";
layers = (
{
layerId = "220B7CD1-1E4F-4884-BA06-A44A5DCE8B14";
paths = (
{
closed = 1;
nodes = (
"205 -13 OFFCURVE",
"379 210 OFFCURVE",
"451 355 CURVE SMOOTH",
"445 262 OFFCURVE",
"438 121 OFFCURVE",
"438 63 CURVE SMOOTH",
"438 40 OFFCURVE",
"438 26 OFFCURVE",
"441 20 CURVE SMOOTH",
"446 9 OFFCURVE",
"480 -13 OFFCURVE",
"491 -13 CURVE SMOOTH",
"533 -13 OFFCURVE",
"618 88 OFFCURVE",
"651 131 CURVE SMOOTH",
"653 133 OFFCURVE",
"654 137 OFFCURVE",
"654 141 CURVE SMOOTH",
"654 154 OFFCURVE",
"644 170 OFFCURVE",
"640 170 CURVE SMOOTH",
"637 170 OFFCURVE",
"636 167 OFFCURVE",
"633 164 CURVE SMOOTH",
"612 136 OFFCURVE",
"530 41 OFFCURVE",
"511 41 CURVE SMOOTH",
"499 41 OFFCURVE",
"495 48 OFFCURVE",
"495 89 CURVE SMOOTH",
"495 237 OFFCURVE",
"511 451 OFFCURVE",
"511 460 CURVE SMOOTH",
"516 460 OFFCURVE",
"523 472 OFFCURVE",
"523 490 CURVE SMOOTH",
"523 495 OFFCURVE",
"520 496 OFFCURVE",
"519 496 CURVE SMOOTH",
"442 513 OFFCURVE",
"338 524 OFFCURVE",
"320 524 CURVE SMOOTH",
"253 524 OFFCURVE",
"191 484 OFFCURVE",
"142 417 CURVE SMOOTH",
"91 348 OFFCURVE",
"88 141 OFFCURVE",
"88 63 CURVE SMOOTH",
"88 40 OFFCURVE",
"89 26 OFFCURVE",
"92 20 CURVE SMOOTH",
"97 9 OFFCURVE",
"131 -13 OFFCURVE",
"142 -13 CURVE SMOOTH"
);
},
{
closed = 1;
nodes = (
"149 41 OFFCURVE",
"145 48 OFFCURVE",
"145 89 CURVE SMOOTH",
"145 339 OFFCURVE",
"199 481 OFFCURVE",
"282 481 CURVE SMOOTH",
"320 481 OFFCURVE",
"377 476 OFFCURVE",
"460 460 CURVE SMOOTH",
"418 319 OFFCURVE",
"194 41 OFFCURVE",
"161 41 CURVE SMOOTH"
);
},
{
closed = 1;
nodes = (
"538 -188 OFFCURVE",
"603 -137 OFFCURVE",
"636 -94 CURVE SMOOTH",
"638 -92 OFFCURVE",
"639 -88 OFFCURVE",
"639 -84 CURVE SMOOTH",
"639 -71 OFFCURVE",
"629 -55 OFFCURVE",
"625 -55 CURVE SMOOTH",
"622 -55 OFFCURVE",
"621 -58 OFFCURVE",
"618 -61 CURVE SMOOTH",
"597 -89 OFFCURVE",
"535 -134 OFFCURVE",
"516 -134 CURVE SMOOTH",
"504 -134 OFFCURVE",
"500 -127 OFFCURVE",
"500 -99 CURVE SMOOTH",
"500 -40 OFFCURVE",
"603 69 OFFCURVE",
"603 78 CURVE SMOOTH",
"509 32 OFFCURVE",
"443 -54 OFFCURVE",
"443 -112 CURVE SMOOTH",
"443 -135 OFFCURVE",
"443 -149 OFFCURVE",
"446 -155 CURVE SMOOTH",
"451 -166 OFFCURVE",
"485 -188 OFFCURVE",
"496 -188 CURVE SMOOTH"
);
}
);
width = 645;
},
{
layerId = "63F4CE79-9D5F-46D3-B41C-385689F27F0A";
paths = (
{
closed = 1;
nodes = (
"228 -13 OFFCURVE",
"370 160 OFFCURVE",
"386 224 CURVE",
"384 200 OFFCURVE",
"381 144 OFFCURVE",
"381 112 CURVE",
"381 97 OFFCURVE",
"382 84 OFFCURVE",
"384 69 CURVE",
"391 18 OFFCURVE",
"494 -13 OFFCURVE",
"512 -13 CURVE",
"556 -13 OFFCURVE",
"653 104 OFFCURVE",
"675 137 CURVE",
"682 147 OFFCURVE",
"686 157 OFFCURVE",
"686 167 CURVE",
"686 187 OFFCURVE",
"669 211 OFFCURVE",
"658 211 CURVE",
"654 211 OFFCURVE",
"652 209 OFFCURVE",
"646 201 CURVE",
"639 192 OFFCURVE",
"620 168 OFFCURVE",
"612 168 CURVE",
"604 168 OFFCURVE",
"601 173 OFFCURVE",
"601 226 CURVE",
"601 263 OFFCURVE",
"611 424 OFFCURVE",
"611 433 CURVE",
"617 433 OFFCURVE",
"628 455 OFFCURVE",
"628 482 CURVE",
"628 494 OFFCURVE",
"625 495 OFFCURVE",
"620 496 CURVE",
"466 519 OFFCURVE",
"385 524 OFFCURVE",
"302 524 CURVE",
"201 524 OFFCURVE",
"146 482 OFFCURVE",
"98 417 CURVE",
"47 348 OFFCURVE",
"44 142 OFFCURVE",
"44 112 CURVE",
"44 97 OFFCURVE",
"45 84 OFFCURVE",
"47 69 CURVE",
"54 18 OFFCURVE",
"157 -13 OFFCURVE",
"175 -13 CURVE"
);
},
{
closed = 1;
nodes = (
"267 167 OFFCURVE",
"264 172 OFFCURVE",
"264 224 CURVE",
"264 368 OFFCURVE",
"286 454 OFFCURVE",
"341 454 CURVE",
"358 454 OFFCURVE",
"378 452 OFFCURVE",
"395 446 CURVE",
"395 297 OFFCURVE",
"292 167 OFFCURVE",
"275 167 CURVE"
);
},
{
closed = 1;
nodes = (
"559 -224 OFFCURVE",
"656 -107 OFFCURVE",
"678 -74 CURVE SMOOTH",
"685 -64 OFFCURVE",
"689 -54 OFFCURVE",
"689 -44 CURVE SMOOTH",
"689 -24 OFFCURVE",
"672 0 OFFCURVE",
"661 0 CURVE SMOOTH",
"657 0 OFFCURVE",
"655 -2 OFFCURVE",
"649 -10 CURVE",
"642 -19 OFFCURVE",
"587 -77 OFFCURVE",
"560 -77 CURVE",
"546 -77 OFFCURVE",
"527 -71 OFFCURVE",
"527 -44 CURVE SMOOTH",
"527 25 OFFCURVE",
"692 81 OFFCURVE",
"561 69 CURVE SMOOTH",
"494 65 OFFCURVE",
"384 -29 OFFCURVE",
"384 -99 CURVE SMOOTH",
"384 -114 OFFCURVE",
"385 -127 OFFCURVE",
"387 -142 CURVE SMOOTH",
"394 -193 OFFCURVE",
"497 -224 OFFCURVE",
"515 -224 CURVE"
);
}
);
width = 686;
}
);
leftKerningGroup = KO_a;
rightKerningGroup = KO_aogonek;
unicode = 0105;
},
{
color = 5;
glyphname = atilde;
lastChange = "2022-09-24 06:35:46 +0000";
layers = (
{
background = {
paths = (
{
closed = 1;
nodes = (
"205 -13 OFFCURVE",
"379 210 OFFCURVE",
"451 355 CURVE",
"445 262 OFFCURVE",
"438 121 OFFCURVE",
"438 63 CURVE SMOOTH",
"438 40 OFFCURVE",
"438 26 OFFCURVE",
"441 20 CURVE SMOOTH",
"446 9 OFFCURVE",
"480 -13 OFFCURVE",
"491 -13 CURVE SMOOTH",
"533 -13 OFFCURVE",
"618 88 OFFCURVE",
"651 131 CURVE SMOOTH",
"653 133 OFFCURVE",
"654 137 OFFCURVE",
"654 141 CURVE SMOOTH",
"654 154 OFFCURVE",
"644 170 OFFCURVE",
"640 170 CURVE SMOOTH",
"637 170 OFFCURVE",
"636 167 OFFCURVE",
"633 164 CURVE",
"612 136 OFFCURVE",
"530 41 OFFCURVE",
"511 41 CURVE SMOOTH",
"499 41 OFFCURVE",
"495 48 OFFCURVE",
"495 89 CURVE SMOOTH",
"495 237 OFFCURVE",
"511 451 OFFCURVE",
"511 460 CURVE",
"516 460 OFFCURVE",
"523 472 OFFCURVE",
"523 490 CURVE SMOOTH",
"523 495 OFFCURVE",
"520 496 OFFCURVE",
"519 496 CURVE SMOOTH",
"442 513 OFFCURVE",
"338 524 OFFCURVE",
"320 524 CURVE SMOOTH",
"253 524 OFFCURVE",
"191 484 OFFCURVE",
"142 417 CURVE SMOOTH",
"91 348 OFFCURVE",
"88 141 OFFCURVE",
"88 63 CURVE SMOOTH",
"88 40 OFFCURVE",
"89 26 OFFCURVE",
"92 20 CURVE SMOOTH",
"97 9 OFFCURVE",
"131 -13 OFFCURVE",
"142 -13 CURVE SMOOTH"
);
},
{
closed = 1;
nodes = (
"149 41 OFFCURVE",
"145 48 OFFCURVE",
"145 89 CURVE SMOOTH",
"145 339 OFFCURVE",
"199 481 OFFCURVE",
"282 481 CURVE SMOOTH",
"320 481 OFFCURVE",
"377 476 OFFCURVE",
"460 460 CURVE",
"418 319 OFFCURVE",
"194 41 OFFCURVE",
"161 41 CURVE SMOOTH"
);
},
{
closed = 1;
nodes = (
"453 626 OFFCURVE",
"466 631 OFFCURVE",
"481 654 CURVE SMOOTH",
"492 671 OFFCURVE",
"505 712 OFFCURVE",
"505 737 CURVE SMOOTH",
"505 742 OFFCURVE",
"495 746 OFFCURVE",
"486 746 CURVE SMOOTH",
"482 746 OFFCURVE",
"481 744 OFFCURVE",
"480 739 CURVE SMOOTH",
"468 691 OFFCURVE",
"460 675 OFFCURVE",
"439 675 CURVE SMOOTH",
"409 675 OFFCURVE",
"287 756 OFFCURVE",
"253 756 CURVE SMOOTH",
"232 756 OFFCURVE",
"218 751 OFFCURVE",
"204 728 CURVE SMOOTH",
"193 710 OFFCURVE",
"180 670 OFFCURVE",
"180 645 CURVE SMOOTH",
"180 640 OFFCURVE",
"190 636 OFFCURVE",
"199 636 CURVE SMOOTH",
"203 636 OFFCURVE",
"204 637 OFFCURVE",
"205 642 CURVE SMOOTH",
"217 690 OFFCURVE",
"225 707 OFFCURVE",
"245 707 CURVE SMOOTH",
"276 707 OFFCURVE",
"398 626 OFFCURVE",
"432 626 CURVE SMOOTH"
);
}
);
};
components = (
{
name = a;
},
{
name = tildecomb;
transform = "{1, 0, 0, 1, 176, 0}";
}
);
layerId = "220B7CD1-1E4F-4884-BA06-A44A5DCE8B14";
width = 645;
},
{
components = (
{
name = a;
},
{
name = tildecomb;
transform = "{1, 0, 0, 1, 207, 0}";
}
);
layerId = "63F4CE79-9D5F-46D3-B41C-385689F27F0A";
width = 686;
}
);
leftKerningGroup = KO_a;
note = atilde;
rightKerningGroup = KO_a;
unicode = 00E3;
},
{
color = 1;
glyphname = ae;
lastChange = "2022-10-09 03:58:15 +0000";
layers = (
{
anchors = (
{
name = bottom;
position = "{387, 0}";
},
{
name = top;
position = "{501, 524}";
}
);
layerId = "220B7CD1-1E4F-4884-BA06-A44A5DCE8B14";
paths = (
{
closed = 1;
nodes = (
"204 -13 OFFCURVE",
"365 200 OFFCURVE",
"407 277 CURVE",
"406 271 OFFCURVE",
"404 236 OFFCURVE",
"404 222 CURVE SMOOTH",
"404 53 OFFCURVE",
"480 -13 OFFCURVE",
"578 -13 CURVE SMOOTH",
"652 -13 OFFCURVE",
"709 16 OFFCURVE",
"752 62 CURVE SMOOTH",
"758 68 OFFCURVE",
"759 71 OFFCURVE",
"759 77 CURVE SMOOTH",
"759 89 OFFCURVE",
"753 103 OFFCURVE",
"747 103 CURVE SMOOTH",
"743 103 OFFCURVE",
"741 101 OFFCURVE",
"728 88 CURVE SMOOTH",
"708 69 OFFCURVE",
"660 30 OFFCURVE",
"599 30 CURVE SMOOTH",
"504 30 OFFCURVE",
"465 112 OFFCURVE",
"465 227 CURVE SMOOTH",
"465 246 OFFCURVE",
"465 275 OFFCURVE",
"466 282 CURVE",
"492 276 OFFCURVE",
"533 271 OFFCURVE",
"574 271 CURVE SMOOTH",
"656 271 OFFCURVE",
"757 311 OFFCURVE",
"757 413 CURVE SMOOTH",
"757 472 OFFCURVE",
"719 524 OFFCURVE",
"621 524 CURVE SMOOTH",
"581 524 OFFCURVE",
"542 514 OFFCURVE",
"516 496 CURVE",
"446 513 OFFCURVE",
"338 524 OFFCURVE",
"320 524 CURVE SMOOTH",
"253 524 OFFCURVE",
"191 484 OFFCURVE",
"142 417 CURVE SMOOTH",
"91 348 OFFCURVE",
"88 141 OFFCURVE",
"88 63 CURVE SMOOTH",
"88 40 OFFCURVE",
"89 26 OFFCURVE",
"92 20 CURVE SMOOTH",
"97 9 OFFCURVE",
"131 -13 OFFCURVE",
"142 -13 CURVE SMOOTH"
);
},
{
closed = 1;
nodes = (
"149 42 OFFCURVE",
"145 48 OFFCURVE",
"145 89 CURVE SMOOTH",
"145 339 OFFCURVE",
"199 481 OFFCURVE",
"282 481 CURVE SMOOTH",
"320 481 OFFCURVE",
"377 476 OFFCURVE",
"460 460 CURVE",
"418 319 OFFCURVE",
"194 42 OFFCURVE",
"161 42 CURVE SMOOTH"
);
},
{
closed = 1;
nodes = (
"527 310 OFFCURVE",
"483 325 OFFCURVE",
"478 333 CURVE",
"497 441 OFFCURVE",
"550 492 OFFCURVE",
"609 492 CURVE SMOOTH",
"668 492 OFFCURVE",
"693 456 OFFCURVE",
"693 416 CURVE SMOOTH",
"693 348 OFFCURVE",
"650 310 OFFCURVE",
"573 310 CURVE SMOOTH"
);
}
);
width = 803;
},
{
anchors = (
{
name = bottom;
position = "{387, 0}";
},
{
name = top;
position = "{501, 524}";
}
);
layerId = "63F4CE79-9D5F-46D3-B41C-385689F27F0A";
paths = (
{
closed = 1;
nodes = (
"228 -13 OFFCURVE",
"370 160 OFFCURVE",
"386 224 CURVE",
"386 206 OFFCURVE",
"386 190 OFFCURVE",
"388 174 CURVE SMOOTH",
"403 19 OFFCURVE",
"490 -13 OFFCURVE",
"598 -13 CURVE SMOOTH",
"659 -13 OFFCURVE",
"730 16 OFFCURVE",
"774 60 CURVE SMOOTH",
"786 72 OFFCURVE",
"789 82 OFFCURVE",
"789 88 CURVE SMOOTH",
"789 111 OFFCURVE",
"785 129 OFFCURVE",
"776 129 CURVE SMOOTH",
"772 129 OFFCURVE",
"765 125 OFFCURVE",
"755 119 CURVE SMOOTH",
"730 104 OFFCURVE",
"692 87 OFFCURVE",
"664 87 CURVE SMOOTH",
"613 87 OFFCURVE",
"568 110 OFFCURVE",
"568 207 CURVE SMOOTH",
"568 217 OFFCURVE",
"568 228 OFFCURVE",
"568 239 CURVE",
"578 239 OFFCURVE",
"588 239 OFFCURVE",
"598 239 CURVE SMOOTH",
"701 239 OFFCURVE",
"822 285 OFFCURVE",
"822 392 CURVE SMOOTH",
"822 487 OFFCURVE",
"757 524 OFFCURVE",
"607 524 CURVE SMOOTH",
"574 524 OFFCURVE",
"541 516 OFFCURVE",
"513 507 CURVE",
"449 518 OFFCURVE",
"363 524 OFFCURVE",
"302 524 CURVE SMOOTH",
"201 524 OFFCURVE",
"146 482 OFFCURVE",
"98 417 CURVE SMOOTH",
"47 348 OFFCURVE",
"44 142 OFFCURVE",
"44 112 CURVE SMOOTH",
"44 97 OFFCURVE",
"45 84 OFFCURVE",
"47 69 CURVE SMOOTH",
"54 18 OFFCURVE",
"157 -13 OFFCURVE",
"175 -13 CURVE SMOOTH"
);
},
{
closed = 1;
nodes = (
"267 168 OFFCURVE",
"264 173 OFFCURVE",
"264 226 CURVE SMOOTH",
"264 369 OFFCURVE",
"286 455 OFFCURVE",
"341 455 CURVE SMOOTH",
"358 455 OFFCURVE",
"378 453 OFFCURVE",
"395 447 CURVE",
"395 298 OFFCURVE",
"292 168 OFFCURVE",
"275 168 CURVE SMOOTH"
);
},
{
closed = 1;
nodes = (
"580 289 OFFCURVE",
"572 289 OFFCURVE",
"569 289 CURVE",
"574 425 OFFCURVE",
"602 454 OFFCURVE",
"632 454 CURVE SMOOTH",
"651 454 OFFCURVE",
"666 434 OFFCURVE",
"666 401 CURVE SMOOTH",
"666 315 OFFCURVE",
"631 296 OFFCURVE",
"595 291 CURVE SMOOTH"
);
}
);
width = 827;
}
);
leftKerningGroup = KO_a;
leftMetricsKey = a;
note = ae;
rightKerningGroup = KO_e;
rightMetricsKey = e;
unicode = 00E6;
},
{
color = 1;
glyphname = b;
lastChange = "2022-10-10 19:50:14 +0000";
layers = (
{
anchors = (
{
name = bottom;
position = "{301, 0}";
},
{
name = cross;
position = "{208, 639}";
},
{
name = top;
position = "{419, 524}";
}
);
layerId = "220B7CD1-1E4F-4884-BA06-A44A5DCE8B14";
paths = (
{
closed = 1;
nodes = (
"374 -13 OFFCURVE",
"434 28 OFFCURVE",
"480 94 CURVE SMOOTH",
"511 139 OFFCURVE",
"519 255 OFFCURVE",
"519 333 CURVE SMOOTH",
"519 438 OFFCURVE",
"516 481 OFFCURVE",
"510 491 CURVE SMOOTH",
"503 503 OFFCURVE",
"470 524 OFFCURVE",
"458 524 CURVE SMOOTH",
"395 524 OFFCURVE",
"234 311 OFFCURVE",
"169 166 CURVE",
"178 282 OFFCURVE",
"207 688 OFFCURVE",
"208 729 CURVE SMOOTH",
"208 747 OFFCURVE",
"180 756 OFFCURVE",
"159 756 CURVE SMOOTH",
"151 756 OFFCURVE",
"150 753 OFFCURVE",
"150 748 CURVE SMOOTH",
"146 593 OFFCURVE",
"120 205 OFFCURVE",
"110 52 CURVE",
"105 52 OFFCURVE",
"98 39 OFFCURVE",
"98 21 CURVE SMOOTH",
"98 16 OFFCURVE",
"101 15 OFFCURVE",
"102 15 CURVE SMOOTH",
"178 -1 OFFCURVE",
"280 -13 OFFCURVE",
"307 -13 CURVE SMOOTH"
);
},
{
closed = 1;
nodes = (
"305 30 OFFCURVE",
"248 35 OFFCURVE",
"164 52 CURVE",
"199 193 OFFCURVE",
"409 470 OFFCURVE",
"442 470 CURVE SMOOTH",
"462 470 OFFCURVE",
"463 438 OFFCURVE",
"463 341 CURVE SMOOTH",
"463 142 OFFCURVE",
"417 30 OFFCURVE",
"343 30 CURVE SMOOTH"
);
}
);
width = 582;
},
{
anchors = (
{
name = bottom;
position = "{319, 0}";
},
{
name = cross;
position = "{213, 639}";
},
{
name = top;
position = "{470, 524}";
}
);
layerId = "63F4CE79-9D5F-46D3-B41C-385689F27F0A";
paths = (
{
closed = 1;
nodes = (
"465 -13 OFFCURVE",
"518 16 OFFCURVE",
"577 94 CURVE SMOOTH",
"629 163 OFFCURVE",
"624 369 OFFCURVE",
"624 398 CURVE SMOOTH",
"624 414 OFFCURVE",
"623 427 OFFCURVE",
"621 442 CURVE SMOOTH",
"614 493 OFFCURVE",
"511 524 OFFCURVE",
"493 524 CURVE SMOOTH",
"440 524 OFFCURVE",
"286 340 OFFCURVE",
"279 275 CURVE",
"279 311 OFFCURVE",
"310 652 OFFCURVE",
"310 665 CURVE SMOOTH",
"310 726 OFFCURVE",
"207 756 OFFCURVE",
"126 756 CURVE SMOOTH",
"100 756 OFFCURVE",
"93 748 OFFCURVE",
"93 729 CURVE SMOOTH",
"93 718 OFFCURVE",
"56 161 OFFCURVE",
"56 78 CURVE",
"51 78 OFFCURVE",
"40 56 OFFCURVE",
"40 29 CURVE SMOOTH",
"40 17 OFFCURVE",
"43 16 OFFCURVE",
"48 15 CURVE",
"202 -8 OFFCURVE",
"283 -13 OFFCURVE",
"366 -13 CURVE SMOOTH"
);
},
{
closed = 1;
nodes = (
"310 55 OFFCURVE",
"290 57 OFFCURVE",
"273 63 CURVE",
"273 212 OFFCURVE",
"376 342 OFFCURVE",
"393 342 CURVE SMOOTH",
"401 342 OFFCURVE",
"404 337 OFFCURVE",
"404 285 CURVE SMOOTH",
"404 141 OFFCURVE",
"382 55 OFFCURVE",
"327 55 CURVE SMOOTH"
);
}
);
width = 654;
}
);
leftKerningGroup = KO_k;
note = b;
rightKerningGroup = KO_b;
unicode = 0062;
userData = {
KernOnName = b;
};
},
{
color = 7;
glyphname = bstroke;
lastChange = "2022-10-10 18:08:28 +0000";
layers = (
{
background = {
paths = (
{
closed = 1;
nodes = (
"374 -13 OFFCURVE",
"434 28 OFFCURVE",
"480 94 CURVE SMOOTH",
"511 139 OFFCURVE",
"519 255 OFFCURVE",
"519 333 CURVE SMOOTH",
"519 438 OFFCURVE",
"516 481 OFFCURVE",
"510 491 CURVE SMOOTH",
"503 503 OFFCURVE",
"470 524 OFFCURVE",
"458 524 CURVE SMOOTH",
"395 524 OFFCURVE",
"234 311 OFFCURVE",
"169 166 CURVE",
"178 282 OFFCURVE",
"207 688 OFFCURVE",
"208 729 CURVE SMOOTH",
"208 747 OFFCURVE",
"180 756 OFFCURVE",
"159 756 CURVE SMOOTH",
"151 756 OFFCURVE",
"150 753 OFFCURVE",
"150 748 CURVE SMOOTH",
"146 593 OFFCURVE",
"120 205 OFFCURVE",
"110 52 CURVE",
"105 52 OFFCURVE",
"98 39 OFFCURVE",
"98 21 CURVE SMOOTH",
"98 16 OFFCURVE",
"101 15 OFFCURVE",
"102 15 CURVE SMOOTH",
"178 -1 OFFCURVE",
"280 -13 OFFCURVE",
"307 -13 CURVE SMOOTH"
);
},
{
closed = 1;
nodes = (
"305 30 OFFCURVE",
"248 35 OFFCURVE",
"164 52 CURVE",
"199 193 OFFCURVE",
"409 470 OFFCURVE",
"442 470 CURVE SMOOTH",
"462 470 OFFCURVE",
"463 438 OFFCURVE",
"463 341 CURVE SMOOTH",
"463 142 OFFCURVE",
"417 30 OFFCURVE",
"343 30 CURVE SMOOTH"
);
},
{
closed = 1;
nodes = (
"322 626 LINE",
"339 626 OFFCURVE",
"345 647 OFFCURVE",
"345 664 CURVE SMOOTH",
"345 670 OFFCURVE",
"342 672 OFFCURVE",
"337 672 CURVE",
"95 672 LINE",
"79 672 OFFCURVE",
"73 651 OFFCURVE",
"73 634 CURVE SMOOTH",
"73 627 OFFCURVE",
"75 626 OFFCURVE",
"80 626 CURVE"
);
}
);
};
components = (
{
name = b;
},
{
name = asc.cross_part.;
transform = "{1, 0, 0, 1, 19, 0}";
}
);
layerId = "220B7CD1-1E4F-4884-BA06-A44A5DCE8B14";
width = 582;
},
{
components = (
{
name = b;
},
{
name = asc.cross_part.;
transform = "{1, 0, 0, 1, 24, 0}";
}
);
layerId = "63F4CE79-9D5F-46D3-B41C-385689F27F0A";
width = 654;
}
);
leftKerningGroup = KO_V;
rightKerningGroup = KO_b;
unicode = 0180;
},
{
color = 1;
glyphname = c;
lastChange = "2022-10-10 19:50:14 +0000";
layers = (
{
anchors = (
{
name = bottom;
position = "{230, 0}";
},
{
name = top;
position = "{285, 524}";
}
);
layerId = "220B7CD1-1E4F-4884-BA06-A44A5DCE8B14";
paths = (
{
closed = 1;
nodes = (
"311 -13 OFFCURVE",
"368 16 OFFCURVE",
"411 62 CURVE SMOOTH",
"417 68 OFFCURVE",
"418 71 OFFCURVE",
"418 77 CURVE SMOOTH",
"418 89 OFFCURVE",
"412 103 OFFCURVE",
"406 103 CURVE SMOOTH",
"402 103 OFFCURVE",
"400 100 OFFCURVE",
"387 88 CURVE SMOOTH",
"366 69 OFFCURVE",
"319 30 OFFCURVE",
"258 30 CURVE SMOOTH",
"168 30 OFFCURVE",
"125 112 OFFCURVE",
"125 227 CURVE SMOOTH",
"125 387 OFFCURVE",
"188 489 OFFCURVE",
"258 489 CURVE SMOOTH",
"301 489 OFFCURVE",
"331 478 OFFCURVE",
"364 440 CURVE SMOOTH",
"373 430 OFFCURVE",
"377 426 OFFCURVE",
"385 426 CURVE SMOOTH",
"394 426 OFFCURVE",
"402 448 OFFCURVE",
"402 464 CURVE SMOOTH",
"402 472 OFFCURVE",
"398 480 OFFCURVE",
"388 489 CURVE SMOOTH",
"360 514 OFFCURVE",
"331 524 OFFCURVE",
"270 524 CURVE SMOOTH",
"179 524 OFFCURVE",
"63 450 OFFCURVE",
"63 222 CURVE SMOOTH",
"63 53 OFFCURVE",
"139 -13 OFFCURVE",
"237 -13 CURVE SMOOTH"
);
}
);
width = 448;
},
{
anchors = (
{
name = bottom;
position = "{237, 0}";
},
{
name = top;
position = "{289, 524}";
}
);
layerId = "63F4CE79-9D5F-46D3-B41C-385689F27F0A";
paths = (
{
closed = 1;
nodes = (
"310 -13 OFFCURVE",
"366 6 OFFCURVE",
"404 41 CURVE SMOOTH",
"413 49 OFFCURVE",
"416 55 OFFCURVE",
"416 67 CURVE SMOOTH",
"416 85 OFFCURVE",
"412 105 OFFCURVE",
"403 105 CURVE SMOOTH",
"399 105 OFFCURVE",
"395 103 OFFCURVE",
"384 99 CURVE SMOOTH",
"371 94 OFFCURVE",
"336 87 OFFCURVE",
"316 87 CURVE SMOOTH",
"262 87 OFFCURVE",
"237 109 OFFCURVE",
"237 208 CURVE SMOOTH",
"237 366 OFFCURVE",
"269 430 OFFCURVE",
"301 430 CURVE SMOOTH",
"333 430 OFFCURVE",
"360 409 OFFCURVE",
"383 398 CURVE SMOOTH",
"390 395 OFFCURVE",
"397 393 OFFCURVE",
"404 393 CURVE SMOOTH",
"423 393 OFFCURVE",
"429 445 OFFCURVE",
"429 464 CURVE SMOOTH",
"429 480 OFFCURVE",
"425 493 OFFCURVE",
"408 500 CURVE SMOOTH",
"378 512 OFFCURVE",
"334 524 OFFCURVE",
"276 524 CURVE SMOOTH",
"131 524 OFFCURVE",
"35 441 OFFCURVE",
"35 219 CURVE SMOOTH",
"35 8 OFFCURVE",
"147 -13 OFFCURVE",
"267 -13 CURVE SMOOTH"
);
}
);
width = 434;
}
);
leftKerningGroup = KO_e;
note = c;
rightKerningGroup = KO_c;
unicode = 0063;
userData = {
KernOnName = c;
};
},
{
color = 5;
glyphname = ccedilla;
lastChange = "2022-09-29 01:43:24 +0000";
layers = (
{
background = {
paths = (
{
closed = 1;
nodes = (
"402 472 OFFCURVE",
"398 480 OFFCURVE",
"388 489 CURVE SMOOTH",
"360 514 OFFCURVE",
"331 524 OFFCURVE",
"270 524 CURVE SMOOTH",
"179 524 OFFCURVE",
"63 450 OFFCURVE",
"63 222 CURVE SMOOTH",
"63 53 OFFCURVE",
"139 -13 OFFCURVE",
"237 -13 CURVE SMOOTH",
"311 -13 OFFCURVE",
"368 16 OFFCURVE",
"411 62 CURVE SMOOTH",
"417 68 OFFCURVE",
"418 71 OFFCURVE",
"418 77 CURVE SMOOTH",
"418 89 OFFCURVE",
"412 103 OFFCURVE",
"406 103 CURVE SMOOTH",
"402 103 OFFCURVE",
"400 100 OFFCURVE",
"387 88 CURVE SMOOTH",
"366 69 OFFCURVE",
"319 30 OFFCURVE",
"258 30 CURVE SMOOTH",
"168 30 OFFCURVE",
"125 112 OFFCURVE",
"125 227 CURVE SMOOTH",
"125 387 OFFCURVE",
"188 489 OFFCURVE",
"258 489 CURVE SMOOTH",
"301 489 OFFCURVE",
"331 478 OFFCURVE",
"364 440 CURVE SMOOTH",
"373 430 OFFCURVE",
"377 426 OFFCURVE",
"385 426 CURVE SMOOTH",
"394 426 OFFCURVE",
"402 448 OFFCURVE",
"402 464 CURVE SMOOTH"
);
},
{
closed = 1;
nodes = (
"318 -70 OFFCURVE",
"291 -57 OFFCURVE",
"246 -57 CURVE SMOOTH",
"239 -57 LINE SMOOTH",
"234 -57 OFFCURVE",
"232 -56 OFFCURVE",
"232 -53 CURVE SMOOTH",
"232 -48 OFFCURVE",
"238 -42 OFFCURVE",
"238 -40 CURVE SMOOTH",
"238 -36 OFFCURVE",
"232 -35 OFFCURVE",
"228 -35 CURVE SMOOTH",
"217 -35 OFFCURVE",
"203 -57 OFFCURVE",
"203 -79 CURVE SMOOTH",
"203 -93 OFFCURVE",
"207 -101 OFFCURVE",
"217 -101 CURVE SMOOTH",
"225 -101 LINE SMOOTH",
"255 -101 OFFCURVE",
"278 -105 OFFCURVE",
"278 -126 CURVE SMOOTH",
"278 -147 OFFCURVE",
"264 -169 OFFCURVE",
"225 -173 CURVE SMOOTH",
"219 -174 OFFCURVE",
"217 -175 OFFCURVE",
"217 -179 CURVE SMOOTH",
"217 -186 OFFCURVE",
"225 -190 OFFCURVE",
"237 -190 CURVE SMOOTH",
"266 -190 OFFCURVE",
"318 -161 OFFCURVE",
"318 -111 CURVE SMOOTH"
);
}
);
};
components = (
{
name = c;
},
{
name = cedillacomb;
transform = "{1, 0, 0, 1, 188, 0}";
}
);
layerId = "220B7CD1-1E4F-4884-BA06-A44A5DCE8B14";
width = 448;
},
{
background = {
paths = (
{
closed = 1;
nodes = (
"402 472 OFFCURVE",
"398 480 OFFCURVE",
"388 489 CURVE SMOOTH",
"360 514 OFFCURVE",
"331 524 OFFCURVE",
"270 524 CURVE SMOOTH",
"179 524 OFFCURVE",
"63 450 OFFCURVE",
"63 222 CURVE SMOOTH",
"63 53 OFFCURVE",
"139 -13 OFFCURVE",
"237 -13 CURVE SMOOTH",
"311 -13 OFFCURVE",
"368 16 OFFCURVE",
"411 62 CURVE SMOOTH",
"417 68 OFFCURVE",
"418 71 OFFCURVE",
"418 77 CURVE SMOOTH",
"418 89 OFFCURVE",
"412 103 OFFCURVE",
"406 103 CURVE SMOOTH",
"402 103 OFFCURVE",
"400 100 OFFCURVE",
"387 88 CURVE SMOOTH",
"366 69 OFFCURVE",
"319 30 OFFCURVE",
"258 30 CURVE SMOOTH",
"168 30 OFFCURVE",
"125 112 OFFCURVE",
"125 227 CURVE SMOOTH",
"125 387 OFFCURVE",
"188 489 OFFCURVE",
"258 489 CURVE SMOOTH",
"301 489 OFFCURVE",
"331 478 OFFCURVE",
"364 440 CURVE SMOOTH",
"373 430 OFFCURVE",
"377 426 OFFCURVE",
"385 426 CURVE SMOOTH",
"394 426 OFFCURVE",
"402 448 OFFCURVE",
"402 464 CURVE SMOOTH"
);
},
{
closed = 1;
nodes = (
"318 -70 OFFCURVE",
"291 -57 OFFCURVE",
"246 -57 CURVE SMOOTH",
"239 -57 LINE SMOOTH",
"234 -57 OFFCURVE",
"232 -56 OFFCURVE",
"232 -53 CURVE SMOOTH",
"232 -48 OFFCURVE",
"238 -42 OFFCURVE",
"238 -40 CURVE SMOOTH",
"238 -36 OFFCURVE",
"232 -35 OFFCURVE",
"228 -35 CURVE SMOOTH",
"217 -35 OFFCURVE",
"203 -57 OFFCURVE",
"203 -79 CURVE SMOOTH",
"203 -93 OFFCURVE",
"207 -101 OFFCURVE",
"217 -101 CURVE SMOOTH",
"225 -101 LINE SMOOTH",
"255 -101 OFFCURVE",
"278 -105 OFFCURVE",
"278 -126 CURVE SMOOTH",
"278 -147 OFFCURVE",
"264 -169 OFFCURVE",
"225 -173 CURVE SMOOTH",
"219 -174 OFFCURVE",
"217 -175 OFFCURVE",
"217 -179 CURVE SMOOTH",
"217 -186 OFFCURVE",
"225 -190 OFFCURVE",
"237 -190 CURVE SMOOTH",
"266 -190 OFFCURVE",
"318 -161 OFFCURVE",
"318 -111 CURVE SMOOTH"
);
}
);
};
components = (
{
name = c;
},
{
name = cedillacomb;
transform = "{1, 0, 0, 1, 150, 0}";
}
);
layerId = "63F4CE79-9D5F-46D3-B41C-385689F27F0A";
width = 434;
}
);
leftKerningGroup = KO_e;
note = ccedilla;
rightKerningGroup = KO_c;
unicode = 00E7;
},
{
glyphname = creversed;
lastChange = "2022-10-11 14:35:50 +0000";
layers = (
{
anchors = (
{
name = bottom;
position = "{218, 0}";
},
{
name = top;
position = "{163, 524}";
}
);
layerId = "220B7CD1-1E4F-4884-BA06-A44A5DCE8B14";
paths = (
{
closed = 1;
nodes = (
"295 -13 OFFCURVE",
"374 53 OFFCURVE",
"383 222 CURVE SMOOTH",
"395 450 OFFCURVE",
"283 524 OFFCURVE",
"192 524 CURVE SMOOTH",
"131 524 OFFCURVE",
"102 514 OFFCURVE",
"72 489 CURVE SMOOTH",
"62 480 OFFCURVE",
"57 472 OFFCURVE",
"57 464 CURVE SMOOTH",
"56 448 OFFCURVE",
"63 426 OFFCURVE",
"72 426 CURVE SMOOTH",
"80 426 OFFCURVE",
"84 430 OFFCURVE",
"94 440 CURVE SMOOTH",
"129 478 OFFCURVE",
"159 489 OFFCURVE",
"202 489 CURVE SMOOTH",
"272 489 OFFCURVE",
"330 387 OFFCURVE",
"322 227 CURVE SMOOTH",
"315 112 OFFCURVE",
"268 30 OFFCURVE",
"178 30 CURVE SMOOTH",
"117 30 OFFCURVE",
"72 69 OFFCURVE",
"52 88 CURVE SMOOTH",
"40 100 OFFCURVE",
"38 103 OFFCURVE",
"34 103 CURVE SMOOTH",
"28 103 OFFCURVE",
"21 89 OFFCURVE",
"21 77 CURVE SMOOTH",
"20 71 OFFCURVE",
"21 68 OFFCURVE",
"27 62 CURVE SMOOTH",
"67 16 OFFCURVE",
"123 -13 OFFCURVE",
"197 -13 CURVE SMOOTH"
);
}
);
width = 448;
},
{
anchors = (
{
name = bottom;
position = "{184, 0}";
},
{
name = top;
position = "{159, 524}";
}
);
layerId = "63F4CE79-9D5F-46D3-B41C-385689F27F0A";
paths = (
{
closed = 1;
nodes = (
"273 -13 OFFCURVE",
"386 8 OFFCURVE",
"397 219 CURVE SMOOTH",
"409 441 OFFCURVE",
"317 524 OFFCURVE",
"172 524 CURVE SMOOTH",
"114 524 OFFCURVE",
"69 512 OFFCURVE",
"39 500 CURVE SMOOTH",
"21 493 OFFCURVE",
"17 480 OFFCURVE",
"16 464 CURVE SMOOTH",
"15 445 OFFCURVE",
"18 393 OFFCURVE",
"37 393 CURVE SMOOTH",
"44 393 OFFCURVE",
"51 395 OFFCURVE",
"58 398 CURVE SMOOTH",
"82 409 OFFCURVE",
"110 430 OFFCURVE",
"142 430 CURVE SMOOTH",
"174 430 OFFCURVE",
"203 366 OFFCURVE",
"195 208 CURVE SMOOTH",
"189 109 OFFCURVE",
"163 87 OFFCURVE",
"109 87 CURVE SMOOTH",
"89 87 OFFCURVE",
"55 94 OFFCURVE",
"42 99 CURVE SMOOTH",
"31 103 OFFCURVE",
"27 105 OFFCURVE",
"23 105 CURVE SMOOTH",
"14 105 OFFCURVE",
"9 85 OFFCURVE",
"8 67 CURVE SMOOTH",
"8 55 OFFCURVE",
"10 49 OFFCURVE",
"19 41 CURVE SMOOTH",
"55 6 OFFCURVE",
"110 -13 OFFCURVE",
"153 -13 CURVE SMOOTH"
);
}
);
width = 434;
}
);
unicode = 2184;
},
{
color = 4;
glyphname = d;
lastChange = "2022-10-10 19:50:14 +0000";
layers = (
{
anchors = (
{
name = bottom;
position = "{303, 0}";
},
{
name = center;
position = "{323, 262}";
},
{
name = cross;
position = "{480, 639}";
},
{
name = top;
position = "{253, 524}";
},
{
name = topright;
position = "{638, 630}";
}
);
layerId = "220B7CD1-1E4F-4884-BA06-A44A5DCE8B14";
paths = (
{
closed = 1;
nodes = (
"205 -13 OFFCURVE",
"379 210 OFFCURVE",
"451 355 CURVE",
"445 262 OFFCURVE",
"438 121 OFFCURVE",
"438 63 CURVE SMOOTH",
"438 40 OFFCURVE",
"438 26 OFFCURVE",
"441 20 CURVE SMOOTH",
"446 9 OFFCURVE",
"480 -13 OFFCURVE",
"491 -13 CURVE SMOOTH",
"533 -13 OFFCURVE",
"618 88 OFFCURVE",
"651 131 CURVE SMOOTH",
"653 133 OFFCURVE",
"654 136 OFFCURVE",
"654 141 CURVE SMOOTH",
"654 154 OFFCURVE",
"644 170 OFFCURVE",
"641 170 CURVE SMOOTH",
"637 170 OFFCURVE",
"636 167 OFFCURVE",
"633 164 CURVE",
"612 136 OFFCURVE",
"530 42 OFFCURVE",
"511 42 CURVE SMOOTH",
"499 42 OFFCURVE",
"495 48 OFFCURVE",
"495 89 CURVE SMOOTH",
"495 237 OFFCURVE",
"511 451 OFFCURVE",
"511 460 CURVE",
"516 460 OFFCURVE",
"523 472 OFFCURVE",
"523 490 CURVE SMOOTH",
"523 495 OFFCURVE",
"521 497 OFFCURVE",
"519 497 CURVE SMOOTH",
"515 497 LINE",
"524 632 OFFCURVE",
"530 709 OFFCURVE",
"530 729 CURVE SMOOTH",
"530 747 OFFCURVE",
"503 756 OFFCURVE",
"481 756 CURVE SMOOTH",
"474 756 OFFCURVE",
"472 753 OFFCURVE",
"472 748 CURVE SMOOTH",
"471 655 OFFCURVE",
"469 602 OFFCURVE",
"462 508 CURVE",
"397 518 OFFCURVE",
"334 524 OFFCURVE",
"320 524 CURVE SMOOTH",
"253 524 OFFCURVE",
"191 484 OFFCURVE",
"142 417 CURVE SMOOTH",
"91 348 OFFCURVE",
"88 141 OFFCURVE",
"88 63 CURVE SMOOTH",
"88 40 OFFCURVE",
"89 26 OFFCURVE",
"92 20 CURVE SMOOTH",
"97 9 OFFCURVE",
"131 -13 OFFCURVE",
"142 -13 CURVE SMOOTH"
);
},
{
closed = 1;
nodes = (
"149 42 OFFCURVE",
"145 48 OFFCURVE",
"145 89 CURVE SMOOTH",
"145 339 OFFCURVE",
"199 481 OFFCURVE",
"282 481 CURVE SMOOTH",
"320 481 OFFCURVE",
"377 476 OFFCURVE",
"460 460 CURVE",
"418 319 OFFCURVE",
"194 42 OFFCURVE",
"161 42 CURVE SMOOTH"
);
}
);
width = 645;
},
{
anchors = (
{
name = bottom;
position = "{303, 0}";
},
{
name = center;
position = "{323, 262}";
},
{
name = cross;
position = "{496, 639}";
},
{
name = top;
position = "{184, 557}";
},
{
name = topright;
position = "{651, 591}";
}
);
layerId = "63F4CE79-9D5F-46D3-B41C-385689F27F0A";
paths = (
{
closed = 1;
nodes = (
"228 -13 OFFCURVE",
"370 160 OFFCURVE",
"386 224 CURVE",
"384 200 OFFCURVE",
"381 144 OFFCURVE",
"381 112 CURVE SMOOTH",
"381 97 OFFCURVE",
"382 84 OFFCURVE",
"384 69 CURVE SMOOTH",
"391 18 OFFCURVE",
"494 -13 OFFCURVE",
"512 -13 CURVE SMOOTH",
"556 -13 OFFCURVE",
"653 104 OFFCURVE",
"675 137 CURVE SMOOTH",
"682 147 OFFCURVE",
"686 157 OFFCURVE",
"686 167 CURVE SMOOTH",
"686 187 OFFCURVE",
"669 211 OFFCURVE",
"658 211 CURVE SMOOTH",
"654 211 OFFCURVE",
"652 209 OFFCURVE",
"646 201 CURVE",
"639 192 OFFCURVE",
"620 168 OFFCURVE",
"612 168 CURVE",
"604 168 OFFCURVE",
"601 173 OFFCURVE",
"601 226 CURVE SMOOTH",
"601 263 OFFCURVE",
"611 424 OFFCURVE",
"611 433 CURVE",
"617 433 OFFCURVE",
"628 455 OFFCURVE",
"628 482 CURVE SMOOTH",
"628 494 OFFCURVE",
"625 496 OFFCURVE",
"620 496 CURVE",
"616 496 LINE",
"616 504 OFFCURVE",
"629 659 OFFCURVE",
"629 665 CURVE SMOOTH",
"629 726 OFFCURVE",
"526 756 OFFCURVE",
"446 756 CURVE SMOOTH",
"419 756 OFFCURVE",
"413 748 OFFCURVE",
"413 729 CURVE SMOOTH",
"413 724 OFFCURVE",
"409 653 OFFCURVE",
"399 521 CURVE",
"369 522 OFFCURVE",
"339 524 OFFCURVE",
"302 524 CURVE SMOOTH",
"201 524 OFFCURVE",
"146 482 OFFCURVE",
"98 417 CURVE SMOOTH",
"47 348 OFFCURVE",
"44 142 OFFCURVE",
"44 112 CURVE SMOOTH",
"44 97 OFFCURVE",
"45 84 OFFCURVE",
"47 69 CURVE SMOOTH",
"54 18 OFFCURVE",
"157 -13 OFFCURVE",
"175 -13 CURVE SMOOTH"
);
},
{
closed = 1;
nodes = (
"267 167 OFFCURVE",
"264 172 OFFCURVE",
"264 224 CURVE SMOOTH",
"264 368 OFFCURVE",
"286 454 OFFCURVE",
"341 454 CURVE SMOOTH",
"358 454 OFFCURVE",
"378 452 OFFCURVE",
"395 446 CURVE",
"395 297 OFFCURVE",
"292 167 OFFCURVE",
"275 167 CURVE SMOOTH"
);
}
);
width = 691;
}
);
leftKerningGroup = KO_a;
leftMetricsKey = a;
note = d;
rightKerningGroup = KO_d;
unicode = 0064;
userData = {
KernOnName = d;
};
},
{
color = 4;
glyphname = eth;
lastChange = "2022-09-24 06:35:46 +0000";
layers = (
{
layerId = "220B7CD1-1E4F-4884-BA06-A44A5DCE8B14";
paths = (
{
closed = 1;
nodes = (
"419 -13 OFFCURVE",
"499 105 OFFCURVE",
"499 272 CURVE SMOOTH",
"499 428 OFFCURVE",
"453 522 OFFCURVE",
"319 644 CURVE",
"353 663 OFFCURVE",
"416 691 OFFCURVE",
"446 707 CURVE SMOOTH",
"456 712 OFFCURVE",
"458 716 OFFCURVE",
"458 723 CURVE SMOOTH",
"458 736 OFFCURVE",
"451 756 OFFCURVE",
"445 756 CURVE SMOOTH",
"441 756 OFFCURVE",
"434 752 OFFCURVE",
"423 745 CURVE SMOOTH",
"403 732 OFFCURVE",
"318 685 OFFCURVE",
"288 668 CURVE",
"247 702 OFFCURVE",
"199 732 OFFCURVE",
"171 749 CURVE SMOOTH",
"161 755 OFFCURVE",
"159 756 OFFCURVE",
"155 756 CURVE SMOOTH",
"136 756 OFFCURVE",
"101 744 OFFCURVE",
"101 734 CURVE SMOOTH",
"101 732 OFFCURVE",
"103 731 OFFCURVE",
"111 727 CURVE SMOOTH",
"156 705 OFFCURVE",
"204 671 OFFCURVE",
"237 646 CURVE",
"202 627 OFFCURVE",
"153 605 OFFCURVE",
"126 591 CURVE SMOOTH",
"116 586 OFFCURVE",
"114 582 OFFCURVE",
"114 575 CURVE SMOOTH",
"114 567 OFFCURVE",
"121 548 OFFCURVE",
"127 548 CURVE SMOOTH",
"131 548 OFFCURVE",
"138 551 OFFCURVE",
"149 558 CURVE SMOOTH",
"166 569 OFFCURVE",
"231 601 OFFCURVE",
"270 622 CURVE",
"312 592 OFFCURVE",
"355 541 OFFCURVE",
"374 515 CURVE",
"349 523 OFFCURVE",
"317 524 OFFCURVE",
"300 524 CURVE SMOOTH",
"171 524 OFFCURVE",
"63 451 OFFCURVE",
"63 219 CURVE SMOOTH",
"63 40 OFFCURVE",
"146 -13 OFFCURVE",
"262 -13 CURVE SMOOTH"
);
},
{
closed = 1;
nodes = (
"166 23 OFFCURVE",
"123 86 OFFCURVE",
"123 224 CURVE SMOOTH",
"123 395 OFFCURVE",
"184 489 OFFCURVE",
"293 489 CURVE SMOOTH",
"394 489 OFFCURVE",
"437 426 OFFCURVE",
"437 287 CURVE SMOOTH",
"437 116 OFFCURVE",
"377 23 OFFCURVE",
"267 23 CURVE SMOOTH"
);
}
);
width = 562;
},
{
layerId = "63F4CE79-9D5F-46D3-B41C-385689F27F0A";
paths = (
{
closed = 1;
nodes = (
"455 -13 OFFCURVE",
"536 73 OFFCURVE",
"536 297 CURVE SMOOTH",
"536 460 OFFCURVE",
"458 602 OFFCURVE",
"430 636 CURVE",
"455 644 OFFCURVE",
"480 652 OFFCURVE",
"505 660 CURVE SMOOTH",
"518 664 OFFCURVE",
"519 682 OFFCURVE",
"519 692 CURVE SMOOTH",
"519 710 OFFCURVE",
"513 741 OFFCURVE",
"498 741 CURVE SMOOTH",
"494 741 OFFCURVE",
"482 737 OFFCURVE",
"475 735 CURVE SMOOTH",
"469 733 OFFCURVE",
"417 716 OFFCURVE",
"377 702 CURVE",
"359 720 OFFCURVE",
"338 735 OFFCURVE",
"324 744 CURVE SMOOTH",
"310 753 OFFCURVE",
"301 756 OFFCURVE",
"293 756 CURVE SMOOTH",
"215 756 OFFCURVE",
"156 725 OFFCURVE",
"156 710 CURVE SMOOTH",
"156 704 OFFCURVE",
"161 701 OFFCURVE",
"171 692 CURVE SMOOTH",
"180 684 OFFCURVE",
"194 673 OFFCURVE",
"212 653 CURVE",
"192 647 OFFCURVE",
"171 640 OFFCURVE",
"149 633 CURVE SMOOTH",
"136 629 OFFCURVE",
"135 611 OFFCURVE",
"135 601 CURVE SMOOTH",
"135 579 OFFCURVE",
"142 552 OFFCURVE",
"153 552 CURVE SMOOTH",
"159 552 OFFCURVE",
"171 556 OFFCURVE",
"178 558 CURVE SMOOTH",
"207 568 OFFCURVE",
"236 577 OFFCURVE",
"265 587 CURVE",
"276 574 OFFCURVE",
"296 541 OFFCURVE",
"302 524 CURVE",
"296 524 OFFCURVE",
"290 524 OFFCURVE",
"283 524 CURVE SMOOTH",
"126 524 OFFCURVE",
"35 441 OFFCURVE",
"35 219 CURVE SMOOTH",
"35 1 OFFCURVE",
"152 -13 OFFCURVE",
"267 -13 CURVE SMOOTH"
);
},
{
closed = 1;
nodes = (
"239 55 OFFCURVE",
"237 71 OFFCURVE",
"237 205 CURVE SMOOTH",
"237 372 OFFCURVE",
"269 454 OFFCURVE",
"301 454 CURVE SMOOTH",
"332 454 OFFCURVE",
"335 438 OFFCURVE",
"335 303 CURVE SMOOTH",
"335 137 OFFCURVE",
"302 55 OFFCURVE",
"271 55 CURVE SMOOTH"
);
}
);
width = 562;
}
);
leftKerningGroup = KO_eth;
note = eth;
rightKerningGroup = KO_eth;
unicode = 00F0;
},
{
color = 1;
glyphname = dcroat;
lastChange = "2022-10-09 03:59:38 +0000";
layers = (
{
background = {
paths = (
{
closed = 1;
nodes = (
"205 -13 OFFCURVE",
"379 210 OFFCURVE",
"451 355 CURVE",
"445 262 OFFCURVE",
"438 121 OFFCURVE",
"438 63 CURVE SMOOTH",
"438 40 OFFCURVE",
"438 26 OFFCURVE",
"441 20 CURVE SMOOTH",
"446 9 OFFCURVE",
"480 -13 OFFCURVE",
"491 -13 CURVE SMOOTH",
"533 -13 OFFCURVE",
"618 88 OFFCURVE",
"651 131 CURVE SMOOTH",
"653 133 OFFCURVE",
"654 136 OFFCURVE",
"654 141 CURVE SMOOTH",
"654 154 OFFCURVE",
"644 170 OFFCURVE",
"641 170 CURVE SMOOTH",
"637 170 OFFCURVE",
"636 167 OFFCURVE",
"633 164 CURVE",
"612 136 OFFCURVE",
"530 42 OFFCURVE",
"511 42 CURVE SMOOTH",
"499 42 OFFCURVE",
"495 48 OFFCURVE",
"495 89 CURVE SMOOTH",
"495 237 OFFCURVE",
"511 451 OFFCURVE",
"511 460 CURVE",
"516 460 OFFCURVE",
"523 472 OFFCURVE",
"523 490 CURVE SMOOTH",
"523 495 OFFCURVE",
"521 497 OFFCURVE",
"519 497 CURVE SMOOTH",
"515 497 LINE",
"524 632 OFFCURVE",
"530 709 OFFCURVE",
"530 729 CURVE SMOOTH",
"530 747 OFFCURVE",
"503 756 OFFCURVE",
"481 756 CURVE SMOOTH",
"474 756 OFFCURVE",
"472 753 OFFCURVE",
"472 748 CURVE SMOOTH",
"471 655 OFFCURVE",
"469 602 OFFCURVE",
"462 508 CURVE",
"397 518 OFFCURVE",
"334 524 OFFCURVE",
"320 524 CURVE SMOOTH",
"253 524 OFFCURVE",
"191 484 OFFCURVE",
"142 417 CURVE SMOOTH",
"91 348 OFFCURVE",
"88 141 OFFCURVE",
"88 63 CURVE SMOOTH",
"88 40 OFFCURVE",
"89 26 OFFCURVE",
"92 20 CURVE SMOOTH",
"97 9 OFFCURVE",
"131 -13 OFFCURVE",
"142 -13 CURVE SMOOTH"
);
},
{
closed = 1;
nodes = (
"149 42 OFFCURVE",
"145 48 OFFCURVE",
"145 89 CURVE SMOOTH",
"145 339 OFFCURVE",
"199 481 OFFCURVE",
"282 481 CURVE SMOOTH",
"320 481 OFFCURVE",
"377 476 OFFCURVE",
"460 460 CURVE",
"418 319 OFFCURVE",
"194 42 OFFCURVE",
"161 42 CURVE SMOOTH"
);
},
{
closed = 1;
nodes = (
"588 626 LINE",
"605 626 OFFCURVE",
"611 647 OFFCURVE",
"611 664 CURVE SMOOTH",
"611 670 OFFCURVE",
"608 672 OFFCURVE",
"603 672 CURVE",
"370 672 LINE",
"354 672 OFFCURVE",
"348 651 OFFCURVE",
"348 634 CURVE SMOOTH",
"348 627 OFFCURVE",
"350 626 OFFCURVE",
"355 626 CURVE"
);
}
);
};
components = (
{
name = d;
},
{
name = asc.cross_part.;
transform = "{1, 0, 0, 1, 291, 0}";
}
);
layerId = "220B7CD1-1E4F-4884-BA06-A44A5DCE8B14";
width = 645;
},
{
components = (
{
name = d;
},
{
name = asc.cross_part.;
transform = "{1, 0, 0, 1, 307, 0}";
}
);
layerId = "63F4CE79-9D5F-46D3-B41C-385689F27F0A";
width = 691;
}
);
leftKerningGroup = KO_a;
rightKerningGroup = KO_d;
unicode = 0111;
},
{
color = 1;
glyphname = e;
lastChange = "2022-10-11 00:54:56 +0000";
layers = (
{
anchors = (
{
name = bottom;
position = "{234, 0}";
},
{
name = ogonek;
position = "{371, 0}";
},
{
name = top;
position = "{299, 524}";
}
);
layerId = "220B7CD1-1E4F-4884-BA06-A44A5DCE8B14";
paths = (
{
closed = 1;
nodes = (
"314 -13 OFFCURVE",
"371 16 OFFCURVE",
"414 62 CURVE SMOOTH",
"420 68 OFFCURVE",
"421 71 OFFCURVE",
"421 77 CURVE SMOOTH",
"421 89 OFFCURVE",
"415 103 OFFCURVE",
"409 103 CURVE SMOOTH",
"405 103 OFFCURVE",
"403 100 OFFCURVE",
"390 88 CURVE SMOOTH",
"369 69 OFFCURVE",
"317 30 OFFCURVE",
"256 30 CURVE SMOOTH",
"165 30 OFFCURVE",
"126 112 OFFCURVE",
"126 227 CURVE SMOOTH",
"126 246 OFFCURVE",
"126 275 OFFCURVE",
"128 282 CURVE",
"154 276 OFFCURVE",
"194 271 OFFCURVE",
"236 271 CURVE SMOOTH",
"318 271 OFFCURVE",
"419 311 OFFCURVE",
"419 413 CURVE SMOOTH",
"419 472 OFFCURVE",
"381 524 OFFCURVE",
"283 524 CURVE SMOOTH",
"171 524 OFFCURVE",
"66 450 OFFCURVE",
"66 222 CURVE SMOOTH",
"66 53 OFFCURVE",
"142 -13 OFFCURVE",
"240 -13 CURVE SMOOTH"
);
},
{
closed = 1;
nodes = (
"188 310 OFFCURVE",
"144 325 OFFCURVE",
"139 333 CURVE",
"158 441 OFFCURVE",
"211 492 OFFCURVE",
"270 492 CURVE SMOOTH",
"329 492 OFFCURVE",
"354 456 OFFCURVE",
"354 416 CURVE SMOOTH",
"354 348 OFFCURVE",
"311 310 OFFCURVE",
"234 310 CURVE SMOOTH"
);
}
);
width = 465;
},
{
anchors = (
{
name = bottom;
position = "{231, 0}";
},
{
name = ogonek;
position = "{368, 0}";
},
{
name = top;
position = "{296, 524}";
}
);
layerId = "63F4CE79-9D5F-46D3-B41C-385689F27F0A";
paths = (
{
closed = 1;
nodes = (
"328 -13 OFFCURVE",
"399 16 OFFCURVE",
"443 60 CURVE SMOOTH",
"455 72 OFFCURVE",
"458 82 OFFCURVE",
"458 88 CURVE SMOOTH",
"458 111 OFFCURVE",
"454 129 OFFCURVE",
"445 129 CURVE SMOOTH",
"441 129 OFFCURVE",
"434 125 OFFCURVE",
"424 119 CURVE SMOOTH",
"399 104 OFFCURVE",
"361 87 OFFCURVE",
"333 87 CURVE SMOOTH",
"272 87 OFFCURVE",
"237 103 OFFCURVE",
"237 207 CURVE SMOOTH",
"237 217 OFFCURVE",
"237 228 OFFCURVE",
"237 239 CURVE",
"247 239 OFFCURVE",
"257 239 OFFCURVE",
"267 239 CURVE SMOOTH",
"370 239 OFFCURVE",
"491 285 OFFCURVE",
"491 393 CURVE SMOOTH",
"491 487 OFFCURVE",
"426 524 OFFCURVE",
"276 524 CURVE SMOOTH",
"132 524 OFFCURVE",
"35 441 OFFCURVE",
"35 219 CURVE SMOOTH",
"35 3 OFFCURVE",
"152 -13 OFFCURVE",
"267 -13 CURVE SMOOTH"
);
},
{
closed = 1;
nodes = (
"249 289 OFFCURVE",
"241 289 OFFCURVE",
"238 289 CURVE",
"243 425 OFFCURVE",
"271 454 OFFCURVE",
"301 454 CURVE SMOOTH",
"320 454 OFFCURVE",
"335 434 OFFCURVE",
"335 401 CURVE SMOOTH",
"335 315 OFFCURVE",
"300 296 OFFCURVE",
"264 291 CURVE SMOOTH"
);
}
);
width = 496;
}
);
leftKerningGroup = KO_e;
note = e;
rightKerningGroup = KO_e;
unicode = 0065;
userData = {
KernOnName = e;
};
},
